<svg width="51" height="51" viewBox="0 0 51 51" fill="none" xmlns="http://www.w3.org/2000/svg">
<circle cx="25.5" cy="25.5" r="25.5" fill="#CCCCCC"/>
<path d="M33.9101 39.382H12.4372C11.2513 39.382 10.29 38.4205 10.29 37.2348V11.2165C10.29 10.0306 11.2515 9.06934 12.4372 9.06934H33.9101C35.0961 9.06934 36.0573 10.0308 36.0573 11.2165V37.2345C36.0575 38.4205 35.0961 39.382 33.9101 39.382Z" fill="#D9DADA"/>
<path d="M31.5962 24.0899H14.7564C14.1095 24.0899 13.585 23.5653 13.585 22.9184C13.585 22.2716 14.1093 21.747 14.7564 21.747H31.5962C32.243 21.747 32.7676 22.2713 32.7676 22.9184C32.7676 23.5655 32.243 24.0899 31.5962 24.0899Z" fill="#9B9596"/>
<path d="M31.5962 29.5039H14.7564C14.1095 29.5039 13.585 28.9796 13.585 28.3325C13.585 27.6857 14.1093 27.1611 14.7564 27.1611H31.5962C32.243 27.1611 32.7676 27.6857 32.7676 28.3325C32.7676 28.9794 32.243 29.5039 31.5962 29.5039Z" fill="#9B9596"/>
<path d="M31.5962 34.9179H14.7564C14.1095 34.9179 13.585 34.3936 13.585 33.7465C13.585 33.0997 14.1093 32.5751 14.7564 32.5751H31.5962C32.243 32.5751 32.7676 33.0994 32.7676 33.7465C32.7676 34.3934 32.243 34.9179 31.5962 34.9179Z" fill="#9B9596"/>
<path d="M31.9066 12.2548H14.442C13.9678 12.2548 13.583 12.6393 13.583 13.1138V17.3368C13.583 17.8112 13.9676 18.1958 14.442 18.1958H31.9066C32.3809 18.1958 32.7657 17.8112 32.7657 17.3368V13.1138C32.7657 12.6393 32.3811 12.2548 31.9066 12.2548Z" fill="#9B9596"/>
<path d="M27.8706 34.2993L23.4891 35.7087C23.0491 35.8503 22.6335 35.4344 22.7753 34.9945L24.1878 30.6137C24.2902 30.2963 24.4666 30.0077 24.7026 29.772L38.113 16.3565C38.9996 15.4707 40.4366 15.4712 41.3224 16.3575L42.1246 17.1602C43.0104 18.0467 43.0099 19.4837 42.1236 20.3695L28.7129 33.7853C28.4769 34.021 28.188 34.1971 27.8706 34.2993Z" fill="#F8F7F7"/>
<path d="M27.0093 33.4389L23.3216 35.5428C22.9514 35.754 22.7302 35.5325 22.9416 35.1625L25.048 31.4761C25.2005 31.2091 25.4032 30.9468 25.6392 30.7108L39.0496 17.2953C39.9362 16.4095 41.0375 16.0738 41.5092 16.546L41.9364 16.9734C42.4081 17.4456 42.0719 18.5464 41.1856 19.4325L27.7751 32.848C27.5389 33.084 27.2766 33.2864 27.0093 33.4389Z" fill="#E5E5E6"/>
<path d="M40.0125 22.4787L36.002 18.4659L34.5617 19.9053L38.5723 23.9181L40.0125 22.4787Z" fill="black"/>
<path d="M24.7562 29.7188L24.7026 29.7724C24.4666 30.0081 24.2902 30.2967 24.1878 30.6142L22.7753 34.995C22.6335 35.4349 23.0491 35.8507 23.4891 35.7092L27.8706 34.2998C28.188 34.1976 28.4769 34.0214 28.7129 33.7857L28.7665 33.7321L24.7562 29.7188Z" fill="#E6E7E8"/>
<path d="M23.3217 35.5416L27.0094 33.4378C27.2767 33.2852 27.5392 33.0828 27.775 32.8471L27.8286 32.7935L25.6927 30.6563L25.6393 30.7099C25.4033 30.9456 25.2006 31.2079 25.0481 31.4752L22.9417 35.1616C22.73 35.5314 22.9515 35.7528 23.3217 35.5416Z" fill="#F8F7F7"/>
<path d="M23.208 33.6522L22.7753 34.9945C22.6335 35.4344 23.0491 35.8502 23.4891 35.7087L24.8316 35.2768L23.208 33.6522Z" fill="black"/>
</svg>
