<svg width="52" height="51" viewBox="0 0 52 51" fill="none" xmlns="http://www.w3.org/2000/svg">
<ellipse cx="26" cy="25.5" rx="26" ry="25.5" fill="#F6B5BB"/>
<path d="M24.2645 36.2488H12.1332C11.213 36.2488 10.4668 35.5028 10.4668 34.5824V12.7387C10.4668 11.8183 11.2128 11.0723 12.1332 11.0723H24.2645C25.1847 11.0723 25.9309 11.8183 25.9309 12.7387V34.5824C25.9309 35.5026 25.1847 36.2488 24.2645 36.2488Z" fill="#EE6A76"/>
<path d="M18.1099 15.7473H13.3793C13.0062 15.7473 12.7036 15.4447 12.7036 15.0716C12.7036 14.6985 13.0062 14.3958 13.3793 14.3958H18.1097C18.4828 14.3958 18.7854 14.6985 18.7854 15.0716C18.7856 15.4449 18.483 15.7473 18.1099 15.7473Z" fill="white"/>
<path d="M23.0205 15.7473C22.6473 15.7473 22.3447 15.4447 22.3447 15.0716C22.3447 14.6985 22.6473 14.3958 23.0205 14.3958C23.3938 14.3958 23.6962 14.6985 23.6962 15.0716C23.6964 15.4449 23.3938 15.7473 23.0205 15.7473Z" fill="white"/>
<path d="M18.1099 22.9837H13.3793C13.0062 22.9837 12.7036 22.6811 12.7036 22.3079C12.7036 21.9348 13.0062 21.6322 13.3793 21.6322H18.1097C18.4828 21.6322 18.7854 21.9348 18.7854 22.3079C18.7856 22.6813 18.483 22.9837 18.1099 22.9837Z" fill="white"/>
<path d="M23.0205 22.9837C22.6473 22.9837 22.3447 22.6811 22.3447 22.3079C22.3447 21.9348 22.6473 21.6322 23.0205 21.6322C23.3938 21.6322 23.6962 21.9348 23.6962 22.3079C23.6964 22.6813 23.3938 22.9837 23.0205 22.9837Z" fill="white"/>
<path d="M25.9309 18.2532H10.4668V19.6047H25.9309V18.2532Z" fill="#EA4554"/>
<path d="M25.9309 25.011H10.4668V26.3625H25.9309V25.011Z" fill="#EA4554"/>
<path d="M18.1099 29.7752H13.3793C13.0062 29.7752 12.7036 29.4726 12.7036 29.0995C12.7036 28.7264 13.0062 28.4238 13.3793 28.4238H18.1097C18.4828 28.4238 18.7854 28.7264 18.7854 29.0995C18.7856 29.4728 18.483 29.7752 18.1099 29.7752Z" fill="white"/>
<path d="M25.9309 31.8027H10.4668V33.1541H25.9309V31.8027Z" fill="#EA4554"/>
<path d="M33.3973 26.4768L31.4492 28.4249L34.3912 31.3669L36.3393 29.4187L33.3973 26.4768Z" fill="white"/>
<path d="M31.9884 27.887L31.4502 28.4252L34.3921 31.3672L34.9303 30.829L31.9884 27.887Z" fill="#D1D3D4"/>
<path d="M38.7536 36.7058L34.4733 32.4256C33.9353 31.8876 33.9353 31.0153 34.4733 30.4771L35.4473 29.5029C35.9852 28.9647 36.8575 28.9647 37.3957 29.5029L41.676 33.7832C42.2139 34.3213 42.2141 35.1935 41.676 35.7316L40.702 36.7056C40.1641 37.244 39.2917 37.244 38.7536 36.7058Z" fill="#EA4554"/>
<path d="M39.6543 35.8044L35.374 31.5241C34.8361 30.9862 34.8361 30.1138 35.374 29.5757L35.4512 29.4985L35.4473 29.5022L34.4733 30.4764C33.9353 31.0144 33.9353 31.8867 34.4733 32.4249L38.7536 36.7052C39.2917 37.2433 40.1641 37.2431 40.702 36.7052L41.5988 35.8083C41.0605 36.3426 40.1911 36.3412 39.6543 35.8044Z" fill="#EE6A76"/>
<path d="M26.7117 12.2115C21.4487 12.2115 17.1821 16.478 17.1821 21.741C17.1821 27.004 21.4487 31.2705 26.7117 31.2705C31.9746 31.2705 36.2412 27.004 36.2412 21.741C36.2412 16.478 31.9746 12.2115 26.7117 12.2115ZM26.7117 28.8162C22.804 28.8162 19.6364 25.6484 19.6364 21.741C19.6364 17.8334 22.8043 14.6658 26.7117 14.6658C30.6191 14.6658 33.7869 17.8336 33.7869 21.741C33.7869 25.6484 30.6193 28.8162 26.7117 28.8162Z" fill="white"/>
<path d="M26.7135 13.5884C22.2109 13.5884 18.561 17.2383 18.561 21.7408C18.561 26.2434 22.2109 29.8933 26.7135 29.8933C31.216 29.8933 34.8659 26.2434 34.8659 21.7408C34.8659 17.2383 31.216 13.5884 26.7135 13.5884ZM26.7135 28.8163C22.8058 28.8163 19.6383 25.6484 19.6383 21.741C19.6383 17.8334 22.8061 14.6658 26.7135 14.6658C30.6209 14.6658 33.7887 17.8336 33.7887 21.741C33.7887 25.6484 30.6211 28.8163 26.7135 28.8163Z" fill="#D1D3D4"/>
<path d="M26.7114 28.8158C30.619 28.8158 33.7867 25.6481 33.7867 21.7406C33.7867 17.8331 30.619 14.6654 26.7114 14.6654C22.8039 14.6654 19.6362 17.8331 19.6362 21.7406C19.6362 25.6481 22.8039 28.8158 26.7114 28.8158Z" fill="white"/>
<path d="M23.3756 22.0651V27.9772C22.9539 27.7531 22.5588 27.4858 22.1951 27.1822C21.7517 26.816 21.3543 26.3943 21.0146 25.9294V22.0651C21.0146 21.9373 21.1158 21.8339 21.2436 21.8339H23.1444C23.2719 21.8339 23.3756 21.9376 23.3756 22.0651Z" fill="#EE6A76"/>
<path d="M22.1951 21.8339V27.1825C21.7517 26.8162 21.3543 26.3946 21.0146 25.9297V22.0653C21.0146 21.9376 21.1158 21.8341 21.2436 21.8341L22.1951 21.8339Z" fill="#F6B5BB"/>
<path d="M32.816 24.2457V25.3202C32.4932 25.8743 32.0931 26.3802 31.6355 26.8211C31.2766 27.1704 30.8815 27.4813 30.4551 27.7463V24.2457C30.4551 24.118 30.5585 24.0168 30.6863 24.0168H32.5871C32.7123 24.0168 32.816 24.118 32.816 24.2457Z" fill="#EE6A76"/>
<path d="M31.6355 24.0168V26.8211C31.2766 27.1704 30.8815 27.4813 30.4551 27.7463V24.2457C30.4551 24.118 30.5585 24.0168 30.6863 24.0168H31.6355Z" fill="#F6B5BB"/>
<path d="M25.7345 19.3671V28.7462C25.3272 28.6931 24.9347 28.6015 24.554 28.4788C24.142 28.3488 23.7469 28.1801 23.3735 27.9778V19.3671C23.3735 19.2393 23.4747 19.1359 23.6024 19.1359H25.5033C25.631 19.1359 25.7345 19.2396 25.7345 19.3671Z" fill="#EE6A76"/>
<path d="M24.554 19.1359V28.4788C24.142 28.3488 23.7469 28.1801 23.3735 27.9778V19.3671C23.3735 19.2393 23.4747 19.1359 23.6024 19.1359H24.554Z" fill="#EA4554"/>
<path d="M28.092 18.1025V28.679C27.7091 28.7584 27.314 28.8019 26.9116 28.8115C26.8466 28.8164 26.779 28.8164 26.7115 28.8164C26.3791 28.8164 26.0513 28.7946 25.7334 28.7465V18.1025C25.7334 17.9773 25.8346 17.8736 25.9623 17.8736H27.8631C27.9909 17.8736 28.092 17.977 28.092 18.1025Z" fill="#EE6A76"/>
<path d="M26.9116 17.8736V28.8115C26.8466 28.8164 26.779 28.8164 26.7115 28.8164C26.3791 28.8164 26.0513 28.7946 25.7334 28.7465V18.1025C25.7334 17.9773 25.8346 17.8736 25.9623 17.8736H26.9116Z" fill="#F6B5BB"/>
<path d="M30.4527 21.4972V27.7468C30.0817 27.978 29.6866 28.178 29.2723 28.3371C28.8939 28.4866 28.4988 28.6022 28.0918 28.6793V21.4975C28.0918 21.3697 28.1955 21.2685 28.323 21.2685H30.2238C30.3515 21.2683 30.4527 21.3695 30.4527 21.4972Z" fill="#EE6A76"/>
<path d="M29.2723 21.2683V28.3371C28.8939 28.4866 28.4988 28.6022 28.0918 28.6793V21.4974C28.0918 21.3697 28.1955 21.2685 28.323 21.2685L29.2723 21.2683Z" fill="#EA4554"/>
</svg>
