<svg width="49" height="51" viewBox="0 0 49 51" fill="none" xmlns="http://www.w3.org/2000/svg">
<ellipse cx="24.5" cy="25.5" rx="24.5" ry="25.5" fill="#CCCCCC"/>
<path d="M35.7708 43.3833H12.0397C11.4029 43.3833 10.8867 42.8671 10.8867 42.2303V8.21934C10.8867 7.58261 11.4029 7.06641 12.0397 7.06641H35.7705C36.4073 7.06641 36.9235 7.58261 36.9235 8.21934V42.2303C36.9235 42.8671 36.4076 43.3833 35.7708 43.3833Z" fill="#E9E8E7"/>
<path d="M33.5555 25.5846H14.7786C14.3227 25.5846 13.9531 25.215 13.9531 24.7591C13.9531 24.3031 14.3227 23.9336 14.7786 23.9336H33.5552C34.0111 23.9336 34.3807 24.3031 34.3807 24.7591C34.381 25.2153 34.0111 25.5846 33.5555 25.5846Z" fill="white"/>
<path d="M33.3328 19.1588H14.556C14.1 19.1588 13.7305 18.7892 13.7305 18.3333C13.7305 17.8774 14.1 17.5078 14.556 17.5078H33.3325C33.7885 17.5078 34.158 17.8774 34.158 18.3333C34.1583 18.7895 33.7885 19.1588 33.3328 19.1588Z" fill="white"/>
<path d="M33.3328 16.028H14.556C14.1 16.028 13.7305 15.6585 13.7305 15.2026C13.7305 14.7466 14.1 14.3771 14.556 14.3771H33.3325C33.7885 14.3771 34.158 14.7466 34.158 15.2026C34.1583 15.6588 33.7885 16.028 33.3328 16.028Z" fill="white"/>
<path d="M33.3328 12.8971H14.556C14.1 12.8971 13.7305 12.5275 13.7305 12.0716C13.7305 11.6156 14.1 11.2461 14.556 11.2461H33.3325C33.7885 11.2461 34.158 11.6156 34.158 12.0716C34.1583 12.5278 33.7885 12.8971 33.3328 12.8971Z" fill="white"/>
<path d="M33.5555 29.7164H14.7786C14.3227 29.7164 13.9531 29.3469 13.9531 28.8909C13.9531 28.435 14.3227 28.0654 14.7786 28.0654H33.5552C34.0111 28.0654 34.3807 28.435 34.3807 28.8909C34.381 29.3469 34.0111 29.7164 33.5555 29.7164Z" fill="white"/>
<path d="M33.5555 33.8482H14.7786C14.3227 33.8482 13.9531 33.4787 13.9531 33.0228C13.9531 32.5668 14.3227 32.1973 14.7786 32.1973H33.5552C34.0111 32.1973 34.3807 32.5668 34.3807 33.0228C34.3807 33.4787 34.0111 33.8482 33.5555 33.8482Z" fill="white"/>
<path d="M33.5555 37.9791H14.7786C14.3227 37.9791 13.9531 37.6096 13.9531 37.1536C13.9531 36.6977 14.3227 36.3281 14.7786 36.3281H33.5552C34.0111 36.3281 34.3807 36.6977 34.3807 37.1536C34.381 37.6096 34.0111 37.9791 33.5555 37.9791Z" fill="white"/>
<path d="M29.0244 20.96C29.0299 20.9721 29.0357 20.9839 29.042 20.9955C29.036 20.9839 29.0299 20.9721 29.0244 20.96ZM29.4915 21.2962C29.5042 21.2976 29.5168 21.2987 29.5298 21.2995C29.5171 21.2987 29.5042 21.2979 29.4915 21.2962Z" fill="#D1D3D4"/>
<path d="M19.6107 23.9686H18.4542C18.2888 23.9686 18.1546 24.1026 18.1546 24.2682V24.5024C18.1546 24.6678 18.2886 24.802 18.4542 24.802H19.0345V25.2126C19.0164 25.2233 18.9938 25.2351 18.9663 25.2478C18.8342 25.3056 18.6683 25.335 18.4724 25.335C18.3257 25.335 18.2016 25.2998 18.0924 25.2274C17.9818 25.154 17.8978 25.0505 17.8362 24.911C17.7688 24.7591 17.7349 24.5775 17.7349 24.3714V23.984C17.7349 23.6607 17.8021 23.4147 17.9347 23.2531C18.0563 23.1051 18.2135 23.0363 18.43 23.0363C18.6122 23.0363 18.7503 23.0757 18.8516 23.1568C18.9484 23.2342 19.009 23.353 19.037 23.5201C19.0612 23.6642 19.1862 23.7699 19.3325 23.7699H19.6094C19.6955 23.7699 19.7775 23.7328 19.8344 23.6681C19.8914 23.6034 19.9175 23.5173 19.9065 23.4317C19.8576 23.0545 19.6991 22.7512 19.4346 22.5303C19.1746 22.3132 18.8361 22.2031 18.4281 22.2031C17.9523 22.2031 17.5654 22.3704 17.2773 22.7006C17 23.0187 16.8594 23.4474 16.8594 23.9743V24.3898C16.861 24.725 16.9273 25.0291 17.0558 25.2932C17.1898 25.5692 17.3836 25.7866 17.6315 25.9393C17.878 26.0915 18.1612 26.1685 18.4727 26.1685C18.7608 26.1685 19.0274 26.1234 19.2651 26.0348C19.5265 25.9371 19.7255 25.7932 19.8565 25.6072C19.8919 25.5568 19.9109 25.4966 19.9109 25.4349V24.2693C19.9104 24.1029 19.7761 23.9686 19.6107 23.9686Z" fill="#A9A6A4"/>
<path d="M22.7363 22.4704C22.4781 22.3221 22.1851 22.2473 21.8648 22.2473H20.9491C20.7837 22.2473 20.6494 22.3813 20.6494 22.5469V25.8233C20.6494 25.9887 20.7834 26.1229 20.9491 26.1229H21.8447C22.1752 26.1229 22.4748 26.0475 22.7349 25.899C22.9996 25.7476 23.2073 25.5302 23.3523 25.2534C23.4929 24.9846 23.5642 24.6759 23.5642 24.336V24.0345C23.5642 23.696 23.4927 23.3873 23.351 23.1168C23.2054 22.8386 22.9985 22.6209 22.7363 22.4704ZM22.6903 24.0284V24.3168C22.6903 24.6327 22.6135 24.8707 22.4556 25.044C22.3051 25.2094 22.1059 25.2897 21.8467 25.2897H21.5253V23.0807H21.8678C22.1182 23.0818 22.3117 23.1616 22.4594 23.3245C22.6149 23.4957 22.6903 23.726 22.6903 24.0284Z" fill="#A9A6A4"/>
<path d="M25.6354 22.2473H24.5194C24.354 22.2473 24.2197 22.3813 24.2197 22.5469V25.8233C24.2197 25.9887 24.3537 26.1229 24.5194 26.1229H24.7962C24.9616 26.1229 25.0958 25.9889 25.0958 25.8233V24.7884H25.6288C26.0622 24.7884 26.4064 24.6789 26.6516 24.4626C26.9078 24.2367 27.0377 23.9214 27.0377 23.5257C27.0377 23.133 26.9039 22.8158 26.6403 22.5832C26.3877 22.3604 26.0496 22.2473 25.6354 22.2473ZM26.0485 23.8413C25.9648 23.917 25.8259 23.9552 25.6352 23.9552H25.0956V23.0805H25.6497C25.8278 23.0824 25.9604 23.1239 26.0432 23.2035C26.0939 23.2522 26.1616 23.3388 26.1616 23.5293C26.1616 23.7172 26.0972 23.7975 26.0485 23.8413Z" fill="#A9A6A4"/>
<path d="M30.4783 25.642L29.8264 24.5318C29.9442 24.4561 30.0471 24.3611 30.1338 24.2483C30.2972 24.0351 30.38 23.7869 30.38 23.5109C30.38 23.1169 30.246 22.8018 29.9813 22.5737C29.7298 22.3569 29.3883 22.2471 28.9665 22.2471H27.9022C27.7368 22.2471 27.6025 22.3811 27.6025 22.5467V25.8231C27.6025 25.9885 27.7365 26.1227 27.9022 26.1227H28.1812C28.3466 26.1227 28.4809 25.9887 28.4809 25.8231V24.7568H28.9605L29.666 25.9733C29.7196 26.0658 29.8184 26.1227 29.9252 26.1227H30.2199C30.3853 26.1227 30.5195 25.9593 30.5195 25.7939C30.5193 25.7403 30.5052 25.688 30.4783 25.642ZM28.4809 23.0803H28.9621C29.152 23.0803 29.2942 23.1202 29.3845 23.1986C29.4349 23.2423 29.502 23.3224 29.502 23.5109C29.502 23.6375 29.4648 23.7316 29.385 23.8061C29.3008 23.8851 29.1847 23.9234 29.0295 23.9234H28.4809V23.0803Z" fill="#A9A6A4"/>
</svg>
