<svg width="52" height="51" viewBox="0 0 52 51" fill="none" xmlns="http://www.w3.org/2000/svg">
<ellipse cx="26" cy="25.5" rx="26" ry="25.5" fill="#CCCCCC"/>
<path d="M24.2645 36.2488H12.1332C11.213 36.2488 10.4668 35.5028 10.4668 34.5824V12.7387C10.4668 11.8183 11.2128 11.0723 12.1332 11.0723H24.2645C25.1847 11.0723 25.9309 11.8183 25.9309 12.7387V34.5824C25.9309 35.5026 25.1847 36.2488 24.2645 36.2488Z" fill="#B4B4B4"/>
<path d="M18.1104 15.747H13.3798C13.0067 15.747 12.7041 15.4443 12.7041 15.0712C12.7041 14.6981 13.0067 14.3955 13.3798 14.3955H18.1101C18.4833 14.3955 18.7859 14.6981 18.7859 15.0712C18.7861 15.4446 18.4835 15.747 18.1104 15.747Z" fill="white"/>
<path d="M23.0205 15.747C22.6473 15.747 22.3447 15.4443 22.3447 15.0712C22.3447 14.6981 22.6473 14.3955 23.0205 14.3955C23.3938 14.3955 23.6962 14.6981 23.6962 15.0712C23.6964 15.4446 23.3938 15.747 23.0205 15.747Z" fill="white"/>
<path d="M18.1104 22.9833H13.3798C13.0067 22.9833 12.7041 22.6807 12.7041 22.3076C12.7041 21.9344 13.0067 21.6318 13.3798 21.6318H18.1101C18.4833 21.6318 18.7859 21.9344 18.7859 22.3076C18.7861 22.6809 18.4835 22.9833 18.1104 22.9833Z" fill="white"/>
<path d="M23.0205 22.9833C22.6473 22.9833 22.3447 22.6807 22.3447 22.3076C22.3447 21.9344 22.6473 21.6318 23.0205 21.6318C23.3938 21.6318 23.6962 21.9344 23.6962 22.3076C23.6964 22.6809 23.3938 22.9833 23.0205 22.9833Z" fill="white"/>
<path d="M25.9309 18.2528H10.4668V19.6042H25.9309V18.2528Z" fill="#9B9596"/>
<path d="M25.9309 25.0106H10.4668V26.362H25.9309V25.0106Z" fill="#9B9596"/>
<path d="M18.1094 29.7743H13.3789C13.0057 29.7743 12.7031 29.4717 12.7031 29.0986C12.7031 28.7255 13.0057 28.4229 13.3789 28.4229H18.1092C18.4823 28.4229 18.7849 28.7255 18.7849 29.0986C18.7851 29.4719 18.4825 29.7743 18.1094 29.7743Z" fill="white"/>
<path d="M25.9309 31.8018H10.4668V33.1532H25.9309V31.8018Z" fill="#9B9596"/>
<path d="M33.3973 26.4777L31.4492 28.4258L34.3912 31.3677L36.3393 29.4196L33.3973 26.4777Z" fill="white"/>
<path d="M31.9884 27.8876L31.4502 28.4258L34.3921 31.3677L34.9303 30.8295L31.9884 27.8876Z" fill="#D1D3D4"/>
<path d="M38.754 36.7063L34.4738 32.426C33.9358 31.8881 33.9358 31.0157 34.4738 30.4776L35.4477 29.5034C35.9857 28.9652 36.858 28.9652 37.3962 29.5034L41.6765 33.7836C42.2144 34.3218 42.2146 35.1939 41.6765 35.7321L40.7025 36.7061C40.1646 37.2445 39.2922 37.2445 38.754 36.7063Z" fill="#9B9596"/>
<path d="M39.6548 35.8049L35.3745 31.5246C34.8366 30.9867 34.8366 30.1143 35.3745 29.5761L35.4516 29.499L35.4477 29.5027L34.4738 30.4769C33.9358 31.0148 33.9358 31.8872 34.4738 32.4253L38.754 36.7056C39.2922 37.2438 40.1646 37.2435 40.7025 36.7056L41.5993 35.8088C41.0609 36.343 40.1916 36.3417 39.6548 35.8049Z" fill="#B4B4B4"/>
<path d="M26.7122 12.2119C21.4492 12.2119 17.1826 16.4785 17.1826 21.7415C17.1826 27.0044 21.4492 31.271 26.7122 31.271C31.9751 31.271 36.2417 27.0044 36.2417 21.7415C36.2417 16.4785 31.9751 12.2119 26.7122 12.2119ZM26.7122 28.8167C22.8045 28.8167 19.6369 25.6489 19.6369 21.7415C19.6369 17.8338 22.8047 14.6662 26.7122 14.6662C30.6196 14.6662 33.7874 17.834 33.7874 21.7415C33.7874 25.6489 30.6198 28.8167 26.7122 28.8167Z" fill="white"/>
<path d="M26.714 13.5888C22.2114 13.5888 18.5615 17.2387 18.5615 21.7413C18.5615 26.2438 22.2114 29.8937 26.714 29.8937C31.2165 29.8937 34.8664 26.2438 34.8664 21.7413C34.8664 17.2387 31.2165 13.5888 26.714 13.5888ZM26.714 28.8167C22.8063 28.8167 19.6387 25.6489 19.6387 21.7415C19.6387 17.8339 22.8066 14.6663 26.714 14.6663C30.6214 14.6663 33.7892 17.8341 33.7892 21.7415C33.7892 25.6489 30.6216 28.8167 26.714 28.8167Z" fill="#D1D3D4"/>
<path d="M26.7119 28.8163C30.6195 28.8163 33.7872 25.6486 33.7872 21.7411C33.7872 17.8335 30.6195 14.6658 26.7119 14.6658C22.8044 14.6658 19.6367 17.8335 19.6367 21.7411C19.6367 25.6486 22.8044 28.8163 26.7119 28.8163Z" fill="white"/>
<path d="M23.3756 22.0652V27.9773C22.9539 27.7532 22.5588 27.4859 22.1951 27.1823C21.7517 26.8161 21.3543 26.3945 21.0146 25.9295V22.0652C21.0146 21.9374 21.1158 21.834 21.2436 21.834H23.1444C23.2719 21.834 23.3756 21.9377 23.3756 22.0652Z" fill="#B4B4B4"/>
<path d="M22.1951 21.834V27.1826C21.7517 26.8163 21.3543 26.3947 21.0146 25.9298V22.0654C21.0146 21.9377 21.1158 21.8342 21.2436 21.8342L22.1951 21.834Z" fill="#F4F3F3"/>
<path d="M32.816 24.2465V25.321C32.4932 25.8751 32.0931 26.381 31.6355 26.8219C31.2766 27.1712 30.8815 27.4821 30.4551 27.7471V24.2465C30.4551 24.1188 30.5585 24.0176 30.6863 24.0176H32.5871C32.7123 24.0176 32.816 24.1188 32.816 24.2465Z" fill="#B4B4B4"/>
<path d="M31.6355 24.0176V26.8219C31.2766 27.1712 30.8815 27.4821 30.4551 27.7471V24.2465C30.4551 24.1188 30.5585 24.0176 30.6863 24.0176H31.6355Z" fill="#F4F3F3"/>
<path d="M25.734 19.3669V28.7461C25.3268 28.693 24.9342 28.6014 24.5535 28.4787C24.1415 28.3487 23.7464 28.18 23.373 27.9776V19.3669C23.373 19.2392 23.4742 19.1357 23.602 19.1357H25.5028C25.6305 19.1357 25.734 19.2394 25.734 19.3669Z" fill="#B4B4B4"/>
<path d="M24.5535 19.1357V28.4787C24.1415 28.3487 23.7464 28.18 23.373 27.9776V19.3669C23.373 19.2392 23.4742 19.1357 23.602 19.1357H24.5535Z" fill="#9B9596"/>
<path d="M28.092 18.1028V28.6794C27.7091 28.7588 27.314 28.8023 26.9116 28.8119C26.8466 28.8167 26.779 28.8167 26.7115 28.8167C26.3791 28.8167 26.0513 28.795 25.7334 28.7469V18.1028C25.7334 17.9776 25.8346 17.8739 25.9623 17.8739H27.8631C27.9909 17.8739 28.092 17.9774 28.092 18.1028Z" fill="#B4B4B4"/>
<path d="M26.9116 17.8739V28.8119C26.8466 28.8167 26.779 28.8167 26.7115 28.8167C26.3791 28.8167 26.0513 28.795 25.7334 28.7469V18.1028C25.7334 17.9776 25.8346 17.8739 25.9623 17.8739H26.9116Z" fill="#F4F3F3"/>
<path d="M30.4527 21.4973V27.7469C30.0817 27.9781 29.6866 28.1781 29.2723 28.3372C28.8939 28.4867 28.4988 28.6023 28.0918 28.6794V21.4976C28.0918 21.3698 28.1955 21.2687 28.323 21.2687H30.2238C30.3515 21.2684 30.4527 21.3696 30.4527 21.4973Z" fill="#B4B4B4"/>
<path d="M29.2723 21.2687V28.3375C28.8939 28.4869 28.4988 28.6025 28.0918 28.6797V21.4978C28.0918 21.3701 28.1955 21.2689 28.323 21.2689L29.2723 21.2687Z" fill="#9B9596"/>
</svg>
