<svg width="49" height="51" viewBox="0 0 49 51" fill="none" xmlns="http://www.w3.org/2000/svg">
<ellipse cx="24.5" cy="25.5" rx="24.5" ry="25.5" fill="#FCD2AD"/>
<path d="M35.7708 43.3833H12.0397C11.4029 43.3833 10.8867 42.8671 10.8867 42.2303V8.21934C10.8867 7.58261 11.4029 7.06641 12.0397 7.06641H35.7705C36.4073 7.06641 36.9235 7.58261 36.9235 8.21934V42.2303C36.9235 42.8671 36.4076 43.3833 35.7708 43.3833Z" fill="#FDE8D6"/>
<path d="M33.555 25.5848H14.7781C14.3222 25.5848 13.9526 25.2152 13.9526 24.7593C13.9526 24.3033 14.3222 23.9338 14.7781 23.9338H33.5547C34.0107 23.9338 34.3802 24.3033 34.3802 24.7593C34.3805 25.2155 34.0107 25.5848 33.555 25.5848Z" fill="white"/>
<path d="M33.3333 19.1585H14.5564C14.1005 19.1585 13.731 18.789 13.731 18.333C13.731 17.8771 14.1005 17.5075 14.5564 17.5075H33.333C33.789 17.5075 34.1585 17.8771 34.1585 18.333C34.1588 18.7892 33.789 19.1585 33.3333 19.1585Z" fill="white"/>
<path d="M33.3336 16.0278H14.5567C14.1007 16.0278 13.7312 15.6582 13.7312 15.2023C13.7312 14.7463 14.1007 14.3768 14.5567 14.3768H33.3333C33.7892 14.3768 34.1588 14.7463 34.1588 15.2023C34.159 15.6585 33.7892 16.0278 33.3336 16.0278Z" fill="white"/>
<path d="M33.3333 12.8968H14.5564C14.1005 12.8968 13.731 12.5273 13.731 12.0713C13.731 11.6154 14.1005 11.2458 14.5564 11.2458H33.333C33.789 11.2458 34.1585 11.6154 34.1585 12.0713C34.1588 12.5275 33.789 12.8968 33.3333 12.8968Z" fill="white"/>
<path d="M33.555 29.7165H14.7781C14.3222 29.7165 13.9526 29.347 13.9526 28.891C13.9526 28.4351 14.3222 28.0655 14.7781 28.0655H33.5547C34.0107 28.0655 34.3802 28.4351 34.3802 28.891C34.3805 29.347 34.0107 29.7165 33.555 29.7165Z" fill="white"/>
<path d="M33.555 33.8482H14.7781C14.3222 33.8482 13.9526 33.4787 13.9526 33.0227C13.9526 32.5668 14.3222 32.1972 14.7781 32.1972H33.5547C34.0107 32.1972 34.3802 32.5668 34.3802 33.0227C34.3802 33.4787 34.0107 33.8482 33.555 33.8482Z" fill="white"/>
<path d="M33.555 37.9795H14.7781C14.3222 37.9795 13.9526 37.6099 13.9526 37.154C13.9526 36.698 14.3222 36.3285 14.7781 36.3285H33.5547C34.0107 36.3285 34.3802 36.698 34.3802 37.154C34.3805 37.6099 34.0107 37.9795 33.555 37.9795Z" fill="white"/>
<path d="M29.0249 20.9595C29.0304 20.9716 29.0362 20.9835 29.0425 20.995C29.0365 20.9835 29.0304 20.9716 29.0249 20.9595ZM29.492 21.2958C29.5047 21.2972 29.5173 21.2983 29.5303 21.2991C29.5176 21.2983 29.5047 21.2974 29.492 21.2958Z" fill="#D1D3D4"/>
<path d="M19.611 23.9689H18.4545C18.2891 23.9689 18.1548 24.1029 18.1548 24.2685V24.5027C18.1548 24.668 18.2888 24.8023 18.4545 24.8023H19.0348V25.2129C19.0166 25.2236 18.9941 25.2354 18.9665 25.2481C18.8345 25.3059 18.6685 25.3353 18.4726 25.3353C18.326 25.3353 18.2019 25.3001 18.0926 25.2277C17.982 25.1543 17.8981 25.0508 17.8364 24.9113C17.769 24.7594 17.7352 24.5778 17.7352 24.3717V23.9843C17.7352 23.6609 17.8023 23.4149 17.935 23.2534C18.0566 23.1054 18.2137 23.0366 18.4303 23.0366C18.6124 23.0366 18.7505 23.0759 18.8518 23.1571C18.9487 23.2344 19.0092 23.3533 19.0373 23.5203C19.0615 23.6645 19.1864 23.7702 19.3328 23.7702H19.6096C19.6957 23.7702 19.7777 23.733 19.8347 23.6684C19.8916 23.6037 19.9178 23.5176 19.9068 23.432C19.8578 23.0548 19.6993 22.7515 19.4349 22.5306C19.1748 22.3135 18.8364 22.2034 18.4283 22.2034C17.9526 22.2034 17.5657 22.3707 17.2776 22.7009C17.0002 23.019 16.8596 23.4477 16.8596 23.9746V24.3901C16.8613 24.7253 16.9276 25.0293 17.0561 25.2935C17.1901 25.5695 17.3838 25.7869 17.6317 25.9396C17.8783 26.0917 18.1614 26.1688 18.4729 26.1688C18.761 26.1688 19.0276 26.1237 19.2654 26.0351C19.5268 25.9374 19.7257 25.7935 19.8567 25.6075C19.8922 25.5571 19.9112 25.4968 19.9112 25.4352V24.2696C19.9106 24.1031 19.7763 23.9689 19.611 23.9689Z" fill="#F78E32"/>
<path d="M22.7365 22.4707C22.4784 22.3224 22.1853 22.2475 21.8651 22.2475H20.9493C20.7839 22.2475 20.6497 22.3816 20.6497 22.5472V25.8236C20.6497 25.9889 20.7837 26.1232 20.9493 26.1232H21.845C22.1754 26.1232 22.4751 26.0478 22.7351 25.8992C22.9998 25.7479 23.2076 25.5305 23.3526 25.2537C23.4932 24.9849 23.5645 24.6761 23.5645 24.3363V24.0347C23.5645 23.6963 23.4929 23.3875 23.3512 23.1171C23.2057 22.8389 22.9987 22.6212 22.7365 22.4707ZM22.6905 24.0287V24.317C22.6905 24.6329 22.6138 24.871 22.4558 25.0443C22.3053 25.2097 22.1061 25.29 21.8469 25.29H21.5255V23.081H21.8681C22.1185 23.0821 22.3119 23.1619 22.4597 23.3248C22.6151 23.496 22.6905 23.7263 22.6905 24.0287Z" fill="#F78E32"/>
<path d="M25.6359 22.2475H24.5199C24.3545 22.2475 24.2202 22.3816 24.2202 22.5472V25.8236C24.2202 25.9889 24.3542 26.1232 24.5199 26.1232H24.7967C24.9621 26.1232 25.0963 25.9892 25.0963 25.8236V24.7887H25.6293C26.0627 24.7887 26.4069 24.6792 26.6521 24.4629C26.9083 24.237 27.0382 23.9216 27.0382 23.526C27.0382 23.1333 26.9044 22.816 26.6408 22.5835C26.3882 22.3606 26.05 22.2475 25.6359 22.2475ZM26.0489 23.8416C25.9653 23.9172 25.8263 23.9555 25.6357 23.9555H25.0961V23.0807H25.6502C25.8283 23.0827 25.9609 23.1242 26.0437 23.2037C26.0944 23.2524 26.162 23.3391 26.162 23.5295C26.162 23.7175 26.0977 23.7978 26.0489 23.8416Z" fill="#F78E32"/>
<path d="M30.479 25.6425L29.8271 24.5322C29.9449 24.4566 30.0478 24.3616 30.1345 24.2488C30.2979 24.0356 30.3808 23.7874 30.3808 23.5114C30.3808 23.1173 30.2468 22.8023 29.9821 22.5742C29.7306 22.3573 29.3891 22.2475 28.9673 22.2475H27.9029C27.7375 22.2475 27.6033 22.3816 27.6033 22.5472V25.8236C27.6033 25.9889 27.7373 26.1232 27.9029 26.1232H28.1819C28.3473 26.1232 28.4816 25.9892 28.4816 25.8236V24.7573H28.9612L29.6667 25.9738C29.7204 26.0663 29.8192 26.1232 29.9259 26.1232H30.2206C30.386 26.1232 30.5203 25.9598 30.5203 25.7944C30.52 25.7407 30.506 25.6885 30.479 25.6425ZM28.4816 23.0807H28.9629C29.1527 23.0807 29.295 23.1206 29.3852 23.1991C29.4356 23.2428 29.5027 23.3229 29.5027 23.5114C29.5027 23.6379 29.4656 23.7321 29.3858 23.8066C29.3016 23.8856 29.1855 23.9238 29.0303 23.9238H28.4816V23.0807Z" fill="#F78E32"/>
</svg>
