<svg width="51" height="51" viewBox="0 0 51 51" fill="none" xmlns="http://www.w3.org/2000/svg">
<circle cx="25.5" cy="25.5" r="25.5" fill="#9AA4FF"/>
<path d="M27.2691 25.7187C27.648 25.8336 28.027 25.9486 28.4059 26.0636C29.5442 26.409 30.7782 26.0349 31.533 25.1156C31.9033 24.6646 31.6893 23.9819 31.1282 23.8228C28.3511 23.0355 26.7333 20.3515 24.0349 19.4584C23.3007 19.2153 22.4748 19.1612 21.7669 19.4726C21.6022 19.5452 21.4461 19.6404 21.304 19.7536L18.5317 16.9813L11.9453 23.5677L14.7257 26.3484C14.028 27.7204 14.2922 29.3856 15.3808 30.4742L24.242 39.3354L32.5639 31.0135L27.2691 25.7187Z" fill="#E6E7E8"/>
<path d="M37.2746 22.7792L34.4941 25.5596L35.2829 26.3484L38.0633 23.5679L37.2746 22.7792Z" fill="#E6E7E8"/>
<path d="M35.2834 26.3481L38.0638 23.5677L31.4774 16.9813L25.0029 23.4558L33.3248 31.7777L34.6286 30.4739C35.7169 29.3854 35.9814 27.7202 35.2834 26.3481Z" fill="white"/>
<path d="M32.5596 31.0136C32.8479 31.3019 33.0882 31.5422 33.3238 31.7778L34.6273 30.4742C35.7158 29.3857 35.9801 27.7205 35.2824 26.3484L34.4935 25.5596C35.1912 26.9317 34.9514 28.6215 33.8628 29.7098L32.5596 31.0136Z" fill="#E6E7E8"/>
<path d="M37.7307 25.3228L40.7083 22.3452C41.0567 21.9967 41.0567 21.4315 40.7083 21.083L33.964 14.3387C33.6155 13.9903 33.0503 13.9903 32.7018 14.3387L29.7242 17.3164C29.3758 17.6648 29.3758 18.23 29.7242 18.5785L36.4685 25.3228C36.817 25.6713 37.3822 25.6713 37.7307 25.3228Z" fill="#6776FF"/>
<path d="M36.1508 23.7454L39.1284 20.7678C39.4769 20.4193 39.4769 19.8543 39.1284 19.5056L40.7061 21.0832C41.0545 21.4317 41.0545 21.9969 40.7061 22.3454L37.7285 25.323C37.38 25.6715 36.815 25.6715 36.4663 25.323L34.8887 23.7454C35.2374 24.0938 35.8024 24.0938 36.1508 23.7454Z" fill="#CCD1FF"/>
<path d="M36.3515 21.8976C36.865 21.8976 37.2812 21.4813 37.2812 20.9679C37.2812 20.4545 36.865 20.0382 36.3515 20.0382C35.8381 20.0382 35.4219 20.4545 35.4219 20.9679C35.4219 21.4813 35.8381 21.8976 36.3515 21.8976Z" fill="#CCD1FF"/>
<path d="M12.7321 22.7787L11.9434 23.5674L14.7238 26.3479L15.5125 25.5591L12.7321 22.7787Z" fill="#BCBEC0"/>
<path d="M12.279 25.3225L9.30139 22.3449C8.95292 21.9965 8.95292 21.4312 9.30139 21.0828L16.0457 14.3385C16.3941 13.99 16.9594 13.99 17.3078 14.3385L20.2854 17.3161C20.6339 17.6646 20.6339 18.2298 20.2854 18.5783L13.5412 25.3225C13.1927 25.671 12.6275 25.671 12.279 25.3225Z" fill="#3449FF"/>
<path d="M13.8566 23.7451L10.879 20.7675C10.5306 20.419 10.5306 19.8541 10.879 19.5054L9.30139 21.083C8.95292 21.4315 8.95292 21.9964 9.30139 22.3451L12.279 25.3227C12.6275 25.6712 13.1924 25.6712 13.5412 25.3227L15.1188 23.7451C14.7701 24.0936 14.2051 24.0936 13.8566 23.7451Z" fill="#6776FF"/>
<path d="M14.3144 21.6251C13.9515 21.9881 13.3627 21.9881 12.9997 21.6251C12.6368 21.2622 12.6368 20.6734 12.9997 20.3104C13.3627 19.9475 13.9515 19.9475 14.3144 20.3104C14.6774 20.6736 14.6774 21.2622 14.3144 21.6251Z" fill="#6776FF"/>
<path d="M32.4352 35.0462L30.4824 33.0935L32.5628 31.0131L34.5156 32.9658C35.0902 33.5404 35.0902 34.4719 34.5156 35.0462C33.9412 35.6209 33.0098 35.6209 32.4352 35.0462Z" fill="#E6E7E8"/>
<path d="M34.5153 35.0456C34.6531 34.9075 34.758 34.7492 34.8298 34.5799C34.2943 34.8068 33.6516 34.7022 33.2151 34.2654L32.0425 33.0928C31.6129 32.6632 30.9172 32.6621 30.486 33.0893L30.4824 33.0928L32.4352 35.0456C33.0095 35.6202 33.941 35.6202 34.5153 35.0456Z" fill="#BCBEC0"/>
<path d="M30.1167 36.8925L28.3984 35.1742L30.4789 33.0938L32.1971 34.8121C32.7717 35.3867 32.7717 36.3181 32.1971 36.8925C31.6227 37.4668 30.6913 37.4668 30.1167 36.8925Z" fill="#E6E7E8"/>
<path d="M30.8969 36.112L29.9586 35.1736C29.5284 34.7435 28.8312 34.7429 28.4002 35.1719L28.3984 35.1736L30.1167 36.8919C30.6913 37.4665 31.6227 37.4665 32.1971 36.8919C32.3349 36.7538 32.4397 36.5954 32.5116 36.4262C31.976 36.6533 31.3334 36.5485 30.8969 36.112Z" fill="#BCBEC0"/>
<path d="M27.4856 38.4203L26.3193 37.2541L28.3997 35.1737L29.566 36.3399C30.1406 36.9145 30.1406 37.846 29.566 38.4203C28.9914 38.9949 28.0599 38.9949 27.4856 38.4203Z" fill="#E6E7E8"/>
<path d="M27.4856 38.4203L26.3193 37.2541L28.3997 35.1737L29.566 36.3399C30.1406 36.9145 30.1406 37.846 29.566 38.4203C28.9914 38.9949 28.0599 38.9949 27.4856 38.4203Z" fill="#E6E7E8"/>
<path d="M29.8804 37.954C29.72 38.0406 29.5051 38.0682 29.3254 38.0708C28.9307 38.0761 28.5447 37.9192 28.2655 37.6401L27.8795 37.254C27.4488 36.8233 26.7508 36.8233 26.3198 37.2535L26.3193 37.254L27.4856 38.4202C28.0602 38.9948 28.9916 38.9948 29.566 38.4202C29.704 38.2819 29.8089 38.1233 29.8804 37.954Z" fill="#BCBEC0"/>
<path d="M24.6946 39.7917L24.2383 39.3354L26.3187 37.255L26.775 37.7113C27.3496 38.2859 27.3496 39.2174 26.775 39.7917C26.2007 40.3663 25.2692 40.3663 24.6946 39.7917Z" fill="#E6E7E8"/>
<path d="M27.0896 39.3261C26.5541 39.553 25.9114 39.4482 25.4749 39.0117L20.5638 34.1006L20.5724 34.092L16.1662 29.6855C15.0776 28.5969 14.8134 26.9317 15.5111 25.5597L14.7223 26.3485C14.0246 27.7205 14.2888 29.3857 15.3774 30.4743L19.7839 34.8808L24.695 39.7919C25.2696 40.3665 26.201 40.3665 26.7754 39.7919C26.9132 39.6538 27.018 39.4952 27.0896 39.3261Z" fill="#BCBEC0"/>
<path d="M18.4793 25.1155C18.109 24.6645 18.323 23.9818 18.8841 23.8227C21.6612 23.0354 23.279 20.3514 25.9774 19.4583C26.7116 19.2152 27.5375 19.1611 28.2454 19.4725C28.9532 19.7839 29.5024 20.5149 29.4507 21.2864C29.4085 21.9126 29.0063 22.4481 28.6202 22.9427C28.1076 23.5996 27.5834 24.2673 26.8954 24.7376C25.8769 25.4338 24.9119 25.0602 23.8493 25.3828C23.1016 25.6097 22.3539 25.8366 21.6062 26.0635C20.4684 26.4089 19.2341 26.0348 18.4793 25.1155Z" fill="white"/>
<path d="M32.6404 31.09C32.3782 30.458 31.9688 29.59 31.3861 28.6712C30.9595 27.6103 30.8031 26.5637 31.4095 25.3145C31.4978 25.1322 31.328 24.937 31.1346 24.9975C30.3075 25.2558 29.4169 25.2261 28.5768 25.048C27.7466 24.8718 27.005 24.4543 26.1822 24.2624C25.5553 24.116 24.8974 24.1447 24.2644 24.2617C23.4419 24.4135 22.6381 24.6937 21.8343 24.9132C21.4051 25.0304 21.0176 25.1543 20.5678 25.1259C19.7663 25.0754 19.0059 24.6896 18.4922 24.0723C18.2483 24.3558 18.2153 24.7949 18.4793 25.1162C19.2341 26.0355 20.4683 26.4096 21.6064 26.0642C22.3541 25.8373 23.1018 25.6104 23.8495 25.3835C24.4182 25.2109 25.005 25.2472 25.5862 25.217C26.0951 25.1906 26.6108 25.2952 27.0687 25.5188L32.6404 31.09Z" fill="#D1D3D4"/>
<path d="M17.5778 35.0461L18.4902 34.1336C19.0648 33.559 19.0648 32.6276 18.4902 32.0532C17.9156 31.4786 16.9841 31.4786 16.4098 32.0532L15.4974 32.9656C14.9228 33.5402 14.9228 34.4717 15.4974 35.0461C16.0717 35.6207 17.0032 35.6207 17.5778 35.0461Z" fill="white"/>
<path d="M16.7888 34.257L17.7012 33.3446C18.1359 32.9099 18.241 32.2708 18.0177 31.7365C18.1892 31.8084 18.3504 31.9134 18.49 32.053C19.0646 32.6276 19.0646 33.5591 18.49 34.1334L17.5776 35.0459C17.003 35.6205 16.0715 35.6205 15.4972 35.0459C15.3576 34.9063 15.2525 34.7451 15.1807 34.5735C15.7149 34.7969 16.354 34.6918 16.7888 34.257Z" fill="#D1D3D4"/>
<path d="M19.8922 36.8923L21.7074 35.0771C22.282 34.5025 22.282 33.571 21.7074 32.9967C21.1328 32.4221 20.2014 32.4221 19.627 32.9967L17.8118 34.8119C17.2372 35.3865 17.2372 36.3179 17.8118 36.8923C18.3862 37.4666 19.3176 37.4666 19.8922 36.8923Z" fill="white"/>
<path d="M19.1042 36.1032L20.9194 34.2881C21.3541 33.8533 21.4592 33.2142 21.2359 32.68C21.4074 32.7518 21.5686 32.8569 21.7082 32.9965C22.2828 33.5711 22.2828 34.5025 21.7082 35.0769L19.893 36.8921C19.3184 37.4667 18.3869 37.4667 17.8126 36.8921C17.673 36.7525 17.5679 36.5913 17.4961 36.4197C18.0303 36.6431 18.6692 36.538 19.1042 36.1032Z" fill="#D1D3D4"/>
<path d="M22.5241 38.4207L25.1852 35.7595C25.7598 35.1849 25.7598 34.2535 25.1852 33.6791C24.6106 33.1045 23.6791 33.1045 23.1048 33.6791L20.4437 36.3402C19.869 36.9148 19.869 37.8463 20.4437 38.4207C21.0183 38.9953 21.9497 38.9953 22.5241 38.4207Z" fill="white"/>
<path d="M21.735 37.6314L24.3962 34.9703C24.8309 34.5356 24.936 33.8965 24.7126 33.3622C24.8842 33.4341 25.0454 33.5391 25.185 33.6787C25.7596 34.2533 25.7596 35.1848 25.185 35.7591L22.5239 38.4203C21.9493 38.9949 21.0178 38.9949 20.4434 38.4203C20.3039 38.2807 20.1988 38.1195 20.127 37.9479C20.6612 38.1715 21.3003 38.0665 21.735 37.6314Z" fill="#D1D3D4"/>
<path d="M25.3161 39.7916L26.7523 38.3553C27.3269 37.7807 27.3269 36.8492 26.7523 36.2749C26.1777 35.7003 25.2463 35.7003 24.6719 36.2749L23.2356 37.7111C22.661 38.2857 22.661 39.2172 23.2356 39.7916C23.81 40.3659 24.7415 40.3659 25.3161 39.7916Z" fill="white"/>
<path d="M24.527 39.0025L25.9633 37.5663C26.3981 37.1315 26.5031 36.4924 26.2798 35.9582C26.4514 36.03 26.6125 36.1351 26.7521 36.2747C27.3267 36.8493 27.3267 37.7807 26.7521 38.3551L25.3159 39.7914C24.7412 40.366 23.8098 40.366 23.2354 39.7914C23.0958 39.6518 22.9908 39.4906 22.9189 39.319C23.4532 39.5426 24.0923 39.4376 24.527 39.0025Z" fill="#D1D3D4"/>
</svg>
