<svg width="51" height="51" viewBox="0 0 51 51" fill="none" xmlns="http://www.w3.org/2000/svg">
<circle cx="25.5" cy="25.5" r="25.5" fill="#DCE7F2"/>
<path d="M33.9091 39.382H12.4363C11.2503 39.382 10.2891 38.4205 10.2891 37.2348V11.2165C10.2891 10.0306 11.2505 9.06934 12.4363 9.06934H33.9091C35.0951 9.06934 36.0563 10.0308 36.0563 11.2165V37.2345C36.0566 38.4205 35.0951 39.382 33.9091 39.382Z" fill="#97B8D7"/>
<path d="M31.595 24.0899H14.7552C14.1083 24.0899 13.5837 23.5653 13.5837 22.9184C13.5837 22.2716 14.1081 21.747 14.7552 21.747H31.595C32.2418 21.747 32.7664 22.2713 32.7664 22.9184C32.7664 23.5655 32.2418 24.0899 31.595 24.0899Z" fill="#809CB7"/>
<path d="M31.5952 29.5039H14.7554C14.1086 29.5039 13.584 28.9796 13.584 28.3325C13.584 27.6857 14.1083 27.1611 14.7554 27.1611H31.5952C32.242 27.1611 32.7666 27.6857 32.7666 28.3325C32.7666 28.9794 32.242 29.5039 31.5952 29.5039Z" fill="#809CB7"/>
<path d="M31.5952 34.9179H14.7554C14.1086 34.9179 13.584 34.3936 13.584 33.7465C13.584 33.0997 14.1083 32.5751 14.7554 32.5751H31.5952C32.242 32.5751 32.7666 33.0994 32.7666 33.7465C32.7666 34.3934 32.242 34.9179 31.5952 34.9179Z" fill="#809CB7"/>
<path d="M31.9054 12.2548H14.4408C13.9666 12.2548 13.5818 12.6393 13.5818 13.1138V17.3368C13.5818 17.8112 13.9663 18.1958 14.4408 18.1958H31.9054C32.3796 18.1958 32.7644 17.8112 32.7644 17.3368V13.1138C32.7644 12.6393 32.3799 12.2548 31.9054 12.2548Z" fill="#809CB7"/>
<path d="M27.8694 34.2993L23.4878 35.7087C23.0479 35.8503 22.6323 35.4344 22.7741 34.9945L24.1865 30.6137C24.289 30.2963 24.4654 30.0077 24.7013 29.772L38.1118 16.3565C38.9984 15.4707 40.4354 15.4712 41.3212 16.3575L42.1234 17.1602C43.0092 18.0467 43.0087 19.4837 42.1224 20.3695L28.7116 33.7853C28.4756 34.021 28.1868 34.1971 27.8694 34.2993Z" fill="#9AA4FF"/>
<path d="M27.008 33.4385L23.3204 35.5424C22.9502 35.7536 22.7289 35.5321 22.9404 35.1621L25.0467 31.4757C25.1993 31.2087 25.402 30.9464 25.638 30.7104L39.0484 17.2949C39.935 16.4091 41.0363 16.0734 41.508 16.5456L41.9351 16.973C42.4069 17.4452 42.0707 18.546 41.1843 19.4321L27.7739 32.8476C27.5376 33.0836 27.2753 33.286 27.008 33.4385Z" fill="#EEF3F8"/>
<path d="M40.0113 22.4787L36.0007 18.4659L34.5605 19.9053L38.5711 23.9181L40.0113 22.4787Z" fill="black"/>
<path d="M24.755 29.7191L24.7013 29.7727C24.4654 30.0084 24.289 30.297 24.1865 30.6144L22.7741 34.9952C22.6323 35.4352 23.0479 35.851 23.4878 35.7095L27.8694 34.3001C28.1868 34.1979 28.4756 34.0217 28.7116 33.786L28.7652 33.7324L24.755 29.7191Z" fill="#E6E7E8"/>
<path d="M23.3205 35.5421L27.0081 33.4382C27.2755 33.2857 27.538 33.0833 27.7737 32.8475L27.8273 32.7939L25.6914 30.6567L25.6381 30.7104C25.4021 30.9461 25.1994 31.2084 25.0468 31.4757L22.9405 35.1621C22.7288 35.5318 22.9503 35.7533 23.3205 35.5421Z" fill="white"/>
<path d="M23.2068 33.6522L22.7741 34.9945C22.6323 35.4344 23.0479 35.8502 23.4878 35.7087L24.8304 35.2768L23.2068 33.6522Z" fill="black"/>
</svg>
