<svg width="337" height="330" viewBox="0 0 337 330" fill="none" xmlns="http://www.w3.org/2000/svg">
<path d="M289.62 21.911H1.12323C0.82316 21.9047 0.537531 21.7809 0.327561 21.5664C0.117592 21.3518 0 21.0634 0 20.7631C0 20.4628 0.117592 20.1745 0.327561 19.9599C0.537531 19.7453 0.82316 19.6216 1.12323 19.6152H289.62C289.92 19.6216 290.206 19.7453 290.416 19.9599C290.625 20.1745 290.743 20.4628 290.743 20.7631C290.743 21.0634 290.625 21.3518 290.416 21.5664C290.206 21.7809 289.92 21.9047 289.62 21.911Z" fill="#3F3D56"/>
<path d="M20.7616 13.7542C24.4749 13.7542 27.4852 10.6752 27.4852 6.87712C27.4852 3.07899 24.4749 0 20.7616 0C17.0483 0 14.0381 3.07899 14.0381 6.87712C14.0381 10.6752 17.0483 13.7542 20.7616 13.7542Z" fill="#3F3D56"/>
<path d="M43.9882 13.7542C47.7015 13.7542 50.7117 10.6752 50.7117 6.87712C50.7117 3.07899 47.7015 0 43.9882 0C40.2749 0 37.2646 3.07899 37.2646 6.87712C37.2646 10.6752 40.2749 13.7542 43.9882 13.7542Z" fill="#3F3D56"/>
<path d="M67.2152 13.7542C70.9286 13.7542 73.9388 10.6752 73.9388 6.87712C73.9388 3.07899 70.9286 0 67.2152 0C63.5019 0 60.4917 3.07899 60.4917 6.87712C60.4917 10.6752 63.5019 13.7542 67.2152 13.7542Z" fill="#3F3D56"/>
<path d="M275.635 1.70508H259.136C258.809 1.71159 258.498 1.84615 258.269 2.07985C258.04 2.31355 257.912 2.62777 257.912 2.95503C257.912 3.2823 258.04 3.59651 258.269 3.83022C258.498 4.06392 258.809 4.19847 259.136 4.20499H275.635C275.962 4.19847 276.274 4.06392 276.503 3.83022C276.732 3.59651 276.86 3.2823 276.86 2.95503C276.86 2.62777 276.732 2.31355 276.503 2.07985C276.274 1.84615 275.962 1.71159 275.635 1.70508Z" fill="#3F3D56"/>
<path d="M275.636 6.39648H259.136C258.809 6.40296 258.498 6.5375 258.269 6.77121C258.04 7.00491 257.912 7.31915 257.912 7.64644C257.912 7.97373 258.04 8.28797 258.269 8.52168C258.498 8.75539 258.809 8.88992 259.136 8.89639H275.636C275.963 8.88992 276.274 8.75539 276.503 8.52168C276.732 8.28797 276.86 7.97373 276.86 7.64644C276.86 7.31915 276.732 7.00491 276.503 6.77121C276.274 6.5375 275.963 6.40296 275.636 6.39648Z" fill="#3F3D56"/>
<path d="M275.636 11.082H259.136C258.809 11.0885 258.498 11.223 258.269 11.4567C258.04 11.6905 257.912 12.0047 257.912 12.332C257.912 12.6593 258.04 12.9735 258.269 13.2072C258.498 13.4409 258.809 13.5755 259.136 13.5819H275.636C275.963 13.5755 276.274 13.4409 276.503 13.2072C276.732 12.9735 276.86 12.6593 276.86 12.332C276.86 12.0047 276.732 11.6905 276.503 11.4567C276.274 11.223 275.963 11.0885 275.636 11.082Z" fill="#3F3D56"/>
<path d="M22.3504 68.5488C26.9412 68.5488 30.6628 64.8252 30.6628 60.2319C30.6628 55.6386 26.9412 51.915 22.3504 51.915C17.7596 51.915 14.0381 55.6386 14.0381 60.2319C14.0381 64.8252 17.7596 68.5488 22.3504 68.5488Z" fill="#CCCCCC"/>
<path d="M234.025 78.6485H16.5133C15.8568 78.6485 15.2273 78.3876 14.7631 77.9231C14.2989 77.4587 14.0381 76.8287 14.0381 76.1719C14.0381 75.5151 14.2989 74.8851 14.7631 74.4207C15.2273 73.9562 15.8568 73.6953 16.5133 73.6953H234.025C234.682 73.6953 235.311 73.9562 235.776 74.4207C236.24 74.8851 236.501 75.5151 236.501 76.1719C236.501 76.8287 236.24 77.4587 235.776 77.9231C235.311 78.3876 234.682 78.6485 234.025 78.6485Z" fill="#CCCCCC"/>
<path d="M176.979 88.4349H16.5135C15.857 88.4349 15.2273 88.1739 14.7631 87.7095C14.2989 87.245 14.0381 86.615 14.0381 85.9581C14.0381 85.3013 14.2989 84.6713 14.7631 84.2068C15.2273 83.7424 15.857 83.4814 16.5135 83.4814H176.979C177.636 83.4814 178.265 83.7424 178.729 84.2068C179.194 84.6713 179.454 85.3013 179.454 85.9581C179.454 86.615 179.194 87.245 178.729 87.7095C178.265 88.1739 177.636 88.4349 176.979 88.4349Z" fill="#CCCCCC"/>
<path d="M22.3504 198.362C26.9412 198.362 30.6628 194.639 30.6628 190.045C30.6628 185.452 26.9412 181.729 22.3504 181.729C17.7596 181.729 14.0381 185.452 14.0381 190.045C14.0381 194.639 17.7596 198.362 22.3504 198.362Z" fill="#CCCCCC"/>
<path d="M234.025 208.461H16.5134C16.188 208.462 15.8657 208.398 15.5649 208.274C15.2642 208.149 14.9908 207.967 14.7606 207.737C14.5303 207.507 14.3476 207.234 14.223 206.933C14.0983 206.632 14.0342 206.31 14.0342 205.984C14.0342 205.659 14.0983 205.336 14.223 205.036C14.3476 204.735 14.5303 204.462 14.7606 204.232C14.9908 204.002 15.2642 203.819 15.5649 203.695C15.8657 203.571 16.188 203.507 16.5134 203.508H234.025C234.715 203.546 235.365 203.841 235.849 204.335C236.332 204.828 236.614 205.485 236.638 206.175C236.618 206.498 236.534 206.813 236.391 207.102C236.249 207.392 236.05 207.65 235.807 207.863C235.564 208.075 235.282 208.237 234.976 208.34C234.67 208.443 234.347 208.484 234.025 208.461Z" fill="#CCCCCC"/>
<path d="M176.979 218.248H16.5135C15.857 218.248 15.2273 217.987 14.7631 217.523C14.2989 217.058 14.0381 216.429 14.0381 215.772C14.0381 215.115 14.2989 214.485 14.7631 214.02C15.2273 213.556 15.857 213.295 16.5135 213.295H176.979C177.636 213.295 178.265 213.556 178.729 214.02C179.194 214.485 179.454 215.115 179.454 215.772C179.454 216.429 179.194 217.058 178.729 217.523C178.265 217.987 177.636 218.248 176.979 218.248Z" fill="#CCCCCC"/>
<path d="M22.3504 128.562C26.9412 128.562 30.6628 124.839 30.6628 120.246C30.6628 115.652 26.9412 111.929 22.3504 111.929C17.7596 111.929 14.0381 115.652 14.0381 120.246C14.0381 124.839 17.7596 128.562 22.3504 128.562Z" fill="#CCCCCC"/>
<path d="M234.025 138.662H16.5133C15.8568 138.662 15.2273 138.401 14.7631 137.937C14.2989 137.472 14.0381 136.842 14.0381 136.186C14.0381 135.529 14.2989 134.899 14.7631 134.434C15.2273 133.97 15.8568 133.709 16.5133 133.709H234.025C234.682 133.709 235.311 133.97 235.776 134.434C236.24 134.899 236.501 135.529 236.501 136.186C236.501 136.842 236.24 137.472 235.776 137.937C235.311 138.401 234.682 138.662 234.025 138.662Z" fill="#CCCCCC"/>
<path d="M203.735 148.448H16.5135C15.857 148.448 15.2273 148.187 14.7631 147.722C14.2989 147.258 14.0381 146.628 14.0381 145.971C14.0381 145.314 14.2989 144.684 14.7631 144.22C15.2273 143.755 15.857 143.494 16.5135 143.494H203.735C204.392 143.494 205.021 143.755 205.486 144.22C205.95 144.684 206.211 145.314 206.211 145.971C206.211 146.628 205.95 147.258 205.486 147.722C205.021 148.187 204.392 148.448 203.735 148.448Z" fill="#CCCCCC"/>
<path d="M191.028 158.235H16.5135C15.857 158.235 15.2273 157.974 14.7631 157.509C14.2989 157.045 14.0381 156.415 14.0381 155.758C14.0381 155.101 14.2989 154.471 14.7631 154.007C15.2273 153.542 15.857 153.281 16.5135 153.281H191.028C191.684 153.281 192.314 153.542 192.778 154.007C193.243 154.471 193.503 155.101 193.503 155.758C193.503 156.415 193.243 157.045 192.778 157.509C192.314 157.974 191.684 158.235 191.028 158.235Z" fill="#CCCCCC"/>
<path d="M194.639 267.724C228.636 267.724 256.196 240.149 256.196 206.134C256.196 172.118 228.636 144.543 194.639 144.543C160.642 144.543 133.082 172.118 133.082 206.134C133.082 240.149 160.642 267.724 194.639 267.724Z" fill="#97B8D7"/>
<path d="M195 223C197.761 223 200 220.761 200 218C200 215.239 197.761 213 195 213C192.239 213 190 215.239 190 218C190 220.761 192.239 223 195 223Z" fill="white"/>
<path d="M210.879 238.411H178.4C175.184 238.407 172.101 237.128 169.827 234.852C167.552 232.577 166.273 229.492 166.27 226.275V211.375C166.273 208.157 167.552 205.072 169.826 202.797C172.101 200.522 175.184 199.242 178.4 199.238H210.879C214.095 199.242 217.178 200.522 219.452 202.797C221.726 205.073 223.005 208.157 223.009 211.375V226.275C223.005 229.492 221.726 232.577 219.452 234.852C217.178 237.128 214.095 238.407 210.879 238.411ZM178.4 200.509C175.521 200.512 172.76 201.658 170.724 203.695C168.688 205.732 167.543 208.494 167.54 211.375V226.275C167.543 229.155 168.688 231.917 170.724 233.954C172.76 235.991 175.521 237.137 178.4 237.14H210.879C213.758 237.137 216.518 235.991 218.554 233.954C220.59 231.917 221.735 229.155 221.739 226.275V211.375C221.735 208.494 220.59 205.732 218.554 203.695C216.518 201.658 213.758 200.512 210.879 200.509L178.4 200.509Z" fill="white"/>
<path d="M264.757 321.851L257.674 321.851L254.304 294.512L264.759 294.512L264.757 321.851Z" fill="#A0616A"/>
<path d="M265.007 329.245L243.223 329.244V328.969C243.223 326.719 244.117 324.561 245.707 322.97C247.297 321.379 249.453 320.485 251.702 320.485L255.682 317.465L263.106 320.486L265.007 320.486L265.007 329.245Z" fill="#2F2E41"/>
<path d="M314.881 321.851L321.965 321.851L325.335 294.512L314.879 294.512L314.881 321.851Z" fill="#A0616A"/>
<path d="M314.631 329.245L336.415 329.244V328.969C336.415 326.719 335.522 324.561 333.932 322.97C332.341 321.379 330.185 320.485 327.936 320.485L323.957 317.465L316.532 320.486L314.631 320.486L314.631 329.245Z" fill="#2F2E41"/>
<path d="M253.992 274.423C254.096 272.863 254.928 264.236 254.928 264.236L256.921 245.94L260.432 197.442L260.661 194.267L279.057 190.734L291.629 184.703L306.573 189.483L318.209 193.849C318.209 193.849 318.229 195.718 318.318 197.975C318.438 200.931 318.647 204.554 319.145 205.496C319.977 207.161 319.768 216.097 319.768 216.097C319.768 216.097 320.595 234.278 321.636 236.271C322.677 238.265 322.886 242.416 322.572 243.249C322.259 244.081 323.613 265.915 323.613 265.915C323.613 265.915 327.091 304.554 324.909 310.38C322.727 316.206 314.483 312.39 314.483 312.39C314.483 312.39 314.881 310.835 312.49 310.102C310.1 309.37 302.817 254.582 302.817 254.582C302.817 254.582 301.462 243.348 300.217 240.129C298.972 236.909 297.826 227.864 297.826 227.864C297.826 227.864 290.135 212.892 290.035 209.563C290.035 209.563 289.029 206.448 288.078 209.877C287.126 213.306 284.322 221.519 284.322 221.519L281.587 231.606L278.369 246.678L276.287 259.367C276.287 259.367 273.169 276.207 272.671 276.935C272.173 277.662 272.671 293.048 272.671 293.048C272.671 293.048 270.26 306.15 266.853 308.438C263.446 310.725 254.419 308.474 254.419 308.474C254.419 308.474 253.887 275.983 253.992 274.423Z" fill="#121535"/>
<path d="M261.84 150.035L265.929 162.361L260.883 168.371L263.105 170.659L261.466 173.893L257.192 207.794L280.624 216.685L288.514 206.786L294.736 216.685L321.848 210.056L314.934 166.826V164L312.982 158.543V146.99L318.137 112.601L302.75 107.209L295.393 101.383L293.012 109.576L282.876 107.772L282.611 101.617L274.856 108.948L268.325 110.812L260.505 112.601L259.508 115.093L261.501 114.595L261.177 147.015L261.84 150.035Z" fill="#121535"/>
<path d="M254.836 195.131L258.771 157.019L259.81 141.334L248.795 139.341C248.795 139.341 249.232 150.556 247.789 156.884C246.365 163.129 247.6 194.294 247.688 195.128C246.879 195.851 246.308 196.804 246.052 197.859C245.796 198.914 245.866 200.022 246.253 201.036C246.64 202.051 247.326 202.924 248.219 203.54C249.113 204.156 250.172 204.486 251.257 204.486C252.342 204.487 253.402 204.158 254.296 203.543C255.19 202.927 255.877 202.055 256.265 201.041C256.653 200.027 256.724 198.919 256.469 197.864C256.213 196.808 255.644 195.856 254.836 195.131Z" fill="#A0616A"/>
<path d="M244.092 164.916L247.156 165.549L257.666 167.727L258.249 167.847L259.489 162.913L260.928 161.378L263.668 147.014L263.813 146.267L267.952 137.415L270.816 110.812L260.166 112.725C260.111 112.78 260.061 112.84 260.012 112.9C258.482 114.634 257.392 117.046 255.608 119.473C249.805 127.373 245.352 146.566 245.527 157.082C245.532 157.251 245.357 157.436 245.148 157.625C244.161 158.533 243.516 159.755 243.324 161.083C243.132 162.411 243.403 163.765 244.092 164.916Z" fill="#121535"/>
<path d="M323.308 195.131L319.373 157.019L318.334 141.334L329.349 139.341C329.349 139.341 328.912 150.556 330.355 156.884C331.779 163.129 330.544 194.294 330.456 195.128C331.265 195.851 331.835 196.804 332.091 197.859C332.348 198.914 332.278 200.022 331.891 201.036C331.504 202.051 330.818 202.924 329.925 203.54C329.031 204.156 327.972 204.486 326.886 204.486C325.801 204.487 324.742 204.158 323.847 203.543C322.953 202.927 322.267 202.055 321.879 201.041C321.491 200.027 321.42 198.919 321.675 197.864C321.93 196.808 322.5 195.856 323.308 195.131Z" fill="#A0616A"/>
<path d="M334.052 164.917L330.988 165.549L320.478 167.727L319.895 167.847L318.655 162.913L317.215 161.378L314.476 147.014L314.331 146.267L310.192 137.415L311.138 110.812L317.978 112.725C318.032 112.78 318.082 112.84 318.132 112.9C319.661 114.634 320.752 117.046 322.536 119.473C328.339 127.373 332.791 146.566 332.617 157.082C332.612 157.251 332.786 157.436 332.996 157.625C333.983 158.533 334.627 159.755 334.82 161.083C335.012 162.411 334.741 163.765 334.052 164.917Z" fill="#121535"/>
<path d="M277.607 114.749L282.611 101.617L295.393 101.383L299.634 114.749L314.879 199.957C314.879 199.957 268.175 212.97 268.649 197.327C269.147 180.881 271.395 159.034 271.395 159.034L277.607 114.749Z" fill="#CBDCEB"/>
<path d="M288.716 97.9427C297.032 97.9427 303.773 91.1978 303.773 82.8776C303.773 74.5574 297.032 67.8125 288.716 67.8125C280.4 67.8125 273.659 74.5574 273.659 82.8776C273.659 91.1978 280.4 97.9427 288.716 97.9427Z" fill="#A0616A"/>
<path d="M272.772 71.9494C275.223 69.2799 278.289 64.3933 287.576 62.3414C299.051 59.8058 304.474 70.178 301.58 70.348C310.042 72.9119 304.606 90.4331 302.18 88.9637C302.159 88.9491 302.139 88.9335 302.12 88.9169C300.816 87.9555 299.721 86.7381 298.902 85.339C298.083 83.94 297.558 82.3886 297.359 80.7797L296.899 76.6335C296.833 80.0069 293.387 80.4532 289.866 79.2108C290.074 78.4712 290.472 77.7986 291.019 77.2595C291.566 76.7204 292.244 76.3334 292.987 76.1366C290.533 78.3627 287.415 79.7199 284.114 79.9992C284.287 79.1546 284.639 78.3567 285.145 77.6593C285.652 76.9618 286.302 76.3809 287.051 75.9555L286.912 75.8189C285.538 76.979 283.959 77.8732 282.258 78.456C280.317 79.0126 277.991 78.7115 276.662 77.1915C276.304 76.772 276.033 76.285 275.866 75.7593C276.154 78.4309 274.363 81.4806 272.972 80.957C271.814 80.7319 271.14 73.7265 272.772 71.9494Z" fill="#2F2E41"/>
<path d="M214.299 200.678H174.979V189.102C174.979 179.763 183.798 172.165 194.639 172.165C205.48 172.165 214.299 179.763 214.299 189.102V200.678ZM176.249 199.407H213.029V189.102C213.029 180.464 204.779 173.436 194.639 173.436C184.498 173.436 176.249 180.464 176.249 189.102V199.407Z" fill="white"/>
<path d="M204.709 196.258H184.569C183.663 196.257 182.794 195.896 182.153 195.255C181.513 194.614 181.152 193.745 181.151 192.839V188.232C181.151 181.809 187.202 176.584 194.639 176.584C202.076 176.584 208.127 181.809 208.127 188.232V192.839C208.126 193.745 207.765 194.614 207.125 195.255C206.484 195.896 205.615 196.257 204.709 196.258ZM194.639 177.855C187.902 177.855 182.421 182.51 182.421 188.232V192.839C182.422 193.408 182.648 193.954 183.051 194.357C183.454 194.76 183.999 194.987 184.569 194.987H204.709C205.278 194.987 205.824 194.76 206.227 194.357C206.629 193.954 206.856 193.408 206.856 192.839V188.232C206.856 182.51 201.376 177.855 194.639 177.855Z" fill="white"/>
<rect x="193" y="220" width="4" height="9" fill="white"/>
</svg>
