<svg width="427" height="214" viewBox="0 0 427 214" fill="none" xmlns="http://www.w3.org/2000/svg">
<path d="M197.769 19.5286H6.20855C2.78193 19.5341 0.00547368 22.3369 0 25.796V156.287C0.00329475 159.747 2.78101 162.551 6.20855 162.554H197.769C201.196 162.551 203.974 159.747 203.977 156.287V25.796C203.972 22.3369 201.196 19.5341 197.769 19.5286Z" fill="#E6E6E6"/>
<path d="M123.562 131.055H78.7481C77.4279 131.057 76.3592 132.138 76.3606 133.471V204.934H125.955V133.471C125.956 132.137 124.885 131.055 123.564 131.055H123.562ZM101.306 171.659C98.3887 171.645 96.0275 169.262 96.0139 166.317V158.075C96.0139 155.124 98.383 152.733 101.306 152.733C104.228 152.733 106.597 155.124 106.597 158.075V166.317C106.584 169.262 104.223 171.645 101.306 171.659Z" fill="#CCCCCC"/>
<path d="M76.2065 202.648V209.543C76.208 210.287 76.805 210.889 77.5418 210.891H124.774C125.509 210.887 126.105 210.286 126.109 209.543V202.648H76.2065Z" fill="#3F3D56"/>
<path d="M196.17 24.0555H7.80861C5.97379 24.0595 4.48844 25.562 4.48828 27.4142V154.671C4.49142 156.52 5.97615 158.019 7.80861 158.022H196.17C198.002 158.019 199.487 156.52 199.49 154.671V27.4142C199.49 25.562 198.004 24.0595 196.17 24.0555Z" fill="white"/>
<path d="M159.48 213.29H47.4157C46.2772 213.29 45.3542 212.358 45.3542 211.209C45.3542 211.065 45.3691 210.921 45.3984 210.78L47.1373 202.443C47.3412 201.482 48.1807 200.795 49.1543 200.791H157.742C158.715 200.795 159.555 201.482 159.759 202.443L161.498 210.78C161.732 211.905 161.019 213.009 159.905 213.245C159.765 213.275 159.623 213.29 159.48 213.29Z" fill="#CCCCCC"/>
<path d="M52.9723 202.292H50.3786C50.1417 202.292 49.9497 202.486 49.9497 202.725V203.95C49.9497 204.189 50.1417 204.383 50.3786 204.383H52.9723C53.2092 204.383 53.4012 204.189 53.4012 203.95V202.725C53.4012 202.486 53.2092 202.292 52.9723 202.292Z" fill="#E6E6E6"/>
<path d="M59.8754 202.292H57.2817C57.0448 202.292 56.8528 202.486 56.8528 202.725V203.95C56.8528 204.189 57.0448 204.383 57.2817 204.383H59.8754C60.1122 204.383 60.3043 204.189 60.3043 203.95V202.725C60.3043 202.486 60.1122 202.292 59.8754 202.292Z" fill="#E6E6E6"/>
<path d="M66.7789 202.292H64.1853C63.9484 202.292 63.7563 202.486 63.7563 202.725V203.95C63.7563 204.189 63.9484 204.383 64.1853 204.383H66.7789C67.0158 204.383 67.2078 204.189 67.2078 203.95V202.725C67.2078 202.486 67.0158 202.292 66.7789 202.292Z" fill="#E6E6E6"/>
<path d="M73.6822 202.292H71.0886C70.8517 202.292 70.6597 202.486 70.6597 202.725V203.95C70.6597 204.189 70.8517 204.383 71.0886 204.383H73.6822C73.9191 204.383 74.1112 204.189 74.1112 203.95V202.725C74.1112 202.486 73.9191 202.292 73.6822 202.292Z" fill="#E6E6E6"/>
<path d="M80.5848 202.292H77.9912C77.7543 202.292 77.5623 202.486 77.5623 202.725V203.95C77.5623 204.189 77.7543 204.383 77.9912 204.383H80.5848C80.8217 204.383 81.0137 204.189 81.0137 203.95V202.725C81.0137 202.486 80.8217 202.292 80.5848 202.292Z" fill="#E6E6E6"/>
<path d="M87.4879 202.292H84.8943C84.6574 202.292 84.4653 202.486 84.4653 202.725V203.95C84.4653 204.189 84.6574 204.383 84.8943 204.383H87.4879C87.7248 204.383 87.9168 204.189 87.9168 203.95V202.725C87.9168 202.486 87.7248 202.292 87.4879 202.292Z" fill="#E6E6E6"/>
<path d="M94.3905 202.292H91.7968C91.56 202.292 91.3679 202.486 91.3679 202.725V203.95C91.3679 204.189 91.56 204.383 91.7968 204.383H94.3905C94.6274 204.383 94.8194 204.189 94.8194 203.95V202.725C94.8194 202.486 94.6274 202.292 94.3905 202.292Z" fill="#E6E6E6"/>
<path d="M101.294 202.292H98.6999C98.463 202.292 98.271 202.486 98.271 202.725V203.95C98.271 204.189 98.463 204.383 98.6999 204.383H101.294C101.53 204.383 101.722 204.189 101.722 203.95V202.725C101.722 202.486 101.53 202.292 101.294 202.292Z" fill="#E6E6E6"/>
<path d="M108.197 202.292H105.603C105.366 202.292 105.174 202.486 105.174 202.725V203.95C105.174 204.189 105.366 204.383 105.603 204.383H108.197C108.434 204.383 108.626 204.189 108.626 203.95V202.725C108.626 202.486 108.434 202.292 108.197 202.292Z" fill="#E6E6E6"/>
<path d="M115.099 202.292H112.506C112.269 202.292 112.077 202.486 112.077 202.725V203.95C112.077 204.189 112.269 204.383 112.506 204.383H115.099C115.336 204.383 115.528 204.189 115.528 203.95V202.725C115.528 202.486 115.336 202.292 115.099 202.292Z" fill="#E6E6E6"/>
<path d="M122.002 202.292H119.409C119.172 202.292 118.98 202.486 118.98 202.725V203.95C118.98 204.189 119.172 204.383 119.409 204.383H122.002C122.239 204.383 122.431 204.189 122.431 203.95V202.725C122.431 202.486 122.239 202.292 122.002 202.292Z" fill="#E6E6E6"/>
<path d="M128.906 202.292H126.312C126.075 202.292 125.883 202.486 125.883 202.725V203.95C125.883 204.189 126.075 204.383 126.312 204.383H128.906C129.143 204.383 129.335 204.189 129.335 203.95V202.725C129.335 202.486 129.143 202.292 128.906 202.292Z" fill="#E6E6E6"/>
<path d="M135.808 202.292H133.215C132.978 202.292 132.786 202.486 132.786 202.725V203.95C132.786 204.189 132.978 204.383 133.215 204.383H135.808C136.045 204.383 136.237 204.189 136.237 203.95V202.725C136.237 202.486 136.045 202.292 135.808 202.292Z" fill="#E6E6E6"/>
<path d="M142.711 202.292H140.117C139.881 202.292 139.688 202.486 139.688 202.725V203.95C139.688 204.189 139.881 204.383 140.117 204.383H142.711C142.948 204.383 143.14 204.189 143.14 203.95V202.725C143.14 202.486 142.948 202.292 142.711 202.292Z" fill="#E6E6E6"/>
<path d="M149.614 202.292H147.021C146.784 202.292 146.592 202.486 146.592 202.725V203.95C146.592 204.189 146.784 204.383 147.021 204.383H149.614C149.851 204.383 150.043 204.189 150.043 203.95V202.725C150.043 202.486 149.851 202.292 149.614 202.292Z" fill="#E6E6E6"/>
<path d="M156.517 202.292H153.924C153.687 202.292 153.495 202.486 153.495 202.725V203.95C153.495 204.189 153.687 204.383 153.924 204.383H156.517C156.754 204.383 156.946 204.189 156.946 203.95V202.725C156.946 202.486 156.754 202.292 156.517 202.292Z" fill="#E6E6E6"/>
<path d="M52.891 205.776H50.2973C50.0604 205.776 49.8684 205.97 49.8684 206.209V207.434C49.8684 207.673 50.0604 207.867 50.2973 207.867H52.891C53.1278 207.867 53.3199 207.673 53.3199 207.434V206.209C53.3199 205.97 53.1278 205.776 52.891 205.776Z" fill="#E6E6E6"/>
<path d="M59.7943 205.776H57.2007C56.9638 205.776 56.7717 205.97 56.7717 206.209V207.434C56.7717 207.673 56.9638 207.867 57.2007 207.867H59.7943C60.0312 207.867 60.2232 207.673 60.2232 207.434V206.209C60.2232 205.97 60.0312 205.776 59.7943 205.776Z" fill="#E6E6E6"/>
<path d="M66.6978 205.776H64.1042C63.8673 205.776 63.6753 205.97 63.6753 206.209V207.434C63.6753 207.673 63.8673 207.867 64.1042 207.867H66.6978C66.9347 207.867 67.1268 207.673 67.1268 207.434V206.209C67.1268 205.97 66.9347 205.776 66.6978 205.776Z" fill="#E6E6E6"/>
<path d="M73.5999 205.776H71.0063C70.7694 205.776 70.5774 205.97 70.5774 206.209V207.434C70.5774 207.673 70.7694 207.867 71.0063 207.867H73.5999C73.8368 207.867 74.0289 207.673 74.0289 207.434V206.209C74.0289 205.97 73.8368 205.776 73.5999 205.776Z" fill="#E6E6E6"/>
<path d="M80.503 205.776H77.9094C77.6725 205.776 77.4805 205.97 77.4805 206.209V207.434C77.4805 207.673 77.6725 207.867 77.9094 207.867H80.503C80.7399 207.867 80.9319 207.673 80.9319 207.434V206.209C80.9319 205.97 80.7399 205.776 80.503 205.776Z" fill="#E6E6E6"/>
<path d="M87.4056 205.776H84.812C84.5751 205.776 84.3831 205.97 84.3831 206.209V207.434C84.3831 207.673 84.5751 207.867 84.812 207.867H87.4056C87.6425 207.867 87.8346 207.673 87.8346 207.434V206.209C87.8346 205.97 87.6425 205.776 87.4056 205.776Z" fill="#E6E6E6"/>
<path d="M94.3087 205.776H91.7151C91.4782 205.776 91.2861 205.97 91.2861 206.209V207.434C91.2861 207.673 91.4782 207.867 91.7151 207.867H94.3087C94.5456 207.867 94.7376 207.673 94.7376 207.434V206.209C94.7376 205.97 94.5456 205.776 94.3087 205.776Z" fill="#E6E6E6"/>
<path d="M101.211 205.776H98.6176C98.3808 205.776 98.1887 205.97 98.1887 206.209V207.434C98.1887 207.673 98.3808 207.867 98.6176 207.867H101.211C101.448 207.867 101.64 207.673 101.64 207.434V206.209C101.64 205.97 101.448 205.776 101.211 205.776Z" fill="#E6E6E6"/>
<path d="M108.114 205.776H105.521C105.284 205.776 105.092 205.97 105.092 206.209V207.434C105.092 207.673 105.284 207.867 105.521 207.867H108.114C108.351 207.867 108.543 207.673 108.543 207.434V206.209C108.543 205.97 108.351 205.776 108.114 205.776Z" fill="#E6E6E6"/>
<path d="M115.018 205.776H112.425C112.188 205.776 111.996 205.97 111.996 206.209V207.434C111.996 207.673 112.188 207.867 112.425 207.867H115.018C115.255 207.867 115.447 207.673 115.447 207.434V206.209C115.447 205.97 115.255 205.776 115.018 205.776Z" fill="#E6E6E6"/>
<path d="M121.921 205.776H119.328C119.091 205.776 118.899 205.97 118.899 206.209V207.434C118.899 207.673 119.091 207.867 119.328 207.867H121.921C122.158 207.867 122.35 207.673 122.35 207.434V206.209C122.35 205.97 122.158 205.776 121.921 205.776Z" fill="#E6E6E6"/>
<path d="M128.824 205.776H126.23C125.993 205.776 125.801 205.97 125.801 206.209V207.434C125.801 207.673 125.993 207.867 126.23 207.867H128.824C129.061 207.867 129.253 207.673 129.253 207.434V206.209C129.253 205.97 129.061 205.776 128.824 205.776Z" fill="#E6E6E6"/>
<path d="M135.727 205.776H133.133C132.896 205.776 132.704 205.97 132.704 206.209V207.434C132.704 207.673 132.896 207.867 133.133 207.867H135.727C135.964 207.867 136.156 207.673 136.156 207.434V206.209C136.156 205.97 135.964 205.776 135.727 205.776Z" fill="#E6E6E6"/>
<path d="M142.629 205.776H140.036C139.799 205.776 139.607 205.97 139.607 206.209V207.434C139.607 207.673 139.799 207.867 140.036 207.867H142.629C142.866 207.867 143.058 207.673 143.058 207.434V206.209C143.058 205.97 142.866 205.776 142.629 205.776Z" fill="#E6E6E6"/>
<path d="M149.533 205.776H146.939C146.702 205.776 146.51 205.97 146.51 206.209V207.434C146.51 207.673 146.702 207.867 146.939 207.867H149.533C149.769 207.867 149.961 207.673 149.961 207.434V206.209C149.961 205.97 149.769 205.776 149.533 205.776Z" fill="#E6E6E6"/>
<path d="M156.436 205.776H153.842C153.605 205.776 153.413 205.97 153.413 206.209V207.434C153.413 207.673 153.605 207.867 153.842 207.867H156.436C156.673 207.867 156.865 207.673 156.865 207.434V206.209C156.865 205.97 156.673 205.776 156.436 205.776Z" fill="#E6E6E6"/>
<path d="M186.702 41.5884H10.453C10.0659 41.5798 9.75898 41.2561 9.76751 40.8653C9.77574 40.4867 10.0779 40.1817 10.453 40.1733H186.702C187.089 40.1819 187.396 40.5057 187.387 40.8964C187.379 41.2751 187.077 41.5801 186.702 41.5884Z" fill="#CACACA"/>
<path d="M50.8297 36.5609C53.0983 36.5609 54.9373 34.6631 54.9373 32.322C54.9373 29.9809 53.0983 28.0831 50.8297 28.0831C48.5612 28.0831 46.7222 29.9809 46.7222 32.322C46.7222 34.6631 48.5612 36.5609 50.8297 36.5609Z" fill="#CCCCCC"/>
<path d="M98.3967 52.3166L97.8274 50.6376L170.626 12.4537L171.195 14.1327L98.3967 52.3166Z" fill="#3F3D56"/>
<path d="M306.283 122.641L305.753 120.989L346.518 83.6161L347.047 85.2669L306.283 122.641Z" fill="#3F3D56"/>
<path d="M264.1 104.902L224.922 34.1988L226.16 33.0613L265.337 103.765L264.1 104.902Z" fill="#3F3D56"/>
<path d="M294.331 13.5489L255.673 13.2874V10.8881L294.331 11.1497V13.5489Z" fill="#3F3D56"/>
<path d="M362.996 24.1921H320.556C314.807 24.1921 310.146 19.0299 310.146 12.662C310.146 6.29418 314.807 1.132 320.556 1.132H362.996C368.745 1.132 373.405 6.29418 373.405 12.662C373.405 19.0299 368.745 24.1921 362.996 24.1921Z" fill="#97B8D7"/>
<path d="M416.59 91.5984H374.15C368.401 91.5984 363.741 86.4362 363.741 80.0684C363.741 73.7005 368.401 68.5384 374.15 68.5384H416.59C422.339 68.5384 427 73.7005 427 80.0684C427 86.4362 422.339 91.5984 416.59 91.5984Z" fill="#CBDCEB"/>
<path d="M347.046 139.493L309.267 139.232V136.832L347.046 137.092V139.493Z" fill="#3F3D56"/>
<path d="M416.59 150.136H374.15C368.401 150.136 363.741 144.973 363.741 138.605C363.741 132.238 368.401 127.075 374.15 127.075H416.59C422.339 127.075 427 132.238 427 138.605C427 144.973 422.339 150.136 416.59 150.136Z" fill="#97B8D7"/>
<path d="M291.684 142.153H248.655C242.826 142.153 238.101 136.991 238.101 130.623C238.101 124.255 242.826 119.093 248.655 119.093H291.684C297.513 119.093 302.239 124.255 302.239 130.623C302.239 136.991 297.513 142.153 291.684 142.153Z" fill="#BAD0E4"/>
<path d="M233.697 23.3052H190.667C184.838 23.3052 180.113 18.143 180.113 11.7752C180.113 5.40729 184.838 0.245117 190.667 0.245117H233.697C239.526 0.245117 244.251 5.40729 244.251 11.7752C244.251 18.143 239.526 23.3052 233.697 23.3052Z" fill="#A8C4DE"/>
<path d="M65.3331 34.7983C65.2478 34.7983 65.1626 34.7649 65.0983 34.6985L63.2236 32.764C63.0986 32.6351 63.0986 32.4291 63.2236 32.3002L65.0983 30.3658C65.2255 30.235 65.4337 30.2329 65.5628 30.3606C65.6926 30.4887 65.6949 30.6988 65.568 30.8296L63.9181 32.5321L65.568 34.2347C65.6949 34.3656 65.6926 34.5756 65.5628 34.7037C65.499 34.7669 65.4161 34.7983 65.3331 34.7983Z" fill="#CCCCCC"/>
<path d="M68.4836 34.7982C68.4006 34.7982 68.3177 34.7668 68.2539 34.7036C68.1241 34.5755 68.1218 34.3656 68.2487 34.2346L69.8985 32.532L68.2487 30.8295C68.1218 30.6987 68.1241 30.4887 68.2539 30.3606C68.3833 30.2323 68.5916 30.2347 68.7185 30.3657L70.5929 32.3001C70.7179 32.429 70.7179 32.635 70.5929 32.7639L68.7185 34.6984C68.6541 34.7648 68.5689 34.7982 68.4836 34.7982Z" fill="#CCCCCC"/>
<path d="M166.555 29.9969H163.07C162.672 29.9969 162.35 30.3219 162.35 30.7232V34.2454C162.35 34.6467 162.672 34.9717 163.07 34.9717H166.555C166.953 34.9717 167.278 34.6467 167.278 34.2454V30.7232C167.278 30.3219 166.953 29.9969 166.555 29.9969Z" fill="#CCCCCC"/>
<path d="M158.014 29.9969H154.528C154.13 29.9969 153.808 30.3219 153.808 30.7232V34.2454C153.808 34.6467 154.13 34.9717 154.528 34.9717H158.014C158.411 34.9717 158.736 34.6467 158.736 34.2454V30.7232C158.736 30.3219 158.411 29.9969 158.014 29.9969Z" fill="#CCCCCC"/>
<path d="M174.604 30.1628H171.119C170.721 30.1628 170.399 30.4878 170.399 30.8891V34.4113C170.399 34.8126 170.721 35.1376 171.119 35.1376H174.604C175.002 35.1376 175.327 34.8126 175.327 34.4113V30.8891C175.327 30.4878 175.002 30.1628 174.604 30.1628Z" fill="#CCCCCC"/>
<path d="M122.064 31.5026H94.2004C93.7142 31.5026 93.3232 31.9006 93.3232 32.3881C93.3232 32.8757 93.7142 33.2737 94.2004 33.2737H122.064C122.547 33.2737 122.941 32.8757 122.941 32.3881C122.941 31.9006 122.547 31.5026 122.064 31.5026Z" fill="#CCCCCC"/>
<path d="M59.5902 72.0862H20.2071C18.8097 72.0877 17.4701 72.6382 16.482 73.6169C15.4939 74.5955 14.9381 75.9224 14.9365 77.3064V98.016C14.9381 99.4 15.4939 100.727 16.482 101.706C17.4701 102.684 18.8097 103.235 20.2071 103.236H59.5902C60.9875 103.235 62.3272 102.684 63.3153 101.706C64.3033 100.727 64.8591 99.4 64.8607 98.016V77.3064C64.8591 75.9224 64.3033 74.5955 63.3153 73.6169C62.3272 72.6382 60.9875 72.0877 59.5902 72.0862Z" fill="#E6E6E6"/>
<path d="M20.2067 76.3338C19.9464 76.3341 19.6968 76.4366 19.5127 76.6189C19.3287 76.8013 19.2251 77.0484 19.2249 77.3063V98.0159C19.2251 98.2737 19.3287 98.5209 19.5127 98.7032C19.6968 98.8855 19.9464 98.9881 20.2067 98.9884H59.5899C59.8502 98.9881 60.0998 98.8855 60.2839 98.7032C60.468 98.5209 60.5715 98.2737 60.5718 98.0159V77.3063C60.5715 77.0484 60.468 76.8013 60.2839 76.6189C60.0998 76.4366 59.8502 76.3341 59.5899 76.3338H20.2067Z" fill="white"/>
<path d="M39.1016 96.8051C39.0882 96.8051 39.0747 96.8048 39.0611 96.804C38.9002 96.795 38.7471 96.732 38.6271 96.6254C38.5071 96.5188 38.4273 96.3749 38.4008 96.2174L36.1215 82.6719L34.1089 90.6452C34.0705 90.7974 33.9819 90.9325 33.857 91.029C33.7322 91.1256 33.5784 91.178 33.42 91.178H30.5793C30.391 91.178 30.2103 91.1039 30.0771 90.972C29.944 90.8401 29.8691 90.6612 29.8691 90.4746C29.8691 90.2881 29.944 90.1091 30.0771 89.9772C30.2103 89.8453 30.391 89.7712 30.5793 89.7712H32.8655L35.5717 79.0498C35.6113 78.8929 35.7042 78.7543 35.8348 78.6574C35.9655 78.5604 36.1259 78.511 36.289 78.5175C36.4521 78.5239 36.608 78.5858 36.7304 78.6928C36.8528 78.7998 36.9343 78.9452 36.9611 79.1047L39.2839 92.9084L41.2591 86.061C41.3008 85.9166 41.3881 85.7891 41.5082 85.6973C41.6283 85.6056 41.7749 85.5543 41.9265 85.551C42.0782 85.5478 42.2269 85.5927 42.3509 85.6792C42.4749 85.7657 42.5677 85.8893 42.6157 86.0318L43.8742 89.7712H46.203C46.3913 89.7712 46.5719 89.8453 46.7051 89.9772C46.8383 90.1091 46.9131 90.2881 46.9131 90.4746C46.9131 90.6612 46.8383 90.8401 46.7051 90.972C46.5719 91.1039 46.3913 91.178 46.203 91.178H43.3623C43.2133 91.178 43.068 91.1315 42.9471 91.0452C42.8262 90.9589 42.7357 90.8371 42.6886 90.697L41.9942 88.6337L39.7841 96.295C39.7418 96.4419 39.6522 96.5711 39.5291 96.6632C39.4059 96.7552 39.2559 96.8051 39.1016 96.8051Z" fill="#97B8D7"/>
<path d="M47.8384 92.5551C48.9923 92.5551 49.9278 91.6286 49.9278 90.4857C49.9278 89.3427 48.9923 88.4162 47.8384 88.4162C46.6845 88.4162 45.749 89.3427 45.749 90.4857C45.749 91.6286 46.6845 92.5551 47.8384 92.5551Z" fill="#3F3D56"/>
<path d="M120.731 72.0862H81.3477C79.9503 72.0877 78.6107 72.6382 77.6226 73.6169C76.6345 74.5955 76.0787 75.9224 76.0771 77.3064V98.016C76.0787 99.4 76.6345 100.727 77.6226 101.706C78.6107 102.684 79.9503 103.235 81.3477 103.236H120.731C122.128 103.235 123.468 102.684 124.456 101.706C125.444 100.727 126 99.4 126.001 98.016V77.3064C126 75.9224 125.444 74.5955 124.456 73.6169C123.468 72.6382 122.128 72.0877 120.731 72.0862Z" fill="#E6E6E6"/>
<path d="M81.3476 76.3338C81.0873 76.3341 80.8377 76.4366 80.6536 76.6189C80.4695 76.8013 80.366 77.0484 80.3657 77.3063V98.0159C80.366 98.2737 80.4695 98.5209 80.6536 98.7032C80.8377 98.8855 81.0873 98.9881 81.3476 98.9884H120.731C120.991 98.9881 121.241 98.8855 121.425 98.7032C121.609 98.5209 121.712 98.2737 121.713 98.0159V77.3063C121.712 77.0484 121.609 76.8013 121.425 76.6189C121.241 76.4366 120.991 76.3341 120.731 76.3338H81.3476Z" fill="white"/>
<path d="M101.039 88.776C103.908 88.776 106.234 86.4724 106.234 83.6307C106.234 80.789 103.908 78.4853 101.039 78.4853C98.1696 78.4853 95.8438 80.789 95.8438 83.6307C95.8438 86.4724 98.1696 88.776 101.039 88.776Z" fill="#FABB84"/>
<path d="M101.038 89.6335C102.875 89.6335 104.637 90.3563 105.936 91.6429C107.235 92.9295 107.965 94.6745 107.965 96.494V96.837H94.1118V96.494C94.1118 94.6745 94.8416 92.9295 96.1405 91.6429C97.4395 90.3563 99.2013 89.6335 101.038 89.6335Z" fill="#FABB84"/>
<path d="M90.4758 91.3487C92.4841 91.3487 94.1122 89.7361 94.1122 87.7469C94.1122 85.7577 92.4841 84.1452 90.4758 84.1452C88.4674 84.1452 86.8394 85.7577 86.8394 87.7469C86.8394 89.7361 88.4674 91.3487 90.4758 91.3487Z" fill="#3F3D56"/>
<path d="M94.0373 93.0034C93.3384 92.3896 92.4753 91.9888 91.5519 91.8493C90.6285 91.7099 89.684 91.8376 88.8322 92.2172C87.9803 92.5968 87.2573 93.2121 86.7502 93.9891C86.2431 94.7661 85.9734 95.6716 85.9736 96.5968V96.8369H93.0733V96.4939C93.0718 95.2657 93.4048 94.0598 94.0373 93.0034Z" fill="#3F3D56"/>
<path d="M111.602 91.3487C113.61 91.3487 115.238 89.7361 115.238 87.7469C115.238 85.7577 113.61 84.1452 111.602 84.1452C109.593 84.1452 107.965 85.7577 107.965 87.7469C107.965 89.7361 109.593 91.3487 111.602 91.3487Z" fill="#3F3D56"/>
<path d="M108.041 93.0034C108.739 92.3896 109.602 91.9888 110.526 91.8493C111.449 91.7099 112.394 91.8376 113.246 92.2172C114.097 92.5968 114.82 93.2121 115.328 93.9891C115.835 94.7661 116.104 95.6716 116.104 96.5968V96.8369H109.004V96.4939C109.006 95.2657 108.673 94.0598 108.041 93.0034Z" fill="#3F3D56"/>
<path d="M181.871 72.0862H142.488C141.091 72.0877 139.751 72.6382 138.763 73.6169C137.775 74.5955 137.219 75.9224 137.218 77.3064V98.016C137.219 99.4 137.775 100.727 138.763 101.706C139.751 102.684 141.091 103.235 142.488 103.236H181.871C183.269 103.235 184.608 102.684 185.596 101.706C186.584 100.727 187.14 99.4 187.142 98.016V77.3064C187.14 75.9224 186.584 74.5955 185.596 73.6169C184.608 72.6382 183.269 72.0877 181.871 72.0862Z" fill="#E6E6E6"/>
<path d="M142.488 76.3338C142.228 76.3341 141.979 76.4366 141.794 76.6189C141.61 76.8013 141.507 77.0484 141.507 77.3063V98.0159C141.507 98.2737 141.61 98.5209 141.794 98.7032C141.979 98.8855 142.228 98.9881 142.488 98.9884H181.872C182.132 98.9881 182.382 98.8855 182.566 98.7032C182.75 98.5209 182.853 98.2737 182.854 98.0159V77.3063C182.853 77.0484 182.75 76.8013 182.566 76.6189C182.382 76.4366 182.132 76.3341 181.872 76.3338H142.488Z" fill="white"/>
<path d="M161.52 97.2379C161.435 97.2379 161.352 97.2214 161.273 97.1893C161.195 97.1572 161.124 97.1102 161.064 97.0509C161.004 96.9916 160.957 96.9212 160.925 96.8438C160.892 96.7663 160.875 96.6833 160.875 96.5994V91.4919C160.876 91.3228 160.944 91.1607 161.065 91.0412C161.186 90.9217 161.349 90.8546 161.52 90.8546C161.691 90.8546 161.855 90.9217 161.975 91.0412C162.096 91.1607 162.164 91.3228 162.165 91.4919V96.5994C162.165 96.6833 162.148 96.7663 162.116 96.8438C162.083 96.9212 162.036 96.9916 161.976 97.0509C161.916 97.1102 161.845 97.1572 161.767 97.1893C161.689 97.2214 161.605 97.2379 161.52 97.2379Z" fill="#EE6A76"/>
<path d="M163.776 94.6841H159.264C159.093 94.6841 158.929 94.6169 158.808 94.4972C158.687 94.3774 158.619 94.215 158.619 94.0457C158.619 93.8764 158.687 93.714 158.808 93.5943C158.929 93.4745 159.093 93.4073 159.264 93.4073H163.776C163.947 93.4073 164.111 93.4745 164.232 93.5943C164.353 93.714 164.421 93.8764 164.421 94.0457C164.421 94.215 164.353 94.3774 164.232 94.4972C164.111 94.6169 163.947 94.6841 163.776 94.6841Z" fill="#EE6A76"/>
<path d="M170.223 82.5537C170.138 82.5537 170.054 82.5372 169.976 82.5051C169.898 82.473 169.827 82.426 169.767 82.3667C169.707 82.3074 169.659 82.237 169.627 82.1596C169.595 82.0821 169.578 81.9991 169.578 81.9152V79.3615H167C166.915 79.3615 166.831 79.3449 166.753 79.3129C166.675 79.2808 166.604 79.2337 166.544 79.1745C166.484 79.1152 166.436 79.0448 166.404 78.9673C166.372 78.8899 166.355 78.8069 166.355 78.723C166.355 78.6392 166.372 78.5561 166.404 78.4787C166.436 78.4012 166.484 78.3308 166.544 78.2716C166.604 78.2123 166.675 78.1652 166.753 78.1332C166.831 78.1011 166.915 78.0846 167 78.0846H170.223C170.307 78.0846 170.391 78.1011 170.469 78.1332C170.547 78.1652 170.618 78.2123 170.678 78.2716C170.738 78.3308 170.786 78.4012 170.818 78.4787C170.85 78.5561 170.867 78.6392 170.867 78.723V81.9152C170.867 81.9991 170.85 82.0821 170.818 82.1596C170.786 82.237 170.738 82.3074 170.678 82.3667C170.618 82.426 170.547 82.473 170.469 82.5051C170.391 82.5372 170.307 82.5537 170.223 82.5537Z" fill="#EE6A76"/>
<path d="M166.326 83.2208C166.198 83.2208 166.074 83.1834 165.968 83.1132C165.862 83.0431 165.779 82.9434 165.73 82.8267C165.681 82.71 165.669 82.5817 165.694 82.4578C165.718 82.334 165.78 82.2202 165.87 82.1309L169.767 78.2715C169.887 78.152 170.051 78.085 170.222 78.0851C170.393 78.0852 170.557 78.1525 170.678 78.2721C170.798 78.3918 170.866 78.554 170.866 78.7232C170.866 78.8923 170.799 79.0546 170.678 79.1744L166.782 83.0338C166.722 83.0932 166.651 83.1403 166.572 83.1724C166.494 83.2045 166.41 83.2209 166.326 83.2208Z" fill="#EE6A76"/>
<path d="M161.52 91.4918C160.309 91.4918 159.125 91.1361 158.118 90.4696C157.111 89.8032 156.326 88.8559 155.863 87.7476C155.399 86.6393 155.278 85.4198 155.514 84.2433C155.751 83.0668 156.334 81.986 157.19 81.1378C158.047 80.2896 159.138 79.7119 160.326 79.4779C161.514 79.2438 162.745 79.364 163.864 79.823C164.983 80.2821 165.939 81.0595 166.612 82.0569C167.285 83.0543 167.644 84.227 167.644 85.4266C167.642 87.0346 166.996 88.5763 165.848 89.7133C164.7 90.8504 163.144 91.49 161.52 91.4918ZM161.52 80.6382C160.564 80.6382 159.63 80.9191 158.834 81.4452C158.039 81.9714 157.42 82.7192 157.054 83.5941C156.688 84.4691 156.592 85.4319 156.779 86.3607C156.965 87.2896 157.426 88.1428 158.102 88.8124C158.778 89.4821 159.639 89.9381 160.577 90.1229C161.515 90.3077 162.487 90.2128 163.37 89.8504C164.254 89.488 165.009 88.8743 165.54 88.0868C166.071 87.2994 166.355 86.3736 166.355 85.4266C166.353 84.1571 165.844 82.94 164.937 82.0423C164.031 81.1446 162.802 80.6397 161.52 80.6382Z" fill="#3F3D56"/>
<line y1="-1" x2="68.8338" y2="-1" transform="matrix(0.882554 0.47021 -0.468037 0.883709 171.327 94.041)" stroke="#3F3D56" stroke-width="2"/>
<line x1="43.051" y1="114.571" x2="152.876" y2="114.571" stroke="#E6E6E6" stroke-width="3"/>
<line x1="47.4441" y1="122.502" x2="146.726" y2="122.502" stroke="#E6E6E6" stroke-width="3"/>
<line x1="48.323" y1="138.364" x2="147.605" y2="138.364" stroke="#E6E6E6" stroke-width="3"/>
<line x1="44.8088" y1="130.433" x2="152.877" y2="130.433" stroke="#E6E6E6" stroke-width="3"/>
</svg>
