<svg width="395" height="326" viewBox="0 0 395 326" fill="none" xmlns="http://www.w3.org/2000/svg">
<path d="M169.105 99.3915L252.842 38.9037L358 132.562L192.474 195.001L302.5 235.001L121.395 305.245L135.026 105.245L163.263 174.513L226.553 37.928L315.158 217.44L122.06 295.489L354.105 113.05L192.474 174.513L147.684 113.05L25 137.44L154.5 186.221L99 289.635L40.5789 115.977L218.763 25.2451" stroke="black"/>
<path d="M24 94.2451C19.2533 94.2451 14.6131 95.594 10.6663 98.1213C6.71956 100.649 3.64338 104.241 1.82688 108.443C0.0103784 112.646 -0.464874 117.271 0.461171 121.732C1.38722 126.194 3.673 130.292 7.02946 133.509C10.3859 136.725 14.6623 138.916 19.3179 139.803C23.9734 140.691 28.799 140.235 33.1844 138.494C37.5698 136.754 41.3181 133.806 43.9553 130.023C46.5924 126.241 48 121.794 48 117.245C47.9814 111.151 45.4468 105.311 40.95 101.001C36.4532 96.6919 30.3595 94.263 24 94.2451ZM24 101.145C25.424 101.145 26.8161 101.55 28.0001 102.308C29.1842 103.066 30.107 104.144 30.6519 105.405C31.1969 106.665 31.3395 108.053 31.0616 109.391C30.7838 110.73 30.0981 111.959 29.0912 112.924C28.0842 113.889 26.8013 114.546 25.4046 114.813C24.008 115.079 22.5603 114.942 21.2447 114.42C19.929 113.898 18.8046 113.013 18.0134 111.879C17.2223 110.744 16.8 109.41 16.8 108.045C16.8064 106.217 17.567 104.466 18.9159 103.173C20.2647 101.88 22.0924 101.151 24 101.145ZM24 134.362C21.1557 134.35 18.3576 133.673 15.8482 132.389C13.3389 131.106 11.1941 129.255 9.6 126.998C9.71539 122.398 19.2 119.866 24 119.866C28.8 119.866 38.2846 122.398 38.4 126.998C36.8041 129.254 34.6589 131.103 32.15 132.386C29.6411 133.669 26.8438 134.348 24 134.362Z" fill="#FABB84"/>
<path d="M151 70.2451C146.055 70.2451 141.222 71.6234 137.111 74.2056C133 76.7878 129.795 80.458 127.903 84.752C126.011 89.0461 125.516 93.7712 126.48 98.3297C127.445 102.888 129.826 107.076 133.322 110.362C136.819 113.649 141.273 115.887 146.123 116.794C150.972 117.7 155.999 117.235 160.567 115.456C165.135 113.678 169.04 110.666 171.787 106.801C174.534 102.936 176 98.393 176 93.7451C175.981 87.5181 173.34 81.5514 168.656 77.1482C163.972 72.7451 157.624 70.2633 151 70.2451ZM151 77.2951C152.483 77.2951 153.933 77.7086 155.167 78.4833C156.4 79.2579 157.361 80.359 157.929 81.6472C158.497 82.9354 158.645 84.3529 158.356 85.7205C158.066 87.0881 157.352 88.3443 156.303 89.3302C155.254 90.3162 153.918 90.9876 152.463 91.2597C151.008 91.5317 149.5 91.3921 148.13 90.8585C146.759 90.3249 145.588 89.4212 144.764 88.2619C143.94 87.1025 143.5 85.7395 143.5 84.3451C143.507 82.4773 144.299 80.6877 145.704 79.3669C147.109 78.0461 149.013 77.3014 151 77.2951ZM151 111.235C148.037 111.222 145.122 110.53 142.509 109.219C139.895 107.907 137.661 106.017 136 103.71C136.12 99.01 146 96.4228 151 96.4228C156 96.4228 165.88 99.01 166 103.71C164.338 106.015 162.103 107.904 159.49 109.215C156.876 110.526 153.962 111.219 151 111.235Z" fill="#FABB84"/>
<path d="M240 0.245117C235.055 0.245117 230.222 1.62337 226.111 4.20558C222 6.78779 218.795 10.458 216.903 14.752C215.011 19.0461 214.516 23.7712 215.48 28.3297C216.445 32.8883 218.826 37.0756 222.322 40.3621C225.819 43.6487 230.273 45.8868 235.123 46.7936C239.972 47.7003 244.999 47.2349 249.567 45.4563C254.135 43.6776 258.04 40.6656 260.787 36.801C263.534 32.9365 265 28.393 265 23.7451C264.981 17.5181 262.34 11.5514 257.656 7.14824C252.972 2.74508 246.624 0.263344 240 0.245117ZM240 7.29512C241.483 7.29512 242.933 7.70859 244.167 8.48326C245.4 9.25792 246.361 10.359 246.929 11.6472C247.497 12.9354 247.645 14.3529 247.356 15.7205C247.066 17.0881 246.352 18.3443 245.303 19.3302C244.254 20.3162 242.918 20.9876 241.463 21.2597C240.008 21.5317 238.5 21.3921 237.13 20.8585C235.759 20.3249 234.588 19.4212 233.764 18.2619C232.94 17.1025 232.5 15.7395 232.5 14.3451C232.507 12.4773 233.299 10.6877 234.704 9.36691C236.109 8.04613 238.013 7.30135 240 7.29512ZM240 41.2345C237.037 41.2218 234.122 40.5299 231.509 39.2186C228.895 37.9074 226.661 36.0165 225 33.71C225.12 29.01 235 26.4228 240 26.4228C245 26.4228 254.88 29.01 255 33.71C253.338 36.0148 251.103 37.9043 248.49 39.2154C245.876 40.5264 242.962 41.2194 240 41.2345Z" fill="#FABB84"/>
<path d="M371 94.2451C366.253 94.2451 361.613 95.594 357.666 98.1213C353.72 100.649 350.643 104.241 348.827 108.443C347.01 112.646 346.535 117.271 347.461 121.732C348.387 126.194 350.673 130.292 354.029 133.509C357.386 136.725 361.662 138.916 366.318 139.803C370.973 140.691 375.799 140.235 380.184 138.494C384.57 136.754 388.318 133.806 390.955 130.023C393.592 126.241 395 121.794 395 117.245C394.981 111.151 392.447 105.311 387.95 101.001C383.453 96.6919 377.359 94.263 371 94.2451ZM371 101.145C372.424 101.145 373.816 101.55 375 102.308C376.184 103.066 377.107 104.144 377.652 105.405C378.197 106.665 378.339 108.053 378.062 109.391C377.784 110.73 377.098 111.959 376.091 112.924C375.084 113.889 373.801 114.546 372.405 114.813C371.008 115.079 369.56 114.942 368.245 114.42C366.929 113.898 365.805 113.013 365.013 111.879C364.222 110.744 363.8 109.41 363.8 108.045C363.806 106.217 364.567 104.466 365.916 103.173C367.265 101.88 369.092 101.151 371 101.145ZM371 134.362C368.156 134.35 365.358 133.673 362.848 132.389C360.339 131.106 358.194 129.255 356.6 126.998C356.715 122.398 366.2 119.866 371 119.866C375.8 119.866 385.285 122.398 385.4 126.998C383.804 129.254 381.659 131.103 379.15 132.386C376.641 133.669 373.844 134.348 371 134.362Z" fill="#FABB84"/>
<path d="M176.5 165.245C171.654 165.245 166.918 166.623 162.889 169.206C158.86 171.788 155.719 175.458 153.865 179.752C152.011 184.046 151.525 188.771 152.471 193.33C153.416 197.888 155.75 202.076 159.176 205.362C162.602 208.649 166.968 210.887 171.72 211.794C176.473 212.7 181.399 212.235 185.876 210.456C190.353 208.678 194.179 205.666 196.871 201.801C199.563 197.936 201 193.393 201 188.745C200.981 182.518 198.394 176.551 193.803 172.148C189.213 167.745 182.992 165.263 176.5 165.245ZM176.5 172.295C177.954 172.295 179.375 172.709 180.583 173.483C181.792 174.258 182.734 175.359 183.291 176.647C183.847 177.935 183.992 179.353 183.709 180.721C183.425 182.088 182.725 183.344 181.697 184.33C180.669 185.316 179.36 185.988 177.934 186.26C176.508 186.532 175.03 186.392 173.687 185.858C172.344 185.325 171.196 184.421 170.389 183.262C169.581 182.103 169.15 180.739 169.15 179.345C169.157 177.477 169.933 175.688 171.31 174.367C172.687 173.046 174.553 172.301 176.5 172.295ZM176.5 206.235C173.596 206.222 170.74 205.53 168.178 204.219C165.617 202.907 163.427 201.017 161.8 198.71C161.918 194.01 171.6 191.423 176.5 191.423C181.4 191.423 191.082 194.01 191.2 198.71C189.571 201.015 187.381 202.904 184.82 204.215C182.259 205.526 179.403 206.219 176.5 206.235Z" fill="#FABB84"/>
<path d="M322 212.245C317.055 212.245 312.222 213.623 308.111 216.206C304 218.788 300.795 222.458 298.903 226.752C297.011 231.046 296.516 235.771 297.48 240.33C298.445 244.888 300.826 249.076 304.322 252.362C307.819 255.649 312.273 257.887 317.123 258.794C321.972 259.7 326.999 259.235 331.567 257.456C336.135 255.678 340.04 252.666 342.787 248.801C345.534 244.936 347 240.393 347 235.745C346.981 229.518 344.34 223.551 339.656 219.148C334.972 214.745 328.624 212.263 322 212.245ZM322 219.295C323.483 219.295 324.933 219.709 326.167 220.483C327.4 221.258 328.361 222.359 328.929 223.647C329.497 224.935 329.645 226.353 329.356 227.721C329.066 229.088 328.352 230.344 327.303 231.33C326.254 232.316 324.918 232.988 323.463 233.26C322.008 233.532 320.5 233.392 319.13 232.858C317.759 232.325 316.588 231.421 315.764 230.262C314.94 229.103 314.5 227.739 314.5 226.345C314.507 224.477 315.299 222.688 316.704 221.367C318.109 220.046 320.013 219.301 322 219.295ZM322 253.235C319.037 253.222 316.122 252.53 313.509 251.219C310.895 249.907 308.661 248.017 307 245.71C307.12 241.01 317 238.423 322 238.423C327 238.423 336.88 241.01 337 245.71C335.338 248.015 333.103 249.904 330.49 251.215C327.876 252.526 324.962 253.219 322 253.235Z" fill="#FABB84"/>
<path d="M112 278.245C107.253 278.245 102.613 279.623 98.6663 282.206C94.7196 284.788 91.6434 288.458 89.8269 292.752C88.0104 297.046 87.5351 301.771 88.4612 306.33C89.3872 310.888 91.673 315.076 95.0295 318.362C98.3859 321.649 102.662 323.887 107.318 324.794C111.973 325.7 116.799 325.235 121.184 323.456C125.57 321.678 129.318 318.666 131.955 314.801C134.592 310.936 136 306.393 136 301.745C135.981 295.518 133.447 289.551 128.95 285.148C124.453 280.745 118.359 278.263 112 278.245ZM112 285.295C113.424 285.295 114.816 285.709 116 286.483C117.184 287.258 118.107 288.359 118.652 289.647C119.197 290.935 119.339 292.353 119.062 293.721C118.784 295.088 118.098 296.344 117.091 297.33C116.084 298.316 114.801 298.988 113.405 299.26C112.008 299.532 110.56 299.392 109.245 298.858C107.929 298.325 106.805 297.421 106.013 296.262C105.222 295.103 104.8 293.739 104.8 292.345C104.806 290.477 105.567 288.688 106.916 287.367C108.265 286.046 110.092 285.301 112 285.295ZM112 319.235C109.156 319.222 106.358 318.53 103.848 317.219C101.339 315.907 99.1941 314.017 97.6 311.71C97.7154 307.01 107.2 304.423 112 304.423C116.8 304.423 126.285 307.01 126.4 311.71C124.804 314.015 122.659 315.904 120.15 317.215C117.641 318.526 114.844 319.219 112 319.235Z" fill="#FABB84"/>
</svg>
