<svg width="403" height="303" viewBox="0 0 403 303" fill="none" xmlns="http://www.w3.org/2000/svg">
<path d="M148.795 127.376H2.70536C1.98811 127.375 1.30049 127.091 0.793318 126.585C0.286149 126.08 0.000842207 125.395 0 124.681V88.5774C0.000842207 87.8629 0.286149 87.1778 0.793318 86.6725C1.30049 86.1673 1.98811 85.883 2.70536 85.8822H148.795C149.512 85.883 150.2 86.1673 150.707 86.6725C151.214 87.1778 151.499 87.8629 151.5 88.5774V124.681C151.499 125.395 151.214 126.08 150.707 126.585C150.2 127.091 149.512 127.375 148.795 127.376ZM2.70536 86.9603C2.275 86.9607 1.86241 87.1313 1.5581 87.4345C1.25379 87.7376 1.08261 88.1487 1.08214 88.5774V124.681C1.08261 125.109 1.25379 125.52 1.5581 125.824C1.86241 126.127 2.275 126.297 2.70536 126.298H148.795C149.225 126.297 149.638 126.127 149.942 125.824C150.246 125.52 150.417 125.109 150.418 124.681V88.5774C150.417 88.1487 150.246 87.7376 149.942 87.4345C149.638 87.1313 149.225 86.9608 148.795 86.9603L2.70536 86.9603Z" fill="#3F3D56"/>
<path d="M24.5899 97.4618C23.9546 97.4618 23.3452 97.6651 22.896 98.0271C22.4467 98.389 22.1943 98.8799 22.1943 99.3917C22.1943 99.9036 22.4467 100.394 22.896 100.756C23.3452 101.118 23.9546 101.322 24.5899 101.322H137.525C138.16 101.322 138.77 101.118 139.219 100.756C139.668 100.394 139.92 99.9036 139.92 99.3917C139.92 98.8799 139.668 98.389 139.219 98.0271C138.77 97.6651 138.16 97.4618 137.525 97.4618H24.5899Z" fill="#E6E6E6"/>
<path d="M25.2251 109.041C24.4213 109.041 23.6504 109.194 23.082 109.465C22.5136 109.737 22.1943 110.105 22.1943 110.489C22.1943 110.873 22.5136 111.241 23.082 111.512C23.6504 111.784 24.4213 111.936 25.2251 111.936H86.7059C87.1043 111.937 87.499 111.899 87.8674 111.827C88.2357 111.754 88.5705 111.648 88.8525 111.513C89.1345 111.379 89.3582 111.219 89.5109 111.043C89.6636 110.868 89.7421 110.679 89.7421 110.489C89.7421 110.299 89.6636 110.11 89.5109 109.934C89.3582 109.759 89.1345 109.599 88.8525 109.464C88.5705 109.33 88.2357 109.223 87.8674 109.151C87.499 109.078 87.1043 109.041 86.7059 109.041H25.2251Z" fill="#E6E6E6"/>
<path d="M85.1027 256.682H20.0787C19.3604 256.681 18.6718 256.398 18.1638 255.895C17.6559 255.393 17.3702 254.711 17.3694 254.001V186.99C17.3702 186.279 17.6559 185.598 18.1638 185.095C18.6718 184.593 19.3604 184.31 20.0787 184.309H85.1027C85.821 184.31 86.5097 184.593 87.0176 185.095C87.5255 185.598 87.8112 186.279 87.8121 186.99V254.001C87.8112 254.711 87.5255 255.393 87.0176 255.895C86.5097 256.398 85.821 256.681 85.1027 256.682ZM20.0787 185.381C19.6477 185.382 19.2345 185.551 18.9298 185.853C18.625 186.155 18.4536 186.563 18.4531 186.99V254.001C18.4536 254.427 18.625 254.836 18.9298 255.138C19.2345 255.439 19.6477 255.609 20.0787 255.609H85.1027C85.5337 255.609 85.9469 255.439 86.2517 255.138C86.5564 254.836 86.7279 254.427 86.7283 254.001V186.99C86.7279 186.563 86.5564 186.155 86.2517 185.853C85.9469 185.551 85.5337 185.382 85.1027 185.381H20.0787Z" fill="#3F3D56"/>
<path d="M34.6274 197.818C34.1451 197.818 33.6826 198.022 33.3415 198.384C33.0005 198.746 32.8088 199.237 32.8088 199.748C32.8088 200.26 33.0005 200.751 33.3415 201.113C33.6826 201.475 34.1451 201.678 34.6274 201.678H71.5189C72.0012 201.678 72.4638 201.475 72.8048 201.113C73.1459 200.751 73.3375 200.26 73.3375 199.748C73.3375 199.237 73.1459 198.746 72.8048 198.384C72.4638 198.022 72.0012 197.818 71.5189 197.818H34.6274Z" fill="#E6E6E6"/>
<path d="M34.6306 208.433C34.3915 208.433 34.1547 208.482 33.9337 208.579C33.7127 208.676 33.5118 208.818 33.3426 208.997C33.1734 209.176 33.0392 209.389 32.9476 209.624C32.856 209.858 32.8088 210.109 32.8088 210.363C32.8088 210.617 32.856 210.868 32.9476 211.102C33.0392 211.337 33.1734 211.55 33.3426 211.729C33.5118 211.908 33.7127 212.05 33.9337 212.147C34.1547 212.244 34.3915 212.293 34.6306 212.293H71.519C72.0013 212.293 72.4639 212.09 72.8049 211.728C73.1459 211.366 73.3375 210.875 73.3375 210.363C73.3375 209.851 73.1459 209.36 72.8049 208.998C72.4639 208.636 72.0013 208.433 71.519 208.433H34.6306Z" fill="#E6E6E6"/>
<path d="M34.6274 218.083C34.1451 218.083 33.6826 218.337 33.3415 218.789C33.0005 219.242 32.8088 219.855 32.8088 220.495C32.8088 221.135 33.0005 221.749 33.3415 222.201C33.6826 222.653 34.1451 222.908 34.6274 222.908H71.5189C72.0012 222.908 72.4638 222.653 72.8048 222.201C73.1459 221.749 73.3375 221.135 73.3375 220.495C73.3375 219.855 73.1459 219.242 72.8048 218.789C72.4638 218.337 72.0012 218.083 71.5189 218.083H34.6274Z" fill="#E6E6E6"/>
<path d="M34.6306 229.662C34.3915 229.662 34.1547 229.712 33.9337 229.808C33.7127 229.905 33.5118 230.047 33.3426 230.226C33.1734 230.406 33.0392 230.619 32.9476 230.853C32.856 231.087 32.8088 231.339 32.8088 231.592C32.8088 231.846 32.856 232.097 32.9476 232.332C33.0392 232.566 33.1734 232.779 33.3426 232.958C33.5118 233.138 33.7127 233.28 33.9337 233.376C34.1547 233.473 34.3915 233.523 34.6306 233.522H71.519C72.0013 233.522 72.4639 233.319 72.8049 232.957C73.1459 232.595 73.3375 232.104 73.3375 231.592C73.3375 231.08 73.1459 230.59 72.8049 230.228C72.4639 229.866 72.0013 229.662 71.519 229.662H34.6306Z" fill="#E6E6E6"/>
<path d="M191.88 31.844H257.795C258.523 31.8448 259.221 32.1313 259.736 32.6406C260.251 33.1499 260.541 33.8404 260.541 34.5607V102.465C260.541 103.185 260.251 103.876 259.736 104.385C259.221 104.894 258.523 105.181 257.795 105.182H191.88C191.152 105.181 190.454 104.894 189.939 104.385C189.424 103.876 189.135 103.185 189.134 102.465V34.5607C189.135 33.8404 189.424 33.1499 189.939 32.6406C190.454 32.1313 191.152 31.8448 191.88 31.844ZM257.795 104.095C258.232 104.094 258.651 103.923 258.96 103.617C259.269 103.311 259.442 102.897 259.443 102.465V34.5607C259.442 34.1285 259.269 33.7142 258.96 33.4086C258.651 33.103 258.232 32.9311 257.795 32.9307H191.88C191.443 32.9311 191.024 33.103 190.716 33.4086C190.407 33.7142 190.233 34.1285 190.232 34.5607V102.465C190.233 102.897 190.407 103.311 190.716 103.617C191.024 103.923 191.443 104.094 191.88 104.095H257.795Z" fill="#3F3D56"/>
<path d="M243.283 91.672C243.766 91.672 244.228 91.4687 244.569 91.1067C244.91 90.7448 245.102 90.2539 245.102 89.7421C245.102 89.2302 244.91 88.7393 244.569 88.3774C244.228 88.0155 243.766 87.8121 243.283 87.8121H206.392C205.91 87.8121 205.447 88.0155 205.106 88.3774C204.765 88.7393 204.573 89.2302 204.573 89.7421C204.573 90.2539 204.765 90.7448 205.106 91.1067C205.447 91.4687 205.91 91.672 206.392 91.672H243.283Z" fill="#E6E6E6"/>
<path d="M243.283 80.0924C243.766 80.0924 244.228 79.9399 244.569 79.6685C244.91 79.397 245.102 79.0289 245.102 78.645C245.102 78.2611 244.91 77.8929 244.569 77.6215C244.228 77.35 243.766 77.1975 243.283 77.1975H206.392C205.91 77.1975 205.447 77.35 205.106 77.6215C204.765 77.8929 204.573 78.2611 204.573 78.645C204.573 79.0289 204.765 79.397 205.106 79.6685C205.447 79.9399 205.91 80.0924 206.392 80.0924H243.283Z" fill="#E6E6E6"/>
<path d="M243.11 69.4777C243.638 69.4777 244.145 69.2743 244.519 68.9124C244.892 68.5505 245.102 68.0596 245.102 67.5477C245.102 67.0359 244.892 66.545 244.519 66.1831C244.145 65.8211 243.638 65.6178 243.11 65.6178H202.705C202.177 65.6178 201.67 65.8211 201.297 66.1831C200.923 66.545 200.713 67.0359 200.713 67.5477C200.713 68.0596 200.923 68.5505 201.297 68.9124C201.67 69.2743 202.177 69.4777 202.705 69.4777H243.11Z" fill="#E6E6E6"/>
<path d="M243.067 58.863C243.607 58.863 244.124 58.6089 244.506 58.1565C244.888 57.7041 245.102 57.0904 245.102 56.4506C245.102 55.8108 244.888 55.1972 244.506 54.7448C244.124 54.2924 243.607 54.0382 243.067 54.0382H201.784C201.244 54.0382 200.726 54.2924 200.345 54.7448C199.963 55.1972 199.749 55.8108 199.749 56.4506C199.749 57.0904 199.963 57.7041 200.345 58.1565C200.726 58.6089 201.244 58.863 201.784 58.863H243.067Z" fill="#E6E6E6"/>
<path d="M336.003 231.592H207.275C206.558 231.591 205.872 231.307 205.365 230.8C204.859 230.294 204.574 229.607 204.573 228.891V161.921C204.574 161.205 204.859 160.518 205.365 160.012C205.872 159.505 206.558 159.221 207.275 159.22H336.003C336.719 159.221 337.405 159.505 337.912 160.012C338.418 160.518 338.703 161.205 338.704 161.921V228.891C338.703 229.607 338.418 230.294 337.912 230.8C337.405 231.307 336.719 231.591 336.003 231.592ZM207.275 160.3C206.845 160.301 206.433 160.472 206.129 160.775C205.825 161.079 205.654 161.491 205.654 161.921V228.891C205.654 229.321 205.825 229.733 206.129 230.037C206.433 230.341 206.845 230.511 207.275 230.512H336.003C336.432 230.511 336.844 230.341 337.148 230.037C337.452 229.733 337.623 229.321 337.623 228.891V161.921C337.623 161.491 337.452 161.079 337.148 160.775C336.844 160.472 336.432 160.301 336.003 160.3H207.275Z" fill="#3F3D56"/>
<path d="M253.703 175.624C253.46 175.624 253.22 175.673 252.996 175.77C252.772 175.867 252.569 176.009 252.397 176.188C252.226 176.368 252.09 176.58 251.997 176.815C251.904 177.049 251.856 177.3 251.856 177.554C251.856 177.808 251.904 178.059 251.997 178.294C252.09 178.528 252.226 178.741 252.397 178.92C252.569 179.099 252.772 179.241 252.996 179.338C253.22 179.435 253.46 179.485 253.703 179.484H323.351C323.84 179.484 324.309 179.281 324.654 178.919C325 178.557 325.194 178.066 325.194 177.554C325.194 177.042 325 176.551 324.654 176.19C324.309 175.828 323.84 175.624 323.351 175.624H253.703Z" fill="#E6E6E6"/>
<path d="M253.722 186.239C253.477 186.238 253.234 186.288 253.008 186.385C252.782 186.482 252.576 186.624 252.403 186.803C252.23 186.982 252.092 187.195 251.998 187.429C251.905 187.664 251.856 187.915 251.856 188.169C251.856 188.423 251.905 188.674 251.998 188.908C252.092 189.143 252.23 189.355 252.403 189.535C252.576 189.714 252.782 189.856 253.008 189.953C253.234 190.05 253.477 190.099 253.722 190.099H291.488C291.982 190.099 292.456 189.895 292.805 189.533C293.154 189.172 293.35 188.681 293.35 188.169C293.35 187.657 293.154 187.166 292.805 186.804C292.456 186.442 291.982 186.239 291.488 186.239H253.722Z" fill="#E6E6E6"/>
<path d="M220.611 204.573C219.217 204.573 218.083 205.223 218.083 206.021C218.083 206.819 219.217 207.468 220.611 207.468H322.666C324.06 207.468 325.194 206.819 325.194 206.021C325.194 205.223 324.06 204.573 322.666 204.573H220.611Z" fill="#E6E6E6"/>
<path d="M220.611 215.188C219.217 215.188 218.083 215.837 218.083 216.635C218.083 217.433 219.217 218.083 220.611 218.083H322.666C324.06 218.083 325.194 217.433 325.194 216.635C325.194 215.837 324.06 215.188 322.666 215.188H220.611Z" fill="#E6E6E6"/>
<path d="M194.107 303H128.192C127.464 302.999 126.766 302.715 126.251 302.21C125.736 301.704 125.447 301.019 125.446 300.305V264.202C125.447 263.487 125.736 262.802 126.251 262.297C126.766 261.791 127.464 261.507 128.192 261.506H194.107C194.835 261.507 195.533 261.791 196.048 262.297C196.563 262.802 196.853 263.487 196.853 264.202V300.305C196.853 301.019 196.563 301.704 196.048 302.21C195.533 302.715 194.835 302.999 194.107 303ZM128.192 262.584C127.755 262.585 127.336 262.755 127.028 263.059C126.719 263.362 126.545 263.773 126.544 264.202V300.305C126.545 300.734 126.719 301.145 127.028 301.448C127.336 301.751 127.755 301.921 128.192 301.922H194.107C194.544 301.921 194.963 301.751 195.272 301.448C195.581 301.145 195.754 300.734 195.755 300.305V264.202C195.754 263.773 195.581 263.362 195.272 263.059C194.963 262.755 194.544 262.585 194.107 262.584H128.192Z" fill="#3F3D56"/>
<path d="M324.229 55.9681H402.392V81.9753H399.431V88.7771L392.72 81.9753H324.229V55.9681Z" fill="#BBB9B9"/>
<path d="M400.462 79.1274H325.194V58.863H384.071C388.416 58.8677 392.583 60.5287 395.656 63.4816C398.728 66.4345 400.457 70.4381 400.462 74.6141V79.1274Z" fill="white"/>
<path d="M375.373 92.637H298.175V118.644H301.099V125.446L307.728 118.644H375.373V92.637Z" fill="#BBB9B9"/>
<path d="M374.408 116.761H313.309C309.808 116.757 306.452 115.402 303.977 112.992C301.501 110.583 300.109 107.316 300.105 103.908V96.4968H374.408V116.761Z" fill="white"/>
<path d="M369.583 102.287H305.895V103.252H369.583V102.287Z" fill="#3449FF"/>
<path d="M369.583 105.182H305.895V107.111H369.583V105.182Z" fill="#E6E6E6"/>
<path d="M392.742 64.6528H330.019V66.5828H392.742V64.6528Z" fill="#3449FF"/>
<path d="M392.742 67.5477H330.019V69.4777H392.742V67.5477Z" fill="#E6E6E6"/>
<path d="M37.6338 17.3694H95.5319V35.7274H93.3388V40.5286L88.3677 35.7274H37.6338V17.3694Z" fill="#BBB9B9"/>
<path d="M94.5669 33.7738H39.5637V19.2993H82.5886C85.7644 19.3027 88.809 20.4891 91.0546 22.5983C93.3002 24.7075 94.5633 27.5672 94.5669 30.5501V33.7738Z" fill="white"/>
<path d="M76.2326 44.3885H18.3345V62.7464H20.5275V67.5478L25.4987 62.7464H76.2326V44.3885Z" fill="#8D8B8B" fill-opacity="0.6"/>
<path d="M74.3026 60.793H29.8674C27.3214 60.7903 24.8805 59.8221 23.0802 58.101C21.28 56.3798 20.2673 54.0463 20.2644 51.6122V46.3185H74.3026V60.793Z" fill="white"/>
<path d="M71.4076 50.1783H25.0891V52.1083H71.4076V50.1783Z" fill="#3449FF"/>
<path d="M87.812 23.1592H42.4585V24.1241H87.812V23.1592Z" fill="#3449FF"/>
<path d="M87.812 26.0542H42.4585V27.0192H87.812V26.0542Z" fill="#E6E6E6"/>
<path d="M120.621 143.78H178.519V162.138H176.326V166.94L171.355 162.138H120.621V143.78Z" fill="#BBB9B9"/>
<path d="M177.554 161.15H122.551V145.71H165.576C168.752 145.714 171.796 146.979 174.042 149.229C176.287 151.479 177.551 154.529 177.554 157.711V161.15Z" fill="white"/>
<path d="M159.22 170.799H101.322V189.922H103.515V194.924L108.486 189.922H159.22V170.799Z" fill="#BBB9B9"/>
<path d="M157.29 188.169H112.061C109.47 188.166 106.985 187.198 105.153 185.477C103.32 183.756 102.29 181.422 102.287 178.988V173.694H157.29V188.169Z" fill="white"/>
<path d="M153.43 177.554H107.112V179.484H153.43V177.554Z" fill="#3449FF"/>
<path d="M153.43 180.449H107.112V181.414H153.43V180.449Z" fill="#E6E6E6"/>
<path d="M170.799 149.57H124.481V151.5H170.799V149.57Z" fill="#3449FF"/>
<path d="M170.799 153.43H124.481V154.395H170.799V153.43Z" fill="#E6E6E6"/>
<path d="M170.799 155.36H124.481V156.325H170.799V155.36Z" fill="#E6E6E6"/>
<path d="M132.201 261.506C150.765 199.002 188.184 205.513 204.573 216.581" stroke="black"/>
<path d="M338.866 181.106C383.606 164.729 378.345 133.456 370.123 119.866" stroke="black"/>
<path d="M151.95 114.094C216.507 110.42 220.024 143.129 213.713 159.942" stroke="black"/>
<path d="M41.5099 185.274C40.8393 141.362 61.1624 128.378 71.4077 127.376" stroke="black"/>
<path d="M88.0722 238.777C108.783 203.377 112.356 191.427 111.554 189.877" stroke="black"/>
<path d="M152.465 143.78C155.132 118.946 178.022 93.5473 189.134 83.9523" stroke="black"/>
<path d="M126.411 86.8472C124.025 67.6206 103.544 47.9571 93.602 40.5287" stroke="black"/>
<path d="M159.22 261.506C158.799 232.266 155.184 202.361 153.43 191.064" stroke="black"/>
<path opacity="0.3" d="M179.294 188.033C196.772 188.033 210.94 173.865 210.94 156.387C210.94 138.909 196.772 124.741 179.294 124.741C161.816 124.741 147.648 138.909 147.648 156.387C147.648 173.865 161.816 188.033 179.294 188.033Z" fill="#F8A45B"/>
<path opacity="0.3" d="M179.293 177.485C190.945 177.485 200.39 168.039 200.39 156.388C200.39 144.736 190.945 135.29 179.293 135.29C167.641 135.29 158.196 144.736 158.196 156.388C158.196 168.039 167.641 177.485 179.293 177.485Z" fill="#F8A45B"/>
<path d="M179.293 171.039C187.385 171.039 193.944 164.479 193.944 156.388C193.944 148.296 187.385 141.737 179.293 141.737C171.202 141.737 164.642 148.296 164.642 156.388C164.642 164.479 171.202 171.039 179.293 171.039Z" fill="#F8A45B"/>
<path opacity="0.3" d="M161.474 282.05C178.951 282.05 193.12 267.881 193.12 250.404C193.12 232.926 178.951 218.758 161.474 218.758C143.996 218.758 129.827 232.926 129.827 250.404C129.827 267.881 143.996 282.05 161.474 282.05Z" fill="#F8A45B"/>
<path opacity="0.3" d="M161.473 271.502C173.124 271.502 182.57 262.056 182.57 250.404C182.57 238.752 173.124 229.307 161.473 229.307C149.821 229.307 140.375 238.752 140.375 250.404C140.375 262.056 149.821 271.502 161.473 271.502Z" fill="#F8A45B"/>
<path d="M161.473 265.055C169.565 265.055 176.124 258.496 176.124 250.404C176.124 242.313 169.565 235.753 161.473 235.753C153.381 235.753 146.822 242.313 146.822 250.404C146.822 258.496 153.381 265.055 161.473 265.055Z" fill="#F8A45B"/>
<path opacity="0.3" d="M345.205 216.914C362.683 216.914 376.851 202.746 376.851 185.268C376.851 167.791 362.683 153.622 345.205 153.622C327.728 153.622 313.559 167.791 313.559 185.268C313.559 202.746 327.728 216.914 345.205 216.914Z" fill="#F8A45B"/>
<path opacity="0.3" d="M345.204 206.366C356.856 206.366 366.302 196.921 366.302 185.269C366.302 173.617 356.856 164.171 345.204 164.171C333.552 164.171 324.107 173.617 324.107 185.269C324.107 196.921 333.552 206.366 345.204 206.366Z" fill="#F8A45B"/>
<path d="M345.204 199.92C353.296 199.92 359.855 193.361 359.855 185.269C359.855 177.178 353.296 170.618 345.204 170.618C337.113 170.618 330.553 177.178 330.553 185.269C330.553 193.361 337.113 199.92 345.204 199.92Z" fill="#F8A45B"/>
<path opacity="0.3" d="M37.3468 208.926C54.8245 208.926 68.993 194.758 68.993 177.28C68.993 159.802 54.8245 145.634 37.3468 145.634C19.8691 145.634 5.70068 159.802 5.70068 177.28C5.70068 194.758 19.8691 208.926 37.3468 208.926Z" fill="#F8A45B"/>
<path opacity="0.3" d="M37.346 198.378C48.9977 198.378 58.4434 188.932 58.4434 177.281C58.4434 165.629 48.9977 156.183 37.346 156.183C25.6942 156.183 16.2485 165.629 16.2485 177.281C16.2485 188.932 25.6942 198.378 37.346 198.378Z" fill="#F8A45B"/>
<path d="M37.3461 191.932C45.4376 191.932 51.997 185.372 51.997 177.281C51.997 169.189 45.4376 162.63 37.3461 162.63C29.2545 162.63 22.6951 169.189 22.6951 177.281C22.6951 185.372 29.2545 191.932 37.3461 191.932Z" fill="#F8A45B"/>
<path opacity="0.3" d="M98.1813 63.2923C115.659 63.2923 129.827 49.1238 129.827 31.6461C129.827 14.1685 115.659 0 98.1813 0C80.7036 0 66.5352 14.1685 66.5352 31.6461C66.5352 49.1238 80.7036 63.2923 98.1813 63.2923Z" fill="#F8A45B"/>
<path opacity="0.3" d="M98.1804 52.744C109.832 52.744 119.278 43.2984 119.278 31.6466C119.278 19.9948 109.832 10.5492 98.1804 10.5492C86.5286 10.5492 77.083 19.9948 77.083 31.6466C77.083 43.2984 86.5286 52.744 98.1804 52.744Z" fill="#F8A45B"/>
<path d="M98.1805 46.2978C106.272 46.2978 112.832 39.7384 112.832 31.6468C112.832 23.5553 106.272 16.9958 98.1805 16.9958C90.089 16.9958 83.5295 23.5553 83.5295 31.6468C83.5295 39.7384 90.089 46.2978 98.1805 46.2978Z" fill="#F8A45B"/>
<path d="M136.599 271.156C135.944 271.156 135.316 271.359 134.854 271.721C134.391 272.083 134.131 272.574 134.131 273.086C134.131 273.598 134.391 274.089 134.854 274.451C135.316 274.813 135.944 275.016 136.599 275.016H186.666C187.32 275.016 187.948 274.813 188.411 274.451C188.874 274.089 189.134 273.598 189.134 273.086C189.134 272.574 188.874 272.083 188.411 271.721C187.948 271.359 187.32 271.156 186.666 271.156H136.599Z" fill="#E6E6E6"/>
<path d="M136.603 282.736C136.279 282.735 135.957 282.785 135.657 282.882C135.357 282.978 135.085 283.12 134.855 283.3C134.625 283.479 134.443 283.692 134.319 283.926C134.195 284.161 134.131 284.412 134.131 284.666C134.131 284.919 134.195 285.171 134.319 285.405C134.443 285.639 134.625 285.852 134.855 286.032C135.085 286.211 135.357 286.353 135.657 286.45C135.957 286.546 136.279 286.596 136.603 286.596H186.666C187.32 286.596 187.948 286.392 188.411 286.03C188.874 285.668 189.134 285.177 189.134 284.666C189.134 284.154 188.874 283.663 188.411 283.301C187.948 282.939 187.32 282.736 186.666 282.736H136.603Z" fill="#E6E6E6"/>
</svg>
