<svg width="362" height="254" viewBox="0 0 362 254" fill="none" xmlns="http://www.w3.org/2000/svg">
<path d="M295.786 159.217H62.2003C60.6058 159.215 59.0771 158.582 57.9496 157.457C56.8221 156.332 56.1878 154.807 56.186 153.216V9.50244C56.1873 8.33687 56.652 7.2194 57.478 6.39519C58.304 5.57099 59.4239 5.10736 60.5921 5.10602H297.318C298.506 5.10737 299.646 5.579 300.486 6.41746C301.326 7.25591 301.799 8.39271 301.8 9.57845V153.216C301.798 154.807 301.164 156.332 300.037 157.457C298.909 158.582 297.381 159.215 295.786 159.217Z" fill="#F2F2F2"/>
<path d="M287.196 150.388H69.9871C66.803 150.388 64.2126 147.971 64.2126 145.001V20.338C64.2126 18.1353 66.1322 16.3432 68.4916 16.3432H288.621C291.02 16.3432 292.971 18.1649 292.971 20.4038V145.001C292.971 147.971 290.381 150.388 287.196 150.388Z" fill="white"/>
<path d="M301.8 9.11931H56.186V6.14661C56.1883 4.59341 56.8252 3.10453 57.9568 2.00659C59.0884 0.908648 60.6223 0.291322 62.2222 0.290039H295.764C297.364 0.291315 298.898 0.908638 300.03 2.00658C301.161 3.10452 301.798 4.59341 301.8 6.14661V9.11931Z" fill="#CCCCCC"/>
<path d="M67.4234 5.9087C68.31 5.9087 69.0288 5.18998 69.0288 4.30338C69.0288 3.41679 68.31 2.69806 67.4234 2.69806C66.5368 2.69806 65.8181 3.41679 65.8181 4.30338C65.8181 5.18998 66.5368 5.9087 67.4234 5.9087Z" fill="white"/>
<path d="M73.0421 5.9087C73.9287 5.9087 74.6474 5.18998 74.6474 4.30338C74.6474 3.41679 73.9287 2.69806 73.0421 2.69806C72.1555 2.69806 71.4368 3.41679 71.4368 4.30338C71.4368 5.18998 72.1555 5.9087 73.0421 5.9087Z" fill="white"/>
<path d="M79.4632 5.9087C80.3498 5.9087 81.0686 5.18998 81.0686 4.30338C81.0686 3.41679 80.3498 2.69806 79.4632 2.69806C78.5766 2.69806 77.8579 3.41679 77.8579 4.30338C77.8579 5.18998 78.5766 5.9087 79.4632 5.9087Z" fill="white"/>
<path d="M263.317 129.518H94.6693C92.9787 129.517 91.3579 128.845 90.1625 127.652C88.9671 126.458 88.2946 124.84 88.2927 123.152V41.9737C88.2941 40.7114 88.797 39.5012 89.6911 38.6086C90.5851 37.716 91.7973 37.2139 93.0617 37.2125H264.849C266.133 37.2139 267.365 37.7241 268.273 38.6309C269.182 39.5378 269.693 40.7673 269.694 42.0498V123.152C269.692 124.84 269.02 126.458 267.824 127.652C266.629 128.845 265.008 129.517 263.317 129.518ZM93.0617 37.94C91.9905 37.9412 90.9635 38.3666 90.2061 39.1228C89.4487 39.879 89.0227 40.9043 89.0215 41.9737V123.152C89.0232 124.647 89.6187 126.08 90.6776 127.138C91.7364 128.195 93.1719 128.789 94.6693 128.791H263.317C264.815 128.789 266.25 128.195 267.309 127.138C268.368 126.08 268.964 124.647 268.965 123.152V42.0498C268.964 40.9602 268.53 39.9156 267.758 39.1451C266.987 38.3747 265.94 37.9413 264.849 37.94H93.0617Z" fill="#CCCCCC"/>
<path d="M100.541 123.097H257.446C258.991 123.097 260.473 122.484 261.566 121.393C262.659 120.302 263.273 118.823 263.273 117.28V49.4513C263.273 47.9084 262.659 46.4287 261.566 45.3377C260.473 44.2466 258.991 43.6337 257.446 43.6337H100.541C98.9957 43.6337 97.5136 44.2466 96.4208 45.3377C95.328 46.4287 94.7141 47.9084 94.7141 49.4513V117.28C94.7141 118.823 95.328 120.302 96.4208 121.393C97.5136 122.484 98.9957 123.097 100.541 123.097Z" fill="#F2F2F2"/>
<path d="M118.794 63.7002C120.567 63.7002 122.005 62.2628 122.005 60.4896C122.005 58.7164 120.567 57.2789 118.794 57.2789C117.021 57.2789 115.583 58.7164 115.583 60.4896C115.583 62.2628 117.021 63.7002 118.794 63.7002Z" fill="#CCCCCC"/>
<path d="M118.794 75.7401C120.567 75.7401 122.005 74.3027 122.005 72.5295C122.005 70.7563 120.567 69.3188 118.794 69.3188C117.021 69.3188 115.583 70.7563 115.583 72.5295C115.583 74.3027 117.021 75.7401 118.794 75.7401Z" fill="#CCCCCC"/>
<path d="M118.794 88.5827C120.567 88.5827 122.005 87.1453 122.005 85.3721C122.005 83.5989 120.567 82.1614 118.794 82.1614C117.021 82.1614 115.583 83.5989 115.583 85.3721C115.583 87.1453 117.021 88.5827 118.794 88.5827Z" fill="#CCCCCC"/>
<path d="M118.794 100.623C120.567 100.623 122.005 99.1852 122.005 97.412C122.005 95.6388 120.567 94.2014 118.794 94.2014C117.021 94.2014 115.583 95.6388 115.583 97.412C115.583 99.1852 117.021 100.623 118.794 100.623Z" fill="#CCCCCC"/>
<path d="M242.843 60.4896H135.211C135.114 60.4896 135.022 60.4473 134.953 60.372C134.885 60.2967 134.847 60.1947 134.847 60.0882C134.847 59.9818 134.885 59.8797 134.953 59.8044C135.022 59.7292 135.114 59.6869 135.211 59.6869H242.843C242.939 59.6869 243.031 59.7292 243.1 59.8044C243.168 59.8797 243.206 59.9818 243.206 60.0882C243.206 60.1947 243.168 60.2967 243.1 60.372C243.031 60.4473 242.939 60.4896 242.843 60.4896Z" fill="#CCCCCC"/>
<path d="M242.843 73.3322H135.211C135.114 73.3322 135.022 73.2899 134.953 73.2147C134.885 73.1394 134.847 73.0373 134.847 72.9309C134.847 72.8244 134.885 72.7224 134.953 72.6471C135.022 72.5718 135.114 72.5295 135.211 72.5295H242.843C242.939 72.5295 243.031 72.5718 243.1 72.6471C243.168 72.7224 243.206 72.8244 243.206 72.9309C243.206 73.0373 243.168 73.1394 243.1 73.2147C243.031 73.2899 242.939 73.3322 242.843 73.3322Z" fill="#CCCCCC"/>
<path d="M242.843 85.3721H135.211C135.114 85.3721 135.022 85.3298 134.953 85.2546C134.885 85.1793 134.847 85.0772 134.847 84.9708C134.847 84.8643 134.885 84.7623 134.953 84.687C135.022 84.6117 135.114 84.5695 135.211 84.5695H242.843C242.939 84.5695 243.031 84.6117 243.1 84.687C243.168 84.7623 243.206 84.8643 243.206 84.9708C243.206 85.0772 243.168 85.1793 243.1 85.2546C243.031 85.3298 242.939 85.3721 242.843 85.3721Z" fill="#CCCCCC"/>
<path d="M242.843 98.2146H135.211C135.114 98.2146 135.022 98.1724 134.953 98.0971C134.885 98.0218 134.847 97.9198 134.847 97.8133C134.847 97.7069 134.885 97.6048 134.953 97.5295C135.022 97.4543 135.114 97.412 135.211 97.412H242.843C242.939 97.412 243.031 97.4543 243.1 97.5295C243.168 97.6048 243.206 97.7069 243.206 97.8133C243.206 97.9198 243.168 98.0218 243.1 98.0971C243.031 98.1724 242.939 98.2146 242.843 98.2146Z" fill="#CCCCCC"/>
<path d="M155.469 110.255H144.726C144.235 110.254 143.764 110.06 143.417 109.714C143.07 109.368 142.874 108.9 142.874 108.411V98.4533C142.874 97.9645 143.07 97.4958 143.417 97.1501C143.764 96.8044 144.235 96.6099 144.726 96.6094H155.469C155.96 96.6099 156.431 96.8044 156.779 97.1501C157.126 97.4958 157.321 97.9645 157.322 98.4533V108.411C157.321 108.9 157.126 109.368 156.779 109.714C156.431 110.06 155.96 110.254 155.469 110.255Z" fill="#97B8D7"/>
<path d="M178.746 110.255H168.003C167.512 110.254 167.041 110.063 166.694 109.724C166.347 109.385 166.151 108.925 166.151 108.446V86.3783C166.151 85.8987 166.347 85.439 166.694 85.0999C167.041 84.7608 167.512 84.57 168.003 84.5695H178.746C179.237 84.57 179.708 84.7608 180.055 85.0999C180.403 85.439 180.598 85.8987 180.599 86.3783V108.446C180.598 108.925 180.403 109.385 180.055 109.724C179.708 110.063 179.237 110.254 178.746 110.255Z" fill="#97B8D7"/>
<path d="M202.826 110.255H192.083C191.592 110.254 191.121 110.061 190.774 109.717C190.427 109.373 190.231 108.906 190.231 108.42V73.5615C190.231 73.0751 190.427 72.6087 190.774 72.2648C191.121 71.9208 191.592 71.7274 192.083 71.7268H202.826C203.317 71.7274 203.788 71.9208 204.135 72.2648C204.483 72.6087 204.678 73.0751 204.679 73.5615V108.42C204.678 108.906 204.483 109.373 204.135 109.717C203.788 110.061 203.317 110.254 202.826 110.255Z" fill="#97B8D7"/>
<path d="M227.709 110.255H216.965C216.474 110.254 216.003 110.061 215.656 109.717C215.309 109.374 215.114 108.908 215.113 108.422V61.5191C215.114 61.0333 215.309 60.5676 215.656 60.2241C216.003 59.8807 216.474 59.6874 216.965 59.6869H227.709C228.2 59.6874 228.671 59.8807 229.018 60.2241C229.365 60.5676 229.56 61.0333 229.561 61.5191V108.422C229.56 108.908 229.365 109.374 229.018 109.717C228.671 110.061 228.2 110.254 227.709 110.255Z" fill="#97B8D7"/>
<path d="M242.843 110.255H135.211C135.114 110.255 135.022 110.212 134.953 110.137C134.885 110.062 134.847 109.96 134.847 109.853C134.847 109.747 134.885 109.645 134.953 109.569C135.022 109.494 135.114 109.452 135.211 109.452H242.843C242.939 109.452 243.031 109.494 243.1 109.569C243.168 109.645 243.206 109.747 243.206 109.853C243.206 109.96 243.168 110.062 243.1 110.137C243.031 110.212 242.939 110.255 242.843 110.255Z" fill="#3F3D56"/>
<path d="M289.577 178.132C289.871 177.667 290.258 177.275 290.711 176.983C291.165 176.692 291.674 176.508 292.203 176.445C292.731 176.382 293.267 176.441 293.771 176.619C294.276 176.796 294.737 177.087 295.123 177.471L306.617 171.257L305.902 178.258L295.096 183.086C294.437 183.721 293.579 184.082 292.683 184.099C291.787 184.116 290.917 183.788 290.237 183.177C289.556 182.566 289.113 181.716 288.992 180.786C288.87 179.856 289.079 178.912 289.577 178.132Z" fill="#FFB8B8"/>
<path d="M300.099 180.542C299.843 180.337 299.654 180.057 299.557 179.74L298.66 176.783C298.564 176.462 298.566 176.119 298.667 175.8C298.768 175.481 298.962 175.202 299.224 174.999L308.367 167.953L318.268 149.209C318.683 148.664 319.199 148.208 319.787 147.866C320.374 147.524 321.022 147.304 321.693 147.218C322.364 147.132 323.045 147.182 323.697 147.364C324.349 147.546 324.96 147.858 325.494 148.281C326.028 148.704 326.475 149.231 326.81 149.83C327.145 150.43 327.361 151.091 327.445 151.776C327.53 152.46 327.481 153.155 327.302 153.821C327.123 154.486 326.818 155.109 326.403 155.654L320.77 167.786C319.06 171.468 316.099 174.392 312.435 176.012L301.721 180.754C301.514 180.845 301.292 180.891 301.067 180.889C300.843 180.886 300.621 180.836 300.417 180.74C300.304 180.687 300.197 180.62 300.099 180.542Z" fill="#EE6A76"/>
<path d="M327.084 141.558C332.182 141.558 336.315 137.426 336.315 132.328C336.315 127.23 332.182 123.097 327.084 123.097C321.986 123.097 317.854 127.23 317.854 132.328C317.854 137.426 321.986 141.558 327.084 141.558Z" fill="#FFB8B8"/>
<path d="M323.471 249.918L319.12 249.917L317.051 232.259L323.472 232.259L323.471 249.918Z" fill="#FFB8B8"/>
<path d="M315.902 248.312H324.275V253.931H310.63C310.63 253.193 310.766 252.462 311.031 251.781C311.296 251.099 311.684 250.48 312.174 249.958C312.664 249.436 313.245 249.022 313.884 248.74C314.524 248.458 315.21 248.312 315.902 248.312Z" fill="#2F2E41"/>
<path d="M337.919 249.918L333.568 249.917L331.499 232.259L337.92 232.26L337.919 249.918Z" fill="#FFB8B8"/>
<path d="M330.349 248.312H338.723V253.931H325.077C325.077 253.193 325.214 252.462 325.479 251.781C325.744 251.099 326.132 250.48 326.622 249.958C327.111 249.436 327.692 249.022 328.332 248.74C328.972 248.458 329.657 248.312 330.349 248.312Z" fill="#2F2E41"/>
<path d="M337.911 245.102L332.755 245.101C332.4 245.101 332.055 244.982 331.773 244.764C331.491 244.546 331.288 244.241 331.195 243.895L323.774 216.093C323.762 216.049 323.735 216.012 323.698 215.988C323.661 215.963 323.616 215.954 323.572 215.961C323.528 215.968 323.488 215.992 323.461 216.027C323.433 216.062 323.419 216.106 323.422 216.151L324.921 242.518C324.934 242.751 324.898 242.984 324.814 243.202C324.73 243.419 324.601 243.616 324.436 243.779C324.27 243.942 324.072 244.068 323.854 244.146C323.636 244.225 323.405 244.256 323.174 244.237L317.379 243.748C317.008 243.716 316.659 243.556 316.391 243.294C316.123 243.032 315.953 242.685 315.909 242.312L310.63 186.946L312.672 188.184L331.811 184.902L339.512 243.255C339.542 243.485 339.523 243.72 339.457 243.942C339.39 244.165 339.277 244.37 339.126 244.545C338.974 244.72 338.787 244.86 338.578 244.956C338.368 245.052 338.141 245.102 337.911 245.102Z" fill="#121535"/>
<path d="M316.803 192.929C314.63 192.912 312.501 192.323 310.638 191.225C310.351 191.058 310.123 190.81 309.982 190.513C309.841 190.216 309.795 189.885 309.85 189.561C310.542 185.397 314.165 164.034 317.46 152.387C318.803 147.644 321.771 145.089 326.282 144.794C332.881 144.369 338.747 149.437 339.357 156.106C340.435 167.871 336.058 184.586 334.126 191.227C334.052 191.483 333.914 191.718 333.725 191.91C333.536 192.102 333.302 192.245 333.044 192.328C332.786 192.41 332.511 192.429 332.243 192.383C331.975 192.337 331.723 192.227 331.509 192.063L327.571 189.056C327.329 188.874 327.03 188.781 326.725 188.794C326.42 188.806 326.13 188.923 325.904 189.124C322.585 192.03 319.432 192.929 316.803 192.929Z" fill="#EE6A76"/>
<path opacity="0.2" d="M329.771 161.625L333.104 175.569L328.288 187.31L331.623 175.936L329.771 161.625Z" fill="black"/>
<path d="M332.273 139.952C333.059 139.967 333.841 139.824 334.573 139.532C334.895 139.407 335.229 139.304 335.551 139.179C338.389 138.072 340.259 135.021 340.326 131.951C340.393 128.881 338.818 125.901 336.479 123.937C334.139 121.973 331.109 120.965 328.075 120.732C324.807 120.48 321.127 121.316 319.3 124.063C318.814 124.794 318.474 125.681 318.762 126.564C318.849 126.831 319.003 127.07 319.209 127.257C320.025 127.989 320.838 127.439 321.669 127.39C322.812 127.323 323.838 128.257 324.207 129.351C324.576 130.444 324.414 131.648 324.116 132.764C323.889 133.435 323.746 134.132 323.69 134.839C323.666 135.193 323.732 135.548 323.882 135.87C324.032 136.191 324.26 136.469 324.546 136.676C325.26 137.112 326.198 136.86 326.913 136.425C327.627 135.99 328.245 135.385 329.016 135.065C329.788 134.745 330.825 134.816 331.274 135.526C331.417 135.784 331.514 136.066 331.56 136.358C331.962 138.209 331.87 138.1 332.273 139.952Z" fill="#BAD0E4"/>
<path d="M318.412 236.863L262.628 217.374C261.67 217.039 260.885 216.336 260.444 215.42C260.002 214.504 259.941 213.45 260.274 212.489L274.77 170.734C275.015 170.031 275.528 169.454 276.197 169.129C276.866 168.805 277.636 168.76 278.338 169.004L336.008 189.151C336.721 189.401 337.307 189.925 337.636 190.608C337.965 191.29 338.01 192.076 337.762 192.792L323.282 234.501C322.947 235.462 322.247 236.249 321.334 236.692C320.421 237.135 319.37 237.196 318.412 236.863Z" fill="#E6E6E6"/>
<path d="M267.349 215.132L315.785 232.053C316.707 232.376 317.719 232.317 318.599 231.891C319.478 231.464 320.152 230.705 320.474 229.78L332.097 196.299C332.418 195.373 332.359 194.358 331.934 193.476C331.509 192.594 330.752 191.917 329.83 191.595L281.395 174.673C280.472 174.351 279.46 174.409 278.581 174.836C277.701 175.262 277.027 176.021 276.706 176.947L265.083 210.428C264.924 210.886 264.856 211.371 264.884 211.855C264.912 212.34 265.035 212.814 265.245 213.251C265.455 213.687 265.75 214.078 266.111 214.401C266.472 214.724 266.893 214.972 267.349 215.132Z" fill="white"/>
<path d="M279.498 191.296L277.245 190.512C277.123 190.469 277.023 190.38 276.967 190.263C276.91 190.147 276.903 190.013 276.945 189.89L277.73 187.637C277.772 187.515 277.862 187.415 277.978 187.359C278.095 187.302 278.229 187.295 278.351 187.337L280.604 188.122C280.726 188.164 280.826 188.254 280.883 188.37C280.939 188.487 280.947 188.621 280.904 188.743L280.12 190.996C280.077 191.118 279.988 191.218 279.871 191.275C279.755 191.331 279.621 191.339 279.498 191.296Z" fill="#97B8D7"/>
<path d="M277.09 197.718L274.837 196.933C274.715 196.89 274.615 196.801 274.559 196.684C274.502 196.568 274.495 196.434 274.537 196.312L275.322 194.059C275.364 193.937 275.454 193.836 275.57 193.78C275.687 193.724 275.821 193.716 275.943 193.758L278.196 194.543C278.318 194.586 278.418 194.675 278.475 194.792C278.531 194.908 278.539 195.042 278.496 195.164L277.712 197.417C277.669 197.539 277.58 197.64 277.463 197.696C277.347 197.752 277.213 197.76 277.09 197.718Z" fill="#3F3D56"/>
<path d="M274.682 204.139L272.429 203.354C272.307 203.312 272.207 203.222 272.151 203.106C272.094 202.989 272.086 202.855 272.129 202.733L272.913 200.48C272.956 200.358 273.045 200.258 273.162 200.201C273.278 200.145 273.413 200.137 273.535 200.18L275.788 200.964C275.91 201.007 276.01 201.096 276.066 201.213C276.123 201.329 276.131 201.463 276.088 201.586L275.303 203.839C275.261 203.961 275.171 204.061 275.055 204.117C274.938 204.174 274.804 204.181 274.682 204.139Z" fill="#CCCCCC"/>
<path d="M295.477 196.107L283.696 191.642C283.63 191.617 283.57 191.578 283.517 191.528C283.465 191.478 283.423 191.417 283.392 191.349C283.362 191.28 283.344 191.206 283.34 191.131C283.336 191.055 283.346 190.979 283.369 190.907C283.392 190.836 283.427 190.77 283.474 190.713C283.52 190.657 283.576 190.611 283.639 190.578C283.702 190.545 283.77 190.526 283.84 190.522C283.909 190.517 283.979 190.528 284.044 190.553L295.825 195.018C295.891 195.043 295.952 195.082 296.004 195.132C296.056 195.182 296.098 195.243 296.129 195.311C296.159 195.38 296.177 195.454 296.181 195.529C296.185 195.605 296.175 195.681 296.152 195.753C296.13 195.824 296.094 195.89 296.048 195.947C296.001 196.003 295.945 196.049 295.882 196.082C295.819 196.115 295.751 196.134 295.682 196.138C295.612 196.143 295.543 196.132 295.477 196.107Z" fill="#CCCCCC"/>
<path d="M293.113 201.73L282.067 197.903C281.943 197.859 281.841 197.769 281.783 197.651C281.726 197.533 281.718 197.397 281.762 197.274C281.805 197.15 281.896 197.048 282.014 196.991C282.133 196.934 282.269 196.926 282.394 196.969L293.44 200.797C293.501 200.818 293.558 200.851 293.607 200.894C293.656 200.938 293.696 200.99 293.724 201.048C293.753 201.107 293.769 201.17 293.773 201.235C293.777 201.3 293.768 201.365 293.746 201.426C293.725 201.488 293.691 201.544 293.648 201.593C293.604 201.641 293.552 201.681 293.493 201.709C293.434 201.737 293.37 201.754 293.305 201.757C293.24 201.761 293.175 201.752 293.113 201.73Z" fill="#CCCCCC"/>
<path d="M291.465 208.152L279.682 204.324C279.549 204.281 279.44 204.19 279.379 204.072C279.318 203.954 279.309 203.819 279.356 203.695C279.402 203.571 279.499 203.469 279.625 203.412C279.752 203.355 279.897 203.348 280.03 203.391L291.813 207.218C291.946 207.262 292.055 207.352 292.116 207.47C292.177 207.588 292.185 207.724 292.139 207.848C292.093 207.971 291.996 208.073 291.87 208.13C291.743 208.187 291.597 208.195 291.465 208.152Z" fill="#CCCCCC"/>
<path d="M322.62 212.193C322.705 211.98 322.785 211.764 322.859 211.543C323.82 208.671 323.646 205.519 322.374 202.781C321.102 200.043 318.838 197.942 316.078 196.942L312.235 208.428L322.62 212.193Z" fill="#97B8D7"/>
<path d="M310.833 208.823L314.619 197.567C312.618 196.846 310.457 196.746 308.403 197.281C306.348 197.816 304.489 198.962 303.056 200.577C301.623 202.192 300.677 204.207 300.336 206.372C299.996 208.537 300.274 210.758 301.138 212.761C302.002 214.764 303.413 216.461 305.198 217.644C306.982 218.826 309.062 219.442 311.18 219.416C313.299 219.389 315.364 218.721 317.12 217.494C318.876 216.268 320.247 214.535 321.064 212.511L310.833 208.823Z" fill="#3F3D56"/>
<path d="M324.288 192.86C324.242 192.347 324.32 191.83 324.516 191.347C324.711 190.864 325.02 190.427 325.419 190.065C325.819 189.703 326.301 189.426 326.83 189.253C327.359 189.081 327.923 189.017 328.481 189.066L334.162 177.678L337.921 183.197L331.95 193.165C331.798 194.021 331.309 194.797 330.576 195.344C329.842 195.892 328.916 196.173 327.971 196.136C327.027 196.098 326.13 195.744 325.452 195.14C324.773 194.537 324.359 193.725 324.288 192.86Z" fill="#FFB8B8"/>
<path d="M333.756 188.915C333.429 188.915 333.111 188.813 332.843 188.623L330.342 186.846C330.071 186.653 329.865 186.379 329.751 186.062C329.637 185.744 329.621 185.399 329.705 185.072L332.645 173.673L329.091 152.509C329.087 151.812 329.216 151.122 329.473 150.477C329.729 149.832 330.106 149.245 330.583 148.75C331.06 148.254 331.628 147.861 332.253 147.591C332.879 147.321 333.55 147.18 334.228 147.177C334.907 147.174 335.579 147.308 336.207 147.571C336.835 147.835 337.407 148.223 337.888 148.713C338.37 149.204 338.753 149.787 339.015 150.429C339.277 151.072 339.414 151.761 339.416 152.457L342.328 165.663C343.212 169.671 342.648 173.873 340.741 177.486L335.164 188.054C335.057 188.257 334.909 188.435 334.73 188.575C334.552 188.716 334.346 188.817 334.127 188.87C334.006 188.9 333.881 188.915 333.756 188.915Z" fill="#EE6A76"/>
<path d="M361.636 253.931H292.532C292.436 253.931 292.343 253.889 292.275 253.813C292.207 253.738 292.168 253.636 292.168 253.53C292.168 253.423 292.207 253.321 292.275 253.246C292.343 253.17 292.436 253.128 292.532 253.128H361.636C361.733 253.128 361.825 253.17 361.893 253.246C361.962 253.321 362 253.423 362 253.53C362 253.636 361.962 253.738 361.893 253.813C361.825 253.889 361.733 253.931 361.636 253.931Z" fill="#CCCCCC"/>
<path d="M178.192 249.115L183.086 249.115L185.415 232.259H178.191L178.192 249.115Z" fill="#A0616A"/>
<path d="M177.388 248.313L186.212 248.312C186.951 248.312 187.682 248.453 188.365 248.726C189.047 249 189.667 249.401 190.189 249.906C190.711 250.411 191.125 251.011 191.408 251.671C191.691 252.331 191.836 253.039 191.836 253.753V253.93L177.388 253.931L177.388 248.313Z" fill="#2F2E41"/>
<path d="M160.533 249.115L164.884 249.115L166.954 232.259H160.532L160.533 249.115Z" fill="#A0616A"/>
<path d="M159.729 248.313L168.554 248.312C169.292 248.312 170.024 248.453 170.706 248.726C171.388 249 172.008 249.401 172.53 249.906C173.053 250.411 173.467 251.011 173.749 251.671C174.032 252.331 174.177 253.039 174.177 253.753V253.93L159.73 253.931L159.729 248.313Z" fill="#2F2E41"/>
<path d="M179.394 130.321C184.492 130.321 188.625 126.368 188.625 121.492C188.625 116.616 184.492 112.663 179.394 112.663C174.297 112.663 170.164 116.616 170.164 121.492C170.164 126.368 174.297 130.321 179.394 130.321Z" fill="#A0616A"/>
<path d="M185.089 245.904H176.809C176.593 245.904 176.378 245.861 176.178 245.777C175.978 245.694 175.797 245.571 175.644 245.416C175.492 245.262 175.372 245.078 175.291 244.877C175.21 244.675 175.169 244.46 175.172 244.243L175.653 204.831C175.655 204.691 175.603 204.555 175.508 204.452C175.413 204.35 175.283 204.287 175.144 204.278C175.004 204.268 174.867 204.313 174.759 204.402C174.651 204.491 174.582 204.619 174.565 204.758L169.746 244.461C169.698 244.859 169.506 245.225 169.206 245.491C168.907 245.757 168.521 245.904 168.121 245.904H159.762C159.536 245.904 159.312 245.857 159.106 245.767C158.899 245.676 158.713 245.543 158.559 245.377C158.406 245.211 158.289 245.015 158.215 244.801C158.141 244.587 158.111 244.36 158.129 244.135L163.649 173.332L163.799 173.316L190.23 170.454L186.725 244.341C186.705 244.762 186.524 245.16 186.22 245.451C185.915 245.742 185.51 245.905 185.089 245.904Z" fill="#121535"/>
<path d="M164.626 177.678C164.207 177.677 163.805 177.511 163.505 177.215C163.204 176.918 163.029 176.515 163.016 176.09C162.874 171.619 162.63 156.148 165.466 144.79C166.24 141.688 167.977 138.92 170.421 136.896C172.865 134.873 175.885 133.701 179.036 133.554C182.138 133.382 185.213 134.206 187.828 135.908C190.442 137.609 192.461 140.103 193.6 143.036C198.367 155.316 202.87 170.452 197.255 172.826C189.896 175.937 170.496 177.324 164.726 177.675C164.692 177.677 164.659 177.678 164.626 177.678Z" fill="#EE6A76"/>
<path d="M198.592 112.656C198.731 112.8 198.881 112.932 199.041 113.051L198.112 130.933L194.244 132.915L196.469 139.15L203.657 136.307C204.237 136.077 204.728 135.665 205.055 135.132C205.381 134.6 205.527 133.976 205.469 133.353L203.586 113.069C204.202 112.609 204.664 111.972 204.909 111.242C205.155 110.513 205.173 109.726 204.961 108.986C204.749 108.246 204.317 107.589 203.723 107.101C203.129 106.613 202.4 106.317 201.634 106.254C200.868 106.191 200.1 106.362 199.434 106.746C198.768 107.13 198.234 107.708 197.904 108.403C197.574 109.098 197.463 109.877 197.586 110.637C197.709 111.397 198.06 112.101 198.592 112.656Z" fill="#A0616A"/>
<path d="M197.864 131.413L200.573 139.202C200.651 139.423 200.68 139.659 200.658 139.893C200.637 140.127 200.567 140.354 200.451 140.558C200.336 140.761 200.178 140.938 199.989 141.074C199.8 141.211 199.584 141.305 199.356 141.35L191.368 142.915C190.245 143.307 189.014 143.233 187.945 142.709C186.876 142.185 186.056 141.253 185.665 140.118C185.274 138.983 185.343 137.737 185.859 136.654C186.374 135.571 187.293 134.739 188.414 134.34L195.586 130.51C195.792 130.4 196.018 130.337 196.25 130.324C196.482 130.31 196.714 130.348 196.93 130.434C197.146 130.52 197.341 130.651 197.503 130.82C197.664 130.989 197.787 131.192 197.864 131.413Z" fill="#EE6A76"/>
<path d="M159.395 112.657C159.256 112.8 159.105 112.932 158.945 113.051L159.875 130.933L163.743 132.916L161.517 139.15L154.33 136.307C153.75 136.077 153.259 135.665 152.932 135.133C152.605 134.6 152.46 133.976 152.518 133.353L154.401 113.069C153.784 112.609 153.323 111.972 153.077 111.242C152.832 110.513 152.814 109.726 153.026 108.986C153.238 108.247 153.669 107.589 154.264 107.101C154.858 106.613 155.587 106.317 156.353 106.254C157.119 106.191 157.886 106.363 158.553 106.746C159.219 107.13 159.753 107.708 160.083 108.403C160.413 109.098 160.524 109.878 160.401 110.637C160.278 111.397 159.927 112.101 159.395 112.657Z" fill="#A0616A"/>
<path d="M161.057 130.434C161.273 130.348 161.505 130.31 161.737 130.324C161.969 130.337 162.195 130.4 162.4 130.51L169.573 134.34C170.693 134.739 171.612 135.571 172.128 136.654C172.643 137.737 172.713 138.983 172.322 140.118C171.931 141.253 171.111 142.185 170.041 142.709C168.972 143.233 167.741 143.307 166.618 142.915L158.63 141.35C158.402 141.305 158.186 141.211 157.997 141.074C157.808 140.938 157.651 140.761 157.535 140.558C157.42 140.354 157.349 140.127 157.328 139.893C157.307 139.659 157.336 139.424 157.413 139.202L160.122 131.413C160.199 131.192 160.322 130.989 160.484 130.82C160.645 130.651 160.84 130.52 161.057 130.434Z" fill="#EE6A76"/>
<path d="M183.119 123.081C183.072 121.933 183.357 120.797 183.939 119.811C184.521 118.825 185.374 118.031 186.395 117.527C189.1 116.115 190.799 113.105 190.055 110.356C189.102 106.837 184.363 104.555 180.523 105.766C179.484 106.139 178.482 106.61 177.53 107.172L175.021 108.531C173.95 109.073 172.917 109.689 171.929 110.376C170.45 111.477 169.291 112.96 168.573 114.669C167.854 116.377 167.603 118.25 167.846 120.09C168.34 123.667 170.658 126.948 173.831 129.194C175.044 130.11 176.446 130.74 177.932 131.036C179.453 131.29 181.146 131.002 182.258 130.046C183.996 128.552 183.816 126.05 183.254 123.961C183.18 123.673 183.135 123.378 183.119 123.081Z" fill="#2F2E41"/>
<path d="M213.144 253.931H144.04C143.943 253.931 143.851 253.889 143.783 253.813C143.714 253.738 143.676 253.636 143.676 253.53C143.676 253.423 143.714 253.321 143.783 253.246C143.851 253.17 143.943 253.128 144.04 253.128H213.144C213.24 253.128 213.333 253.17 213.401 253.246C213.469 253.321 213.508 253.423 213.508 253.53C213.508 253.636 213.469 253.738 213.401 253.813C213.333 253.889 213.24 253.931 213.144 253.931Z" fill="#CCCCCC"/>
<path d="M100.257 187.764L43.0288 211.093C42.046 211.493 40.9439 211.488 39.9642 211.081C38.9846 210.674 38.2075 209.898 37.8034 208.922L20.285 166.49C19.9905 165.775 19.9937 164.973 20.2938 164.259C20.5939 163.546 21.1665 162.98 21.8858 162.686L81.0486 138.569C81.7811 138.271 82.6025 138.274 83.3326 138.578C84.0626 138.881 84.6418 139.46 84.943 140.187L102.442 182.572C102.844 183.549 102.84 184.644 102.43 185.617C102.02 186.591 101.239 187.363 100.257 187.764Z" fill="#E6E6E6"/>
<path d="M45.2658 205.481L95.5054 185.008C96.4621 184.618 97.2237 183.866 97.6227 182.919C98.0216 181.971 98.0253 180.905 97.6328 179.954L83.4309 145.567C83.2366 145.096 82.9508 144.668 82.59 144.307C82.2292 143.946 81.8003 143.66 81.328 143.463C80.8556 143.267 80.3489 143.165 79.8369 143.164C79.3249 143.162 78.8175 143.26 78.3438 143.453L28.1042 163.927C27.6305 164.12 27.1997 164.404 26.8364 164.762C26.4731 165.121 26.1845 165.547 25.9869 166.016C25.7894 166.485 25.6868 166.989 25.6851 167.497C25.6833 168.006 25.7825 168.51 25.9768 168.98L40.1787 203.368C40.373 203.839 40.6587 204.267 41.0196 204.627C41.3804 204.988 41.8092 205.275 42.2816 205.471C42.754 205.667 43.2607 205.769 43.7727 205.771C44.2847 205.773 44.7921 205.674 45.2658 205.481Z" fill="white"/>
<path d="M83.0226 155.275L82.2893 155.576L82.3394 155.698L83.0727 155.397L83.0226 155.275Z" fill="#E6E6E6"/>
<path d="M81.0687 156.13L79.5686 156.748L79.5178 156.624L81.0179 156.006L81.0687 156.13ZM78.0685 157.365L76.5684 157.983L76.5176 157.858L78.0177 157.241L78.0685 157.365ZM75.0683 158.6L73.5682 159.217L73.5174 159.093L75.0175 158.476L75.0683 158.6ZM72.068 159.835L70.5679 160.452L70.5172 160.328L72.0173 159.711L72.068 159.835ZM69.0678 161.07L67.5677 161.687L67.5169 161.563L69.017 160.945L69.0678 161.07ZM66.0676 162.304L64.5675 162.922L64.5167 162.798L66.0168 162.18L66.0676 162.304ZM63.0674 163.539L61.5673 164.157L61.5165 164.033L63.0166 163.415L63.0674 163.539ZM60.0671 164.774L58.567 165.392L58.5163 165.267L60.0164 164.65L60.0671 164.774ZM57.0669 166.009L55.5668 166.626L55.516 166.502L57.0161 165.885L57.0669 166.009ZM54.0667 167.244L52.5666 167.861L52.5158 167.737L54.0159 167.12L54.0667 167.244ZM51.0664 168.479L49.5663 169.096L49.5156 168.972L51.0157 168.354L51.0664 168.479ZM48.0662 169.713L46.5661 170.331L46.5153 170.207L48.0154 169.589L48.0662 169.713ZM45.066 170.948L43.5659 171.566L43.5151 171.441L45.0152 170.824L45.066 170.948ZM42.0658 172.183L40.5656 172.8L40.5149 172.676L42.015 172.059L42.0658 172.183ZM39.0655 173.418L37.5654 174.035L37.5147 173.911L39.0148 173.294L39.0655 173.418ZM36.0653 174.653L34.5652 175.27L34.5144 175.146L36.0145 174.529L36.0653 174.653Z" fill="#E6E6E6"/>
<path d="M33.4032 175.635L32.6699 175.936L32.7201 176.058L33.4533 175.757L33.4032 175.635Z" fill="#E6E6E6"/>
<path d="M63.609 176.521L62.8757 176.822L62.9259 176.944L63.6592 176.643L63.609 176.521Z" fill="#E6E6E6"/>
<path d="M61.8048 177.797L60.3099 178.377L60.2586 178.259L61.7535 177.678L61.8048 177.797ZM58.8151 178.958L57.3202 179.539L57.2688 179.42L58.7637 178.839L58.8151 178.958ZM55.8253 180.119L54.3305 180.7L54.2791 180.582L55.774 180.001L55.8253 180.119ZM52.8356 181.281L51.3407 181.862L51.2893 181.743L52.7842 181.162L52.8356 181.281ZM49.8458 182.442L48.3509 183.023L48.2996 182.904L49.7945 182.324L49.8458 182.442ZM46.856 183.604L45.3612 184.184L45.3098 184.066L46.8047 183.485L46.856 183.604ZM43.8663 184.765L42.3714 185.346L42.3201 185.227L43.8149 184.647L43.8663 184.765ZM40.8766 185.927L39.3817 186.507L39.3303 186.389L40.8252 185.808L40.8766 185.927Z" fill="#E6E6E6"/>
<path d="M38.0663 187.003L37.333 187.304L37.3831 187.426L38.1164 187.125L38.0663 187.003Z" fill="#E6E6E6"/>
<path d="M51.5162 187.767L50.783 188.068L50.8331 188.19L51.5664 187.889L51.5162 187.767Z" fill="#E6E6E6"/>
<path d="M48.9625 189.038L47.5273 189.655L47.4793 189.533L48.9145 188.915L48.9625 189.038ZM46.0921 190.273L44.6569 190.891L44.6089 190.768L46.0441 190.151L46.0921 190.273ZM43.2217 191.508L41.7864 192.126L41.7385 192.003L43.1737 191.386L43.2217 191.508Z" fill="#E6E6E6"/>
<path d="M40.2723 192.381L39.5391 192.682L39.5892 192.804L40.3225 192.503L40.2723 192.381Z" fill="#E6E6E6"/>
<path d="M55.2804 196.945L54.5471 197.246L54.5973 197.368L55.3305 197.067L55.2804 196.945Z" fill="#E6E6E6"/>
<path d="M52.9757 197.867L51.5405 198.485L51.4925 198.362L52.9277 197.745L52.9757 197.867ZM50.1052 199.102L48.67 199.72L48.6221 199.597L50.0573 198.98L50.1052 199.102ZM47.2348 200.338L45.7996 200.955L45.7517 200.833L47.1869 200.215L47.2348 200.338Z" fill="#E6E6E6"/>
<path d="M44.0367 201.559L43.3035 201.86L43.3536 201.982L44.0869 201.681L44.0367 201.559Z" fill="#E6E6E6"/>
<path d="M47.3569 200.153L89.7132 182.915C90.7383 182.496 91.5542 181.691 91.9819 180.677C92.4095 179.662 92.4141 178.521 91.9945 177.503L83.4366 156.809L83.3539 156.845L72.9597 181.5L65.2505 178.303C65.1083 178.243 64.9541 178.217 64.8 178.227C64.646 178.237 64.4963 178.281 64.3626 178.358C64.1618 178.478 64.0065 178.66 63.9207 178.876L58.4732 191.796L52.8367 189.459C52.7151 189.408 52.5847 189.382 52.4528 189.381C52.321 189.381 52.1903 189.406 52.0683 189.456C51.9464 189.506 51.8354 189.579 51.7419 189.671C51.6484 189.763 51.5741 189.873 51.5232 189.993C51.4872 190.081 48.0118 198.54 47.3569 200.153Z" fill="#97B8D7"/>
<path d="M47.4781 200.955L47.3569 200.904L51.6805 190.478C51.7949 190.202 52.013 189.984 52.2868 189.871C52.5605 189.758 52.8677 189.758 53.1408 189.873L58.6217 192.185L63.9946 179.228C64.1091 178.952 64.3271 178.734 64.6009 178.621C64.8747 178.508 65.1818 178.508 65.455 178.623L72.9918 181.802L83.3555 156.809L83.4767 156.86L73.0622 181.975L65.4043 178.746C65.285 178.695 65.157 178.669 65.0277 178.669C64.8983 178.668 64.7702 178.693 64.6505 178.743C64.5309 178.792 64.4221 178.865 64.3303 178.957C64.2385 179.049 64.1656 179.158 64.1157 179.279L58.6921 192.358L53.0902 189.996C52.8492 189.894 52.5782 189.893 52.3366 189.993C52.095 190.093 51.9026 190.286 51.8016 190.529L47.4781 200.955Z" fill="#3F3D56"/>
<path d="M51.3705 188.915C51.8138 188.915 52.1732 188.376 52.1732 187.711C52.1732 187.046 51.8138 186.507 51.3705 186.507C50.9272 186.507 50.5679 187.046 50.5679 187.711C50.5679 188.376 50.9272 188.915 51.3705 188.915Z" fill="#3F3D56"/>
<path d="M63.4103 177.678C63.8536 177.678 64.213 177.139 64.213 176.474C64.213 175.809 63.8536 175.27 63.4103 175.27C62.967 175.27 62.6077 175.809 62.6077 176.474C62.6077 177.139 62.967 177.678 63.4103 177.678Z" fill="#3F3D56"/>
<path d="M82.6738 156.006C83.117 156.006 83.4764 155.647 83.4764 155.204C83.4764 154.76 83.117 154.401 82.6738 154.401C82.2305 154.401 81.8711 154.76 81.8711 155.204C81.8711 155.647 82.2305 156.006 82.6738 156.006Z" fill="#3F3D56"/>
<path d="M30.7087 186.91C31.1594 186.67 31.5553 186.326 31.8688 185.904C32.1822 185.481 32.4054 184.99 32.5228 184.465C32.6402 183.94 32.6488 183.394 32.5481 182.865C32.4474 182.336 32.2398 181.837 31.9399 181.403L34.5143 154.401H28.9507L26.9048 180.767C26.2591 181.356 25.8372 182.178 25.7189 183.078C25.6007 183.979 25.7944 184.894 26.2633 185.651C26.7322 186.409 27.4437 186.955 28.263 187.187C29.0823 187.419 29.9526 187.321 30.7087 186.91Z" fill="#FFB8B8"/>
<path d="M36.5212 139.953C41.1758 139.953 44.9491 136.18 44.9491 131.525C44.9491 126.87 41.1758 123.097 36.5212 123.097C31.8666 123.097 28.0933 126.87 28.0933 131.525C28.0933 136.18 31.8666 139.953 36.5212 139.953Z" fill="#FFB8B8"/>
<path d="M37.6272 170.454C37.2813 170.454 36.9451 170.343 36.67 170.139C36.3949 169.935 36.1962 169.649 36.1043 169.324C35.4121 166.875 33.6112 162.735 30.7517 157.017C30.1065 155.725 29.7492 154.314 29.7033 152.877C29.6574 151.441 29.9239 150.011 30.4853 148.682C31.0466 147.353 31.8903 146.155 32.9608 145.166C34.0313 144.176 35.3045 143.419 36.6969 142.942C38.0164 142.489 39.4159 142.297 40.8127 142.38C42.2095 142.462 43.5752 142.816 44.8289 143.421C46.0826 144.026 47.199 144.87 48.1119 145.903C49.0248 146.936 49.7157 148.136 50.1438 149.434C52.3602 156.2 52.2532 163.448 52.1043 166.25C52.0858 166.587 51.9542 166.909 51.7297 167.167C51.5052 167.425 51.2001 167.604 50.8612 167.676L37.9666 170.418C37.8552 170.442 37.7413 170.454 37.6272 170.454Z" fill="#EE6A76"/>
<path d="M49.7659 249.917H54.1165L56.1864 233.864L49.7651 233.865L49.7659 249.917Z" fill="#FFB8B8"/>
<path d="M62.1477 253.727L48.9748 253.728L48.9745 248.637L57.0579 248.637C57.7263 248.637 58.3881 248.768 59.0056 249.024C59.6231 249.28 60.1842 249.655 60.6568 250.128C61.1295 250.6 61.5044 251.161 61.7602 251.779C62.016 252.397 62.1477 253.059 62.1477 253.727Z" fill="#2F2E41"/>
<path d="M8.02661 244.604L11.5977 246.707L20.8692 232.955L15.5992 229.851L8.02661 244.604Z" fill="#FFB8B8"/>
<path d="M16.8425 253.727L5.29909 247.38L7.75107 242.919L14.8345 246.814C16.0174 247.464 16.8935 248.558 17.27 249.855C17.6466 251.151 17.4928 252.544 16.8425 253.727Z" fill="#2F2E41"/>
<path d="M49.9173 241.088C49.5436 241.088 49.1828 240.951 48.9022 240.704C48.6215 240.457 48.4403 240.116 48.3922 239.745L43.1473 199.263C43.1242 199.084 43.0451 198.917 42.9214 198.785C42.7977 198.654 42.6357 198.565 42.4586 198.532C42.2815 198.498 42.0983 198.521 41.9352 198.598C41.7721 198.675 41.6374 198.801 41.5503 198.959L19.6917 238.681C19.5114 239.006 19.2208 239.255 18.8728 239.382C18.5249 239.51 18.1427 239.509 17.7957 239.378L13.0311 237.56C12.8395 237.487 12.6644 237.376 12.5161 237.235C12.3677 237.093 12.2492 236.923 12.1675 236.734C12.0857 236.546 12.0423 236.343 12.0399 236.138C12.0375 235.932 12.0761 235.728 12.1534 235.538L27.2954 198.281C27.3337 198.186 27.3597 198.087 27.3727 197.986C29.4236 182.086 34.6418 174.001 36.1922 171.902C36.3054 171.747 36.38 171.568 36.4095 171.379C36.439 171.19 36.4227 170.996 36.3618 170.814L36.1487 170.174C36.0636 169.92 36.0461 169.648 36.0981 169.385C36.15 169.122 36.2696 168.877 36.4449 168.674C42.0316 162.301 51.7689 165.779 51.8666 165.815L51.9154 165.833L51.946 165.874C62.8644 180.872 58.8275 229.586 57.9074 239.198C57.873 239.56 57.7122 239.897 57.4534 240.151C57.1946 240.405 56.8545 240.559 56.4932 240.586L50.0369 241.084C49.9967 241.087 49.9569 241.088 49.9173 241.088Z" fill="#121535"/>
<path d="M69.0555 141.085C69.0128 141.267 68.985 141.453 68.9724 141.639L54.0487 150.014L50.4212 147.982L46.5542 152.907L52.6166 157.11C53.1063 157.449 53.6961 157.625 54.2973 157.611C54.8986 157.597 55.4789 157.393 55.951 157.031L71.3399 145.222C72.0344 145.472 72.7907 145.51 73.5083 145.332C74.2258 145.154 74.8705 144.767 75.3567 144.224C75.8429 143.68 76.1475 143.006 76.2299 142.29C76.3124 141.574 76.1689 140.851 75.8185 140.216C75.468 139.582 74.9273 139.066 74.2681 138.738C73.609 138.409 72.8627 138.284 72.1285 138.378C71.3943 138.473 70.7071 138.782 70.1581 139.266C69.6092 139.749 69.2246 140.384 69.0555 141.085Z" fill="#FFB8B8"/>
<path d="M53.457 150.081L48.6979 156.212C48.5625 156.387 48.3908 156.53 48.1947 156.633C47.9985 156.735 47.7824 156.794 47.561 156.807C47.3397 156.819 47.1183 156.783 46.9121 156.702C46.7058 156.622 46.5194 156.498 46.3656 156.339L40.9781 150.778C40.0841 150.084 39.5034 149.067 39.3632 147.948C39.223 146.829 39.5348 145.701 40.2302 144.811C40.9257 143.92 41.948 143.34 43.073 143.198C44.198 143.055 45.3339 143.362 46.2317 144.051L52.9889 147.807C53.1824 147.914 53.3502 148.062 53.481 148.24C53.6118 148.418 53.7025 148.622 53.7469 148.837C53.7913 149.053 53.7884 149.276 53.7384 149.491C53.6884 149.705 53.5924 149.907 53.457 150.081Z" fill="#EE6A76"/>
<path d="M34.9163 160.799L27.6843 159.476C27.4785 159.438 27.2832 159.356 27.1116 159.235C26.94 159.114 26.7961 158.957 26.6898 158.774C26.5835 158.592 26.5173 158.389 26.4956 158.178C26.474 157.967 26.4974 157.754 26.5643 157.553L28.9087 150.521C29.1047 149.455 29.7098 148.512 30.5913 147.898C31.4728 147.284 32.5588 147.049 33.6111 147.244C34.6633 147.44 35.5961 148.051 36.2047 148.942C36.8134 149.833 37.0483 150.933 36.8579 152L36.6291 159.395C36.6225 159.606 36.5709 159.814 36.4779 160.004C36.3849 160.194 36.2526 160.361 36.09 160.494C35.9275 160.627 35.7385 160.724 35.5359 160.776C35.3334 160.829 35.122 160.836 34.9163 160.799Z" fill="#FF6584"/>
<path d="M37.7018 129.424C39.8785 130.899 42.7365 132.414 44.9597 130.844C45.6551 130.32 46.1603 129.587 46.3996 128.755C46.639 127.923 46.5996 127.037 46.2874 126.229C45.2229 123.217 42.2982 121.891 39.5014 120.874C35.8656 119.552 31.9067 118.501 28.1533 119.448C24.3999 120.394 21.0828 123.99 21.7603 127.764C22.3052 130.799 25.1981 133.324 24.7874 136.38C24.3741 139.455 20.8794 141.073 17.7942 141.623C14.7089 142.173 11.2564 142.349 9.03918 144.542C6.21068 147.34 6.917 152.34 9.57851 155.294C12.24 158.247 16.2564 159.586 20.1482 160.497C25.3047 161.702 30.8818 162.336 35.7792 160.335C40.6765 158.333 44.4876 152.946 43.0689 147.894C42.4696 145.76 41.058 143.957 39.6937 142.201C38.3294 140.445 36.948 138.609 36.4275 136.455C35.9939 134.66 36.3148 132.576 37.5178 131.23C37.7366 130.994 37.8743 130.696 37.9111 130.378C37.9479 130.06 37.882 129.738 37.7227 129.46L37.7018 129.424Z" fill="#F8A45B"/>
<path d="M69.4678 253.931H0.363706C0.267245 253.931 0.174735 253.889 0.106527 253.813C0.0383186 253.738 0 253.636 0 253.53C0 253.423 0.0383186 253.321 0.106527 253.246C0.174735 253.17 0.267245 253.128 0.363706 253.128H69.4678C69.5642 253.128 69.6567 253.17 69.725 253.246C69.7932 253.321 69.8315 253.423 69.8315 253.53C69.8315 253.636 69.7932 253.738 69.725 253.813C69.6567 253.889 69.5642 253.931 69.4678 253.931Z" fill="#CCCCCC"/>
</svg>
