<?xml version="1.0" encoding="utf-8"?>
<!-- Generator: Adobe Illustrator 27.9.0, SVG Export Plug-In . SVG Version: 6.00 Build 0)  -->
<svg version="1.1" id="Lager_1" xmlns="http://www.w3.org/2000/svg" xmlns:xlink="http://www.w3.org/1999/xlink" x="0px" y="0px"
	 viewBox="0 0 167.4 167.5" style="enable-background:new 0 0 167.4 167.5;" xml:space="preserve">
<style type="text/css">
	.st0{fill:#121535;}
</style>
<g id="K2KTbs_00000173857116407946613500000003755429694397208726_">
	<g>
		<path class="st0" d="M98.1,47.3c-17,29.5-33.6,58.2-50.4,87.4c16.2,5.1,31.7,4.3,46.8-2c15-6.2,26.1-16.8,34.5-31.9
			c13,22.5,25.6,44.3,38.5,66.7c-46.6,0-92.3,0-138.7,0c6.3-11,12.4-21.5,18.7-32.5C22.1,125.1,6,107.4,1.2,80.6
			c-3.3-18.3,0.6-35.5,11.1-50.9C32.7-0.2,72.8-8.9,103.4,9.9c30.6,18.8,42.4,59.6,25.4,90.4C118.5,82.6,108.5,65.3,98.1,47.3z"/>
	</g>
</g>
</svg>
