<?xml version="1.0" encoding="utf-8"?>
<!-- Generator: Adobe Illustrator 27.9.0, SVG Export Plug-In . SVG Version: 6.00 Build 0)  -->
<svg version="1.1" id="Lager_1" xmlns="http://www.w3.org/2000/svg" xmlns:xlink="http://www.w3.org/1999/xlink" x="0px" y="0px"
	 viewBox="0 0 120 36" style="enable-background:new 0 0 120 36;" xml:space="preserve">
<style type="text/css">
	.st0{fill:#121535;}
</style>
<path class="st0" d="M64.2,16.7c-1.1,0-2.1-0.3-3-0.7l5.1-2.9L58,8.3c0.8-2.6,3.3-4.5,6.2-4.5c3.6,0,6.6,2.9,6.6,6.5
	C70.8,13.8,67.9,16.7,64.2,16.7z"/>
<path class="st0" d="M54.9,19.7V6.5L58,8.3c-0.2,0.6-0.3,1.3-0.3,2c0,2.5,1.4,4.7,3.5,5.8L54.9,19.7L54.9,19.7z"/>
<path class="st0" d="M6.9,31.1L6.7,27c1.8,0,3.1-0.4,4-1.3c0.9-0.8,1.3-2.1,1.3-3.8V7h4.7v14.8c0,2.2-0.3,4-1,5.3
	c-0.7,1.4-1.7,2.3-3.1,3C11.1,30.8,9.2,31.1,6.9,31.1L6.9,31.1z"/>
<path class="st0" d="M30.7,30.4c-1.7,0-3.3-0.3-4.8-0.9c-1.5-0.6-2.7-1.4-3.8-2.5c-1.1-1.1-1.9-2.3-2.5-3.8c-0.6-1.4-0.9-3-0.9-4.7
	c0-1.7,0.3-3.3,0.9-4.7c0.6-1.5,1.4-2.7,2.5-3.8c1.1-1.1,2.4-1.9,3.8-2.5c1.5-0.6,3.1-0.9,4.8-0.9s3.3,0.3,4.8,0.9
	c1.5,0.6,2.7,1.4,3.8,2.5c1.1,1.1,1.9,2.3,2.5,3.8c0.6,1.5,0.9,3,0.9,4.7c0,1.7-0.3,3.3-0.9,4.7c-0.6,1.4-1.4,2.7-2.5,3.8
	c-1.1,1.1-2.3,1.9-3.8,2.5C34.1,30.1,32.5,30.4,30.7,30.4z M30.7,26.3c1,0,2-0.2,2.9-0.6c0.9-0.4,1.6-0.9,2.3-1.7
	c0.6-0.7,1.2-1.5,1.5-2.5c0.4-0.9,0.5-2,0.5-3.1c0-1.1-0.2-2.1-0.5-3.1c-0.4-0.9-0.9-1.8-1.5-2.5c-0.6-0.7-1.4-1.3-2.3-1.6
	c-0.9-0.4-1.8-0.6-2.9-0.6s-2,0.2-2.9,0.6c-0.9,0.4-1.6,0.9-2.3,1.6c-0.7,0.7-1.2,1.5-1.5,2.5c-0.4,0.9-0.5,2-0.5,3.1
	c0,1.1,0.2,2.1,0.5,3.1c0.4,0.9,0.9,1.8,1.5,2.5c0.7,0.7,1.4,1.3,2.3,1.6C28.7,26.1,29.7,26.3,30.7,26.3L30.7,26.3z"/>
<path class="st0" d="M59.7,29.9H44.8V7h4.7v18.8h10.2V29.9z"/>
<path class="st0" d="M68.7,29.9H64v-11h4.7V29.9z"/>
<path class="st0" d="M93.6,29.9h-5.4L77.5,14.3v15.6h-4.7V7h5.4l10.7,15.6V7h4.7V29.9z"/>
<path class="st0" d="M107.2,29.9h-4.7V11.1h-6.7V7h18.2v4.1h-6.8V29.9z"/>
</svg>
